<?xml version="1.0" encoding="utf-8" standalone="no"?>
<!DOCTYPE svg PUBLIC "-//W3C//DTD SVG 1.1//EN"
  "http://www.w3.org/Graphics/SVG/1.1/DTD/svg11.dtd">
<svg xmlns:xlink="http://www.w3.org/1999/xlink" width="420.221845pt" height="325.986375pt" viewBox="0 0 420.221845 325.986375" xmlns="http://www.w3.org/2000/svg" version="1.1">
 <metadata>
  <rdf:RDF xmlns:dc="http://purl.org/dc/elements/1.1/" xmlns:cc="http://creativecommons.org/ns#" xmlns:rdf="http://www.w3.org/1999/02/22-rdf-syntax-ns#">
   <cc:Work>
    <dc:type rdf:resource="http://purl.org/dc/dcmitype/StillImage"/>
    <dc:date>2025-02-21T07:05:32.949452</dc:date>
    <dc:format>image/svg+xml</dc:format>
    <dc:creator>
     <cc:Agent>
      <dc:title>Matplotlib v3.10.0, https://matplotlib.org/</dc:title>
     </cc:Agent>
    </dc:creator>
   </cc:Work>
  </rdf:RDF>
 </metadata>
 <defs>
  <style type="text/css">*{stroke-linejoin: round; stroke-linecap: butt}</style>
 </defs>
 <g id="figure_1">
  <g id="patch_1">
   <path d="M 0 325.986375 
L 420.221845 325.986375 
L 420.221845 0 
L 0 0 
z
" style="fill: #ffffff"/>
  </g>
  <g id="axes_1">
   <g id="patch_2">
    <path d="M 50.14375 288.430125 
L 407.26375 288.430125 
L 407.26375 22.318125 
L 50.14375 22.318125 
z
" style="fill: #ffffff"/>
   </g>
   <g id="FillBetweenPolyCollection_1">
    <path d="M 66.376477 205.396554 
L 66.376477 235.785294 
L 121.49825 276.334125 
L 136.432226 242.833285 
L 141.239892 247.959097 
L 145.168042 235.693762 
L 148.489245 245.945385 
L 151.366202 225.442139 
L 153.903858 225.625203 
L 156.173869 223.336895 
L 158.227343 217.570357 
L 160.102018 212.902207 
L 161.826552 215.648177 
L 164.909685 215.007451 
L 166.300178 211.529221 
L 168.837834 206.311878 
L 171.107845 203.016713 
L 173.161319 208.142525 
L 176.760529 210.613898 
L 178.357198 214.275192 
L 181.234155 211.07156 
L 182.540323 207.867927 
L 184.362126 204.84736 
L 196.831112 198.62316 
L 203.513453 195.785657 
L 204.903947 192.673557 
L 222.868625 189.012263 
L 243.545088 186.357825 
L 243.545088 121.369857 
L 243.545088 121.369857 
L 222.868625 124.573489 
L 204.903947 127.868654 
L 203.513453 129.150107 
L 196.831112 131.438416 
L 184.362126 135.09971 
L 182.540323 138.669471 
L 181.234155 141.140845 
L 178.357198 143.795283 
L 176.760529 143.612218 
L 173.161319 139.676327 
L 171.107845 142.056168 
L 168.837834 144.802139 
L 166.300178 147.273512 
L 164.909685 150.019483 
L 161.826552 153.406179 
L 160.102018 159.996509 
L 158.227343 160.45417 
L 156.173869 167.502161 
L 153.903858 166.129176 
L 151.366202 162.284817 
L 148.489245 166.861435 
L 145.168042 148.005771 
L 141.239892 153.497712 
L 136.432226 145.62593 
L 121.49825 160.637235 
L 66.376477 205.396554 
z
" clip-path="url(#p8b17497d6b)" style="fill: #1f77b4; fill-opacity: 0.1"/>
   </g>
   <g id="FillBetweenPolyCollection_2">
    <path d="M 66.376477 34.505657 
L 66.376477 130.43156 
L 188.095296 103.612581 
L 189.053016 172.536441 
L 194.777637 145.168268 
L 196.168131 130.889221 
L 196.831112 130.248495 
L 197.474299 166.220708 
L 200.430321 145.808994 
L 201.507804 150.568677 
L 202.281965 132.536804 
L 202.533959 154.779165 
L 203.029272 160.728767 
L 203.986993 181.506611 
L 204.219916 203.657439 
L 205.348193 209.881639 
L 206.628481 214.275192 
L 207.038878 219.858665 
L 207.441603 234.686906 
L 208.22515 221.963909 
L 210.06774 214.092127 
L 210.418076 206.220345 
L 211.436147 214.092127 
L 212.722809 220.133262 
L 213.032817 226.082865 
L 213.338427 231.391741 
L 213.639763 233.130856 
L 213.788865 228.554239 
L 213.936943 226.815124 
L 214.51928 230.56795 
L 214.945931 229.37803 
L 215.364297 226.26593 
L 216.702937 226.357462 
L 216.960966 218.577212 
L 217.215942 223.703024 
L 217.467935 233.313921 
L 217.717015 236.059891 
L 218.920969 235.968359 
L 220.282169 236.883682 
L 220.71744 241.4603 
L 221.562457 247.31837 
L 222.375579 244.480867 
L 223.35064 238.988926 
L 224.100113 239.171991 
L 224.555631 237.707473 
L 225.265001 247.867564 
L 225.352052 241.09417 
L 225.867101 241.734897 
L 225.951758 245.396191 
L 227.421316 243.01635 
L 227.578581 241.917962 
L 228.722841 234.503841 
L 230.159719 232.581662 
L 231.30997 233.313921 
L 233.381406 235.693762 
L 235.597486 230.93408 
L 237.948342 226.26593 
L 238.33223 221.963909 
L 239.034089 217.936486 
L 239.308554 212.902207 
L 240.415949 217.844954 
L 240.885734 217.478824 
L 241.876491 212.078416 
L 243.054116 209.14938 
L 244.098031 203.108245 
L 244.206937 209.51551 
L 244.743359 206.311878 
L 244.884178 202.284454 
L 246.538417 207.776395 
L 246.70029 211.620754 
L 246.988632 208.600186 
L 247.335887 213.085271 
L 247.584967 208.966316 
L 248.434746 209.607042 
L 249.48027 205.854216 
L 251.248373 212.444545 
L 251.687822 210.064704 
L 251.840806 206.952604 
L 251.916893 203.29131 
L 251.967468 200.819937 
L 252.09339 200.453807 
L 252.168592 197.250175 
L 253.313715 191.758234 
L 253.573156 188.737666 
L 257.229997 184.801775 
L 257.446533 189.65299 
L 259.800602 186.449358 
L 262.765177 183.245725 
L 263.129329 187.364681 
L 267.227323 185.167905 
L 268.188289 182.147337 
L 270.785347 179.401367 
L 273.036367 176.929993 
L 276.422612 173.451764 
L 279.048483 171.438052 
L 280.41291 167.959823 
L 283.598779 165.305385 
L 290.491104 162.834011 
L 318.279052 160.545703 
L 318.279052 106.724681 
L 318.279052 106.724681 
L 290.491104 109.01299 
L 283.598779 111.118234 
L 280.41291 113.772672 
L 279.048483 115.23719 
L 276.422612 117.617031 
L 273.036367 119.813807 
L 270.785347 121.919051 
L 268.188289 124.298892 
L 267.227323 126.587201 
L 263.129329 127.31946 
L 262.765177 121.919051 
L 259.800602 124.20736 
L 257.446533 126.678733 
L 257.229997 119.813807 
L 253.573156 122.65131 
L 253.313715 124.939619 
L 252.168592 127.31946 
L 252.09339 129.607769 
L 251.967468 132.536804 
L 251.916893 135.557371 
L 251.840806 138.303342 
L 251.687822 141.049312 
L 251.248373 143.246089 
L 249.48027 137.754148 
L 248.434746 137.662615 
L 247.584967 140.866248 
L 247.335887 143.154556 
L 246.988632 136.65576 
L 246.70029 138.761004 
L 246.538417 135.09971 
L 244.884178 127.410992 
L 244.743359 130.523092 
L 244.206937 132.628336 
L 244.098031 124.390425 
L 243.054116 125.671878 
L 241.876491 129.333172 
L 240.885734 129.973898 
L 240.415949 125.214216 
L 239.308554 117.708563 
L 239.034089 120.363001 
L 238.33223 122.925907 
L 237.948342 126.312604 
L 235.597486 130.43156 
L 233.381406 134.642048 
L 231.30997 123.841231 
L 230.159719 128.783977 
L 228.722841 134.001321 
L 227.578581 142.879959 
L 227.421316 148.005771 
L 225.951758 153.314647 
L 225.867101 141.415442 
L 225.352052 144.436009 
L 225.265001 148.097303 
L 224.555631 136.28963 
L 224.100113 134.275918 
L 223.35064 137.937212 
L 222.375579 142.696895 
L 221.562457 144.619074 
L 220.71744 128.143251 
L 220.282169 115.145657 
L 218.920969 114.779528 
L 217.717015 109.379119 
L 217.467935 115.420254 
L 217.215942 98.12064 
L 216.960966 103.978711 
L 216.702937 108.829925 
L 215.364297 115.328722 
L 214.945931 124.115828 
L 214.51928 124.573489 
L 213.936943 128.50938 
L 213.788865 138.303342 
L 213.639763 144.527542 
L 213.338427 141.506974 
L 213.032817 136.198098 
L 212.722809 143.795283 
L 211.436147 127.868654 
L 210.418076 123.292036 
L 210.06774 133.726724 
L 208.22515 123.658166 
L 207.441603 121.369857 
L 207.038878 96.656123 
L 206.628481 110.477508 
L 205.348193 118.166225 
L 204.219916 129.333172 
L 203.986993 94.733943 
L 203.029272 84.024658 
L 202.533959 85.763773 
L 202.281965 78.715782 
L 201.507804 90.889585 
L 200.430321 87.045226 
L 197.474299 98.852899 
L 196.831112 67.823433 
L 196.168131 85.306111 
L 194.777637 78.349653 
L 189.053016 99.67669 
L 188.095296 34.414125 
L 66.376477 34.505657 
z
" clip-path="url(#p8b17497d6b)" style="fill: #ff7f0e; fill-opacity: 0.1"/>
   </g>
   <g id="FillBetweenPolyCollection_3">
    <path d="M 66.376477 55.832695 
L 66.376477 131.98761 
L 256.09257 108.006134 
L 260.711702 178.119914 
L 261.358355 149.92795 
L 263.099217 147.18198 
L 264.37168 128.143251 
L 265.070353 161.094897 
L 266.812859 155.419891 
L 267.20243 147.914239 
L 267.646168 132.994466 
L 267.767823 140.866248 
L 267.864656 161.552559 
L 269.869768 161.461026 
L 272.409869 185.900164 
L 272.643318 175.007814 
L 273.055358 168.325952 
L 276.800819 163.840867 
L 278.228174 188.554602 
L 278.715341 178.577576 
L 279.206009 167.227564 
L 279.433101 157.250538 
L 279.615867 159.355782 
L 279.963042 149.561821 
L 280.533988 159.904976 
L 280.959061 150.843274 
L 281.408138 140.317053 
L 284.082055 133.726724 
L 284.155889 137.021889 
L 284.869666 155.511424 
L 284.946319 159.26425 
L 285.087957 150.751741 
L 285.136769 156.243682 
L 285.655955 159.538847 
L 287.353623 163.017076 
L 287.470611 156.975941 
L 288.017789 166.861435 
L 288.211232 160.362638 
L 289.390206 153.314647 
L 290.077294 147.365044 
L 290.120325 142.330765 
L 290.65946 143.246089 
L 291.169061 155.877553 
L 292.129986 170.797326 
L 293.333174 181.323546 
L 294.054205 183.79492 
L 294.310529 193.405816 
L 294.807289 191.666702 
L 294.824574 185.808631 
L 296.734639 181.415078 
L 297.753732 188.280005 
L 298.192623 198.714693 
L 298.579251 203.382842 
L 299.748722 200.270742 
L 300.768993 194.870334 
L 301.040005 189.744522 
L 302.103525 186.54089 
L 304.021907 182.147337 
L 305.448307 180.499755 
L 306.47245 186.449358 
L 306.805933 194.046543 
L 309.408441 192.032831 
L 309.431258 188.188472 
L 309.490819 184.252581 
L 310.891041 180.31669 
L 311.860661 175.557008 
L 316.283785 172.170311 
L 316.480709 179.401367 
L 316.528713 175.190879 
L 316.754661 171.34652 
L 317.140777 166.129176 
L 317.219132 163.749335 
L 319.295924 166.403773 
L 319.42979 164.115464 
L 320.266958 161.827156 
L 320.588117 169.698938 
L 320.714214 166.769903 
L 320.975508 163.291673 
L 320.98064 170.248132 
L 321.950896 175.190879 
L 322.35522 172.353376 
L 322.40331 169.515873 
L 325.093924 166.129176 
L 325.318302 172.719505 
L 325.471322 179.584431 
L 325.781532 176.838461 
L 327.99768 172.994102 
L 328.864062 170.614261 
L 329.907525 175.557008 
L 330.809328 172.90257 
L 331.170487 170.156599 
L 331.648016 174.550152 
L 332.982021 173.909426 
L 334.543887 170.156599 
L 335.676226 176.563864 
L 337.496656 174.550152 
L 341.120279 171.438052 
L 342.763531 168.509017 
L 344.901773 166.129176 
L 345.068167 163.474738 
L 345.166254 161.827156 
L 348.553823 157.891265 
L 354.039797 155.053762 
L 354.487574 152.490856 
L 360.219973 150.202547 
L 391.031023 148.005771 
L 391.031023 107.914602 
L 391.031023 107.914602 
L 360.219973 110.111378 
L 354.487574 112.765816 
L 354.039797 114.413399 
L 348.553823 116.335578 
L 345.166254 118.440822 
L 345.068167 121.003728 
L 344.901773 122.925907 
L 342.763531 125.671878 
L 341.120279 127.868654 
L 337.496656 130.06543 
L 335.676226 131.713013 
L 334.543887 125.854942 
L 332.982021 127.594057 
L 331.648016 131.896077 
L 331.170487 124.20736 
L 330.809328 126.404136 
L 329.907525 128.87551 
L 328.864062 122.65131 
L 327.99768 122.65131 
L 325.781532 125.214216 
L 325.471322 127.960186 
L 325.318302 122.010584 
L 325.093924 115.420254 
L 322.40331 117.708563 
L 322.35522 120.363001 
L 321.950896 121.552922 
L 320.98064 112.765816 
L 320.975508 105.626293 
L 320.714214 108.372263 
L 320.588117 110.935169 
L 320.266958 104.34484 
L 319.42979 107.731537 
L 319.295924 110.20291 
L 317.219132 109.01299 
L 317.140777 112.491219 
L 316.754661 114.413399 
L 316.528713 117.525498 
L 316.480709 119.90534 
L 316.283785 113.955737 
L 311.860661 119.173081 
L 310.891041 122.102116 
L 309.490819 125.854942 
L 309.431258 129.058574 
L 309.408441 132.536804 
L 306.805933 136.564227 
L 306.47245 124.939619 
L 305.448307 115.694851 
L 304.021907 120.637598 
L 302.103525 123.566634 
L 301.040005 128.234783 
L 300.768993 131.529948 
L 299.748722 134.73358 
L 298.579251 136.381162 
L 298.192623 135.374307 
L 297.753732 125.854942 
L 296.734639 112.948881 
L 294.824574 117.891628 
L 294.807289 121.369857 
L 294.310529 123.108972 
L 294.054205 107.823069 
L 293.333174 112.491219 
L 292.129986 99.585158 
L 291.169061 88.509744 
L 290.65946 77.342797 
L 290.120325 75.695215 
L 290.077294 79.631106 
L 289.390206 79.905703 
L 288.211232 84.939982 
L 288.017789 89.791197 
L 287.470611 79.722638 
L 287.353623 84.299256 
L 285.655955 77.708926 
L 285.136769 73.132309 
L 285.087957 70.752468 
L 284.946319 75.237553 
L 284.869666 65.626656 
L 284.155889 45.489539 
L 284.082055 54.642774 
L 281.408138 59.402456 
L 280.959061 64.98593 
L 280.533988 69.837144 
L 279.963042 79.264976 
L 279.615867 84.665385 
L 279.433101 84.207723 
L 279.206009 90.889585 
L 278.715341 99.127496 
L 278.228174 102.697258 
L 276.800819 77.800459 
L 273.055358 90.157326 
L 272.643318 97.022252 
L 272.409869 110.843637 
L 269.869768 84.939982 
L 267.864656 93.45249 
L 267.767823 66.725044 
L 267.646168 79.905703 
L 267.20243 91.164182 
L 266.812859 104.34484 
L 265.070353 122.468245 
L 264.37168 60.226248 
L 263.099217 75.054488 
L 261.358355 95.37467 
L 260.711702 100.134352 
L 256.09257 35.146384 
L 66.376477 55.832695 
z
" clip-path="url(#p8b17497d6b)" style="fill: #2ca02c; fill-opacity: 0.1"/>
   </g>
   <g id="matplotlib.axis_1">
    <g id="xtick_1">
     <g id="line2d_1">
      <defs>
       <path id="m3f90b6e5cd" d="M 0 0 
L 0 3.5 
" style="stroke: #000000; stroke-width: 0.8"/>
      </defs>
      <g>
       <use xlink:href="#m3f90b6e5cd" x="66.376477" y="288.430125" style="stroke: #000000; stroke-width: 0.8"/>
      </g>
     </g>
     <g id="text_1">
      <!-- $\mathdefault{0}$ -->
      <g transform="translate(63.176477 303.028562) scale(0.1 -0.1)">
       <defs>
        <path id="DejaVuSans-30" d="M 2034 4250 
Q 1547 4250 1301 3770 
Q 1056 3291 1056 2328 
Q 1056 1369 1301 889 
Q 1547 409 2034 409 
Q 2525 409 2770 889 
Q 3016 1369 3016 2328 
Q 3016 3291 2770 3770 
Q 2525 4250 2034 4250 
z
M 2034 4750 
Q 2819 4750 3233 4129 
Q 3647 3509 3647 2328 
Q 3647 1150 3233 529 
Q 2819 -91 2034 -91 
Q 1250 -91 836 529 
Q 422 1150 422 2328 
Q 422 3509 836 4129 
Q 1250 4750 2034 4750 
z
" transform="scale(0.015625)"/>
       </defs>
       <use xlink:href="#DejaVuSans-30" transform="translate(0 0.78125)"/>
      </g>
     </g>
    </g>
    <g id="xtick_2">
     <g id="line2d_2">
      <g>
       <use xlink:href="#m3f90b6e5cd" x="93.937363" y="288.430125" style="stroke: #000000; stroke-width: 0.8"/>
      </g>
     </g>
     <g id="text_2">
      <!-- $\mathdefault{10^{0}}$ -->
      <g transform="translate(85.137363 303.028562) scale(0.1 -0.1)">
       <defs>
        <path id="DejaVuSans-31" d="M 794 531 
L 1825 531 
L 1825 4091 
L 703 3866 
L 703 4441 
L 1819 4666 
L 2450 4666 
L 2450 531 
L 3481 531 
L 3481 0 
L 794 0 
L 794 531 
z
" transform="scale(0.015625)"/>
       </defs>
       <use xlink:href="#DejaVuSans-31" transform="translate(0 0.765625)"/>
       <use xlink:href="#DejaVuSans-30" transform="translate(63.623047 0.765625)"/>
       <use xlink:href="#DejaVuSans-30" transform="translate(128.203125 39.046875) scale(0.7)"/>
      </g>
     </g>
    </g>
    <g id="xtick_3">
     <g id="line2d_3">
      <g>
       <use xlink:href="#m3f90b6e5cd" x="156.173869" y="288.430125" style="stroke: #000000; stroke-width: 0.8"/>
      </g>
     </g>
     <g id="text_3">
      <!-- $\mathdefault{10^{1}}$ -->
      <g transform="translate(147.373869 303.028562) scale(0.1 -0.1)">
       <use xlink:href="#DejaVuSans-31" transform="translate(0 0.684375)"/>
       <use xlink:href="#DejaVuSans-30" transform="translate(63.623047 0.684375)"/>
       <use xlink:href="#DejaVuSans-31" transform="translate(128.203125 38.965625) scale(0.7)"/>
      </g>
     </g>
    </g>
    <g id="xtick_4">
     <g id="line2d_4">
      <g>
       <use xlink:href="#m3f90b6e5cd" x="205.783464" y="288.430125" style="stroke: #000000; stroke-width: 0.8"/>
      </g>
     </g>
     <g id="text_4">
      <!-- $\mathdefault{10^{2}}$ -->
      <g transform="translate(196.983464 303.028562) scale(0.1 -0.1)">
       <defs>
        <path id="DejaVuSans-32" d="M 1228 531 
L 3431 531 
L 3431 0 
L 469 0 
L 469 531 
Q 828 903 1448 1529 
Q 2069 2156 2228 2338 
Q 2531 2678 2651 2914 
Q 2772 3150 2772 3378 
Q 2772 3750 2511 3984 
Q 2250 4219 1831 4219 
Q 1534 4219 1204 4116 
Q 875 4013 500 3803 
L 500 4441 
Q 881 4594 1212 4672 
Q 1544 4750 1819 4750 
Q 2544 4750 2975 4387 
Q 3406 4025 3406 3419 
Q 3406 3131 3298 2873 
Q 3191 2616 2906 2266 
Q 2828 2175 2409 1742 
Q 1991 1309 1228 531 
z
" transform="scale(0.015625)"/>
       </defs>
       <use xlink:href="#DejaVuSans-31" transform="translate(0 0.765625)"/>
       <use xlink:href="#DejaVuSans-30" transform="translate(63.623047 0.765625)"/>
       <use xlink:href="#DejaVuSans-32" transform="translate(128.203125 39.046875) scale(0.7)"/>
      </g>
     </g>
    </g>
    <g id="xtick_5">
     <g id="line2d_5">
      <g>
       <use xlink:href="#m3f90b6e5cd" x="255.393059" y="288.430125" style="stroke: #000000; stroke-width: 0.8"/>
      </g>
     </g>
     <g id="text_5">
      <!-- $\mathdefault{10^{3}}$ -->
      <g transform="translate(246.593059 303.028562) scale(0.1 -0.1)">
       <defs>
        <path id="DejaVuSans-33" d="M 2597 2516 
Q 3050 2419 3304 2112 
Q 3559 1806 3559 1356 
Q 3559 666 3084 287 
Q 2609 -91 1734 -91 
Q 1441 -91 1130 -33 
Q 819 25 488 141 
L 488 750 
Q 750 597 1062 519 
Q 1375 441 1716 441 
Q 2309 441 2620 675 
Q 2931 909 2931 1356 
Q 2931 1769 2642 2001 
Q 2353 2234 1838 2234 
L 1294 2234 
L 1294 2753 
L 1863 2753 
Q 2328 2753 2575 2939 
Q 2822 3125 2822 3475 
Q 2822 3834 2567 4026 
Q 2313 4219 1838 4219 
Q 1578 4219 1281 4162 
Q 984 4106 628 3988 
L 628 4550 
Q 988 4650 1302 4700 
Q 1616 4750 1894 4750 
Q 2613 4750 3031 4423 
Q 3450 4097 3450 3541 
Q 3450 3153 3228 2886 
Q 3006 2619 2597 2516 
z
" transform="scale(0.015625)"/>
       </defs>
       <use xlink:href="#DejaVuSans-31" transform="translate(0 0.765625)"/>
       <use xlink:href="#DejaVuSans-30" transform="translate(63.623047 0.765625)"/>
       <use xlink:href="#DejaVuSans-33" transform="translate(128.203125 39.046875) scale(0.7)"/>
      </g>
     </g>
    </g>
    <g id="xtick_6">
     <g id="line2d_6">
      <g>
       <use xlink:href="#m3f90b6e5cd" x="305.002654" y="288.430125" style="stroke: #000000; stroke-width: 0.8"/>
      </g>
     </g>
     <g id="text_6">
      <!-- $\mathdefault{10^{4}}$ -->
      <g transform="translate(296.202654 303.028562) scale(0.1 -0.1)">
       <defs>
        <path id="DejaVuSans-34" d="M 2419 4116 
L 825 1625 
L 2419 1625 
L 2419 4116 
z
M 2253 4666 
L 3047 4666 
L 3047 1625 
L 3713 1625 
L 3713 1100 
L 3047 1100 
L 3047 0 
L 2419 0 
L 2419 1100 
L 313 1100 
L 313 1709 
L 2253 4666 
z
" transform="scale(0.015625)"/>
       </defs>
       <use xlink:href="#DejaVuSans-31" transform="translate(0 0.684375)"/>
       <use xlink:href="#DejaVuSans-30" transform="translate(63.623047 0.684375)"/>
       <use xlink:href="#DejaVuSans-34" transform="translate(128.203125 38.965625) scale(0.7)"/>
      </g>
     </g>
    </g>
    <g id="xtick_7">
     <g id="line2d_7">
      <g>
       <use xlink:href="#m3f90b6e5cd" x="354.612249" y="288.430125" style="stroke: #000000; stroke-width: 0.8"/>
      </g>
     </g>
     <g id="text_7">
      <!-- $\mathdefault{10^{5}}$ -->
      <g transform="translate(345.812249 303.028562) scale(0.1 -0.1)">
       <defs>
        <path id="DejaVuSans-35" d="M 691 4666 
L 3169 4666 
L 3169 4134 
L 1269 4134 
L 1269 2991 
Q 1406 3038 1543 3061 
Q 1681 3084 1819 3084 
Q 2600 3084 3056 2656 
Q 3513 2228 3513 1497 
Q 3513 744 3044 326 
Q 2575 -91 1722 -91 
Q 1428 -91 1123 -41 
Q 819 9 494 109 
L 494 744 
Q 775 591 1075 516 
Q 1375 441 1709 441 
Q 2250 441 2565 725 
Q 2881 1009 2881 1497 
Q 2881 1984 2565 2268 
Q 2250 2553 1709 2553 
Q 1456 2553 1204 2497 
Q 953 2441 691 2322 
L 691 4666 
z
" transform="scale(0.015625)"/>
       </defs>
       <use xlink:href="#DejaVuSans-31" transform="translate(0 0.684375)"/>
       <use xlink:href="#DejaVuSans-30" transform="translate(63.623047 0.684375)"/>
       <use xlink:href="#DejaVuSans-35" transform="translate(128.203125 38.965625) scale(0.7)"/>
      </g>
     </g>
    </g>
    <g id="xtick_8">
     <g id="line2d_8">
      <g>
       <use xlink:href="#m3f90b6e5cd" x="404.221845" y="288.430125" style="stroke: #000000; stroke-width: 0.8"/>
      </g>
     </g>
     <g id="text_8">
      <!-- $\mathdefault{10^{6}}$ -->
      <g transform="translate(395.421845 303.028562) scale(0.1 -0.1)">
       <defs>
        <path id="DejaVuSans-36" d="M 2113 2584 
Q 1688 2584 1439 2293 
Q 1191 2003 1191 1497 
Q 1191 994 1439 701 
Q 1688 409 2113 409 
Q 2538 409 2786 701 
Q 3034 994 3034 1497 
Q 3034 2003 2786 2293 
Q 2538 2584 2113 2584 
z
M 3366 4563 
L 3366 3988 
Q 3128 4100 2886 4159 
Q 2644 4219 2406 4219 
Q 1781 4219 1451 3797 
Q 1122 3375 1075 2522 
Q 1259 2794 1537 2939 
Q 1816 3084 2150 3084 
Q 2853 3084 3261 2657 
Q 3669 2231 3669 1497 
Q 3669 778 3244 343 
Q 2819 -91 2113 -91 
Q 1303 -91 875 529 
Q 447 1150 447 2328 
Q 447 3434 972 4092 
Q 1497 4750 2381 4750 
Q 2619 4750 2861 4703 
Q 3103 4656 3366 4563 
z
" transform="scale(0.015625)"/>
       </defs>
       <use xlink:href="#DejaVuSans-31" transform="translate(0 0.765625)"/>
       <use xlink:href="#DejaVuSans-30" transform="translate(63.623047 0.765625)"/>
       <use xlink:href="#DejaVuSans-36" transform="translate(128.203125 39.046875) scale(0.7)"/>
      </g>
     </g>
    </g>
    <g id="text_9">
     <!-- TMD to training dataset -->
     <g transform="translate(169.425625 316.706687) scale(0.1 -0.1)">
      <defs>
       <path id="DejaVuSans-54" d="M -19 4666 
L 3928 4666 
L 3928 4134 
L 2272 4134 
L 2272 0 
L 1638 0 
L 1638 4134 
L -19 4134 
L -19 4666 
z
" transform="scale(0.015625)"/>
       <path id="DejaVuSans-4d" d="M 628 4666 
L 1569 4666 
L 2759 1491 
L 3956 4666 
L 4897 4666 
L 4897 0 
L 4281 0 
L 4281 4097 
L 3078 897 
L 2444 897 
L 1241 4097 
L 1241 0 
L 628 0 
L 628 4666 
z
" transform="scale(0.015625)"/>
       <path id="DejaVuSans-44" d="M 1259 4147 
L 1259 519 
L 2022 519 
Q 2988 519 3436 956 
Q 3884 1394 3884 2338 
Q 3884 3275 3436 3711 
Q 2988 4147 2022 4147 
L 1259 4147 
z
M 628 4666 
L 1925 4666 
Q 3281 4666 3915 4102 
Q 4550 3538 4550 2338 
Q 4550 1131 3912 565 
Q 3275 0 1925 0 
L 628 0 
L 628 4666 
z
" transform="scale(0.015625)"/>
       <path id="DejaVuSans-20" transform="scale(0.015625)"/>
       <path id="DejaVuSans-74" d="M 1172 4494 
L 1172 3500 
L 2356 3500 
L 2356 3053 
L 1172 3053 
L 1172 1153 
Q 1172 725 1289 603 
Q 1406 481 1766 481 
L 2356 481 
L 2356 0 
L 1766 0 
Q 1100 0 847 248 
Q 594 497 594 1153 
L 594 3053 
L 172 3053 
L 172 3500 
L 594 3500 
L 594 4494 
L 1172 4494 
z
" transform="scale(0.015625)"/>
       <path id="DejaVuSans-6f" d="M 1959 3097 
Q 1497 3097 1228 2736 
Q 959 2375 959 1747 
Q 959 1119 1226 758 
Q 1494 397 1959 397 
Q 2419 397 2687 759 
Q 2956 1122 2956 1747 
Q 2956 2369 2687 2733 
Q 2419 3097 1959 3097 
z
M 1959 3584 
Q 2709 3584 3137 3096 
Q 3566 2609 3566 1747 
Q 3566 888 3137 398 
Q 2709 -91 1959 -91 
Q 1206 -91 779 398 
Q 353 888 353 1747 
Q 353 2609 779 3096 
Q 1206 3584 1959 3584 
z
" transform="scale(0.015625)"/>
       <path id="DejaVuSans-72" d="M 2631 2963 
Q 2534 3019 2420 3045 
Q 2306 3072 2169 3072 
Q 1681 3072 1420 2755 
Q 1159 2438 1159 1844 
L 1159 0 
L 581 0 
L 581 3500 
L 1159 3500 
L 1159 2956 
Q 1341 3275 1631 3429 
Q 1922 3584 2338 3584 
Q 2397 3584 2469 3576 
Q 2541 3569 2628 3553 
L 2631 2963 
z
" transform="scale(0.015625)"/>
       <path id="DejaVuSans-61" d="M 2194 1759 
Q 1497 1759 1228 1600 
Q 959 1441 959 1056 
Q 959 750 1161 570 
Q 1363 391 1709 391 
Q 2188 391 2477 730 
Q 2766 1069 2766 1631 
L 2766 1759 
L 2194 1759 
z
M 3341 1997 
L 3341 0 
L 2766 0 
L 2766 531 
Q 2569 213 2275 61 
Q 1981 -91 1556 -91 
Q 1019 -91 701 211 
Q 384 513 384 1019 
Q 384 1609 779 1909 
Q 1175 2209 1959 2209 
L 2766 2209 
L 2766 2266 
Q 2766 2663 2505 2880 
Q 2244 3097 1772 3097 
Q 1472 3097 1187 3025 
Q 903 2953 641 2809 
L 641 3341 
Q 956 3463 1253 3523 
Q 1550 3584 1831 3584 
Q 2591 3584 2966 3190 
Q 3341 2797 3341 1997 
z
" transform="scale(0.015625)"/>
       <path id="DejaVuSans-69" d="M 603 3500 
L 1178 3500 
L 1178 0 
L 603 0 
L 603 3500 
z
M 603 4863 
L 1178 4863 
L 1178 4134 
L 603 4134 
L 603 4863 
z
" transform="scale(0.015625)"/>
       <path id="DejaVuSans-6e" d="M 3513 2113 
L 3513 0 
L 2938 0 
L 2938 2094 
Q 2938 2591 2744 2837 
Q 2550 3084 2163 3084 
Q 1697 3084 1428 2787 
Q 1159 2491 1159 1978 
L 1159 0 
L 581 0 
L 581 3500 
L 1159 3500 
L 1159 2956 
Q 1366 3272 1645 3428 
Q 1925 3584 2291 3584 
Q 2894 3584 3203 3211 
Q 3513 2838 3513 2113 
z
" transform="scale(0.015625)"/>
       <path id="DejaVuSans-67" d="M 2906 1791 
Q 2906 2416 2648 2759 
Q 2391 3103 1925 3103 
Q 1463 3103 1205 2759 
Q 947 2416 947 1791 
Q 947 1169 1205 825 
Q 1463 481 1925 481 
Q 2391 481 2648 825 
Q 2906 1169 2906 1791 
z
M 3481 434 
Q 3481 -459 3084 -895 
Q 2688 -1331 1869 -1331 
Q 1566 -1331 1297 -1286 
Q 1028 -1241 775 -1147 
L 775 -588 
Q 1028 -725 1275 -790 
Q 1522 -856 1778 -856 
Q 2344 -856 2625 -561 
Q 2906 -266 2906 331 
L 2906 616 
Q 2728 306 2450 153 
Q 2172 0 1784 0 
Q 1141 0 747 490 
Q 353 981 353 1791 
Q 353 2603 747 3093 
Q 1141 3584 1784 3584 
Q 2172 3584 2450 3431 
Q 2728 3278 2906 2969 
L 2906 3500 
L 3481 3500 
L 3481 434 
z
" transform="scale(0.015625)"/>
       <path id="DejaVuSans-64" d="M 2906 2969 
L 2906 4863 
L 3481 4863 
L 3481 0 
L 2906 0 
L 2906 525 
Q 2725 213 2448 61 
Q 2172 -91 1784 -91 
Q 1150 -91 751 415 
Q 353 922 353 1747 
Q 353 2572 751 3078 
Q 1150 3584 1784 3584 
Q 2172 3584 2448 3432 
Q 2725 3281 2906 2969 
z
M 947 1747 
Q 947 1113 1208 752 
Q 1469 391 1925 391 
Q 2381 391 2643 752 
Q 2906 1113 2906 1747 
Q 2906 2381 2643 2742 
Q 2381 3103 1925 3103 
Q 1469 3103 1208 2742 
Q 947 2381 947 1747 
z
" transform="scale(0.015625)"/>
       <path id="DejaVuSans-73" d="M 2834 3397 
L 2834 2853 
Q 2591 2978 2328 3040 
Q 2066 3103 1784 3103 
Q 1356 3103 1142 2972 
Q 928 2841 928 2578 
Q 928 2378 1081 2264 
Q 1234 2150 1697 2047 
L 1894 2003 
Q 2506 1872 2764 1633 
Q 3022 1394 3022 966 
Q 3022 478 2636 193 
Q 2250 -91 1575 -91 
Q 1294 -91 989 -36 
Q 684 19 347 128 
L 347 722 
Q 666 556 975 473 
Q 1284 391 1588 391 
Q 1994 391 2212 530 
Q 2431 669 2431 922 
Q 2431 1156 2273 1281 
Q 2116 1406 1581 1522 
L 1381 1569 
Q 847 1681 609 1914 
Q 372 2147 372 2553 
Q 372 3047 722 3315 
Q 1072 3584 1716 3584 
Q 2034 3584 2315 3537 
Q 2597 3491 2834 3397 
z
" transform="scale(0.015625)"/>
       <path id="DejaVuSans-65" d="M 3597 1894 
L 3597 1613 
L 953 1613 
Q 991 1019 1311 708 
Q 1631 397 2203 397 
Q 2534 397 2845 478 
Q 3156 559 3463 722 
L 3463 178 
Q 3153 47 2828 -22 
Q 2503 -91 2169 -91 
Q 1331 -91 842 396 
Q 353 884 353 1716 
Q 353 2575 817 3079 
Q 1281 3584 2069 3584 
Q 2775 3584 3186 3129 
Q 3597 2675 3597 1894 
z
M 3022 2063 
Q 3016 2534 2758 2815 
Q 2500 3097 2075 3097 
Q 1594 3097 1305 2825 
Q 1016 2553 972 2059 
L 3022 2063 
z
" transform="scale(0.015625)"/>
      </defs>
      <use xlink:href="#DejaVuSans-54"/>
      <use xlink:href="#DejaVuSans-4d" transform="translate(61.083984 0)"/>
      <use xlink:href="#DejaVuSans-44" transform="translate(147.363281 0)"/>
      <use xlink:href="#DejaVuSans-20" transform="translate(224.365234 0)"/>
      <use xlink:href="#DejaVuSans-74" transform="translate(256.152344 0)"/>
      <use xlink:href="#DejaVuSans-6f" transform="translate(295.361328 0)"/>
      <use xlink:href="#DejaVuSans-20" transform="translate(356.542969 0)"/>
      <use xlink:href="#DejaVuSans-74" transform="translate(388.330078 0)"/>
      <use xlink:href="#DejaVuSans-72" transform="translate(427.539062 0)"/>
      <use xlink:href="#DejaVuSans-61" transform="translate(468.652344 0)"/>
      <use xlink:href="#DejaVuSans-69" transform="translate(529.931641 0)"/>
      <use xlink:href="#DejaVuSans-6e" transform="translate(557.714844 0)"/>
      <use xlink:href="#DejaVuSans-69" transform="translate(621.09375 0)"/>
      <use xlink:href="#DejaVuSans-6e" transform="translate(648.876953 0)"/>
      <use xlink:href="#DejaVuSans-67" transform="translate(712.255859 0)"/>
      <use xlink:href="#DejaVuSans-20" transform="translate(775.732422 0)"/>
      <use xlink:href="#DejaVuSans-64" transform="translate(807.519531 0)"/>
      <use xlink:href="#DejaVuSans-61" transform="translate(870.996094 0)"/>
      <use xlink:href="#DejaVuSans-74" transform="translate(932.275391 0)"/>
      <use xlink:href="#DejaVuSans-61" transform="translate(971.484375 0)"/>
      <use xlink:href="#DejaVuSans-73" transform="translate(1032.763672 0)"/>
      <use xlink:href="#DejaVuSans-65" transform="translate(1084.863281 0)"/>
      <use xlink:href="#DejaVuSans-74" transform="translate(1146.386719 0)"/>
     </g>
    </g>
   </g>
   <g id="matplotlib.axis_2">
    <g id="ytick_1">
     <g id="line2d_9">
      <defs>
       <path id="mfb9dc0d5a0" d="M 0 0 
L -3.5 0 
" style="stroke: #000000; stroke-width: 0.8"/>
      </defs>
      <g>
       <use xlink:href="#mfb9dc0d5a0" x="50.14375" y="245.396191" style="stroke: #000000; stroke-width: 0.8"/>
      </g>
     </g>
     <g id="text_10">
      <!-- 0.60 -->
      <g transform="translate(20.878125 249.19541) scale(0.1 -0.1)">
       <defs>
        <path id="DejaVuSans-2e" d="M 684 794 
L 1344 794 
L 1344 0 
L 684 0 
L 684 794 
z
" transform="scale(0.015625)"/>
       </defs>
       <use xlink:href="#DejaVuSans-30"/>
       <use xlink:href="#DejaVuSans-2e" transform="translate(63.623047 0)"/>
       <use xlink:href="#DejaVuSans-36" transform="translate(95.410156 0)"/>
       <use xlink:href="#DejaVuSans-30" transform="translate(159.033203 0)"/>
      </g>
     </g>
    </g>
    <g id="ytick_2">
     <g id="line2d_10">
      <g>
       <use xlink:href="#mfb9dc0d5a0" x="50.14375" y="199.630016" style="stroke: #000000; stroke-width: 0.8"/>
      </g>
     </g>
     <g id="text_11">
      <!-- 0.65 -->
      <g transform="translate(20.878125 203.429235) scale(0.1 -0.1)">
       <use xlink:href="#DejaVuSans-30"/>
       <use xlink:href="#DejaVuSans-2e" transform="translate(63.623047 0)"/>
       <use xlink:href="#DejaVuSans-36" transform="translate(95.410156 0)"/>
       <use xlink:href="#DejaVuSans-35" transform="translate(159.033203 0)"/>
      </g>
     </g>
    </g>
    <g id="ytick_3">
     <g id="line2d_11">
      <g>
       <use xlink:href="#mfb9dc0d5a0" x="50.14375" y="153.863841" style="stroke: #000000; stroke-width: 0.8"/>
      </g>
     </g>
     <g id="text_12">
      <!-- 0.70 -->
      <g transform="translate(20.878125 157.66306) scale(0.1 -0.1)">
       <defs>
        <path id="DejaVuSans-37" d="M 525 4666 
L 3525 4666 
L 3525 4397 
L 1831 0 
L 1172 0 
L 2766 4134 
L 525 4134 
L 525 4666 
z
" transform="scale(0.015625)"/>
       </defs>
       <use xlink:href="#DejaVuSans-30"/>
       <use xlink:href="#DejaVuSans-2e" transform="translate(63.623047 0)"/>
       <use xlink:href="#DejaVuSans-37" transform="translate(95.410156 0)"/>
       <use xlink:href="#DejaVuSans-30" transform="translate(159.033203 0)"/>
      </g>
     </g>
    </g>
    <g id="ytick_4">
     <g id="line2d_12">
      <g>
       <use xlink:href="#mfb9dc0d5a0" x="50.14375" y="108.097666" style="stroke: #000000; stroke-width: 0.8"/>
      </g>
     </g>
     <g id="text_13">
      <!-- 0.75 -->
      <g transform="translate(20.878125 111.896885) scale(0.1 -0.1)">
       <use xlink:href="#DejaVuSans-30"/>
       <use xlink:href="#DejaVuSans-2e" transform="translate(63.623047 0)"/>
       <use xlink:href="#DejaVuSans-37" transform="translate(95.410156 0)"/>
       <use xlink:href="#DejaVuSans-35" transform="translate(159.033203 0)"/>
      </g>
     </g>
    </g>
    <g id="ytick_5">
     <g id="line2d_13">
      <g>
       <use xlink:href="#mfb9dc0d5a0" x="50.14375" y="62.331492" style="stroke: #000000; stroke-width: 0.8"/>
      </g>
     </g>
     <g id="text_14">
      <!-- 0.80 -->
      <g transform="translate(20.878125 66.13071) scale(0.1 -0.1)">
       <defs>
        <path id="DejaVuSans-38" d="M 2034 2216 
Q 1584 2216 1326 1975 
Q 1069 1734 1069 1313 
Q 1069 891 1326 650 
Q 1584 409 2034 409 
Q 2484 409 2743 651 
Q 3003 894 3003 1313 
Q 3003 1734 2745 1975 
Q 2488 2216 2034 2216 
z
M 1403 2484 
Q 997 2584 770 2862 
Q 544 3141 544 3541 
Q 544 4100 942 4425 
Q 1341 4750 2034 4750 
Q 2731 4750 3128 4425 
Q 3525 4100 3525 3541 
Q 3525 3141 3298 2862 
Q 3072 2584 2669 2484 
Q 3125 2378 3379 2068 
Q 3634 1759 3634 1313 
Q 3634 634 3220 271 
Q 2806 -91 2034 -91 
Q 1263 -91 848 271 
Q 434 634 434 1313 
Q 434 1759 690 2068 
Q 947 2378 1403 2484 
z
M 1172 3481 
Q 1172 3119 1398 2916 
Q 1625 2713 2034 2713 
Q 2441 2713 2670 2916 
Q 2900 3119 2900 3481 
Q 2900 3844 2670 4047 
Q 2441 4250 2034 4250 
Q 1625 4250 1398 4047 
Q 1172 3844 1172 3481 
z
" transform="scale(0.015625)"/>
       </defs>
       <use xlink:href="#DejaVuSans-30"/>
       <use xlink:href="#DejaVuSans-2e" transform="translate(63.623047 0)"/>
       <use xlink:href="#DejaVuSans-38" transform="translate(95.410156 0)"/>
       <use xlink:href="#DejaVuSans-30" transform="translate(159.033203 0)"/>
      </g>
     </g>
    </g>
    <g id="text_15">
     <!-- Accuracy -->
     <g transform="translate(14.798438 178.20225) rotate(-90) scale(0.1 -0.1)">
      <defs>
       <path id="DejaVuSans-41" d="M 2188 4044 
L 1331 1722 
L 3047 1722 
L 2188 4044 
z
M 1831 4666 
L 2547 4666 
L 4325 0 
L 3669 0 
L 3244 1197 
L 1141 1197 
L 716 0 
L 50 0 
L 1831 4666 
z
" transform="scale(0.015625)"/>
       <path id="DejaVuSans-63" d="M 3122 3366 
L 3122 2828 
Q 2878 2963 2633 3030 
Q 2388 3097 2138 3097 
Q 1578 3097 1268 2742 
Q 959 2388 959 1747 
Q 959 1106 1268 751 
Q 1578 397 2138 397 
Q 2388 397 2633 464 
Q 2878 531 3122 666 
L 3122 134 
Q 2881 22 2623 -34 
Q 2366 -91 2075 -91 
Q 1284 -91 818 406 
Q 353 903 353 1747 
Q 353 2603 823 3093 
Q 1294 3584 2113 3584 
Q 2378 3584 2631 3529 
Q 2884 3475 3122 3366 
z
" transform="scale(0.015625)"/>
       <path id="DejaVuSans-75" d="M 544 1381 
L 544 3500 
L 1119 3500 
L 1119 1403 
Q 1119 906 1312 657 
Q 1506 409 1894 409 
Q 2359 409 2629 706 
Q 2900 1003 2900 1516 
L 2900 3500 
L 3475 3500 
L 3475 0 
L 2900 0 
L 2900 538 
Q 2691 219 2414 64 
Q 2138 -91 1772 -91 
Q 1169 -91 856 284 
Q 544 659 544 1381 
z
M 1991 3584 
L 1991 3584 
z
" transform="scale(0.015625)"/>
       <path id="DejaVuSans-79" d="M 2059 -325 
Q 1816 -950 1584 -1140 
Q 1353 -1331 966 -1331 
L 506 -1331 
L 506 -850 
L 844 -850 
Q 1081 -850 1212 -737 
Q 1344 -625 1503 -206 
L 1606 56 
L 191 3500 
L 800 3500 
L 1894 763 
L 2988 3500 
L 3597 3500 
L 2059 -325 
z
" transform="scale(0.015625)"/>
      </defs>
      <use xlink:href="#DejaVuSans-41"/>
      <use xlink:href="#DejaVuSans-63" transform="translate(66.658203 0)"/>
      <use xlink:href="#DejaVuSans-63" transform="translate(121.638672 0)"/>
      <use xlink:href="#DejaVuSans-75" transform="translate(176.619141 0)"/>
      <use xlink:href="#DejaVuSans-72" transform="translate(239.998047 0)"/>
      <use xlink:href="#DejaVuSans-61" transform="translate(281.111328 0)"/>
      <use xlink:href="#DejaVuSans-63" transform="translate(342.390625 0)"/>
      <use xlink:href="#DejaVuSans-79" transform="translate(397.371094 0)"/>
     </g>
    </g>
   </g>
   <g id="line2d_14">
    <path d="M 66.376477 220.590924 
L 121.49825 218.48568 
L 136.432226 194.229607 
L 141.239892 200.728404 
L 145.168042 191.849766 
L 148.489245 206.40341 
L 151.366202 193.863478 
L 153.903858 195.87719 
L 156.173869 195.419528 
L 158.227343 189.012263 
L 160.102018 186.449358 
L 161.826552 184.527178 
L 164.909685 182.513467 
L 166.300178 179.401367 
L 168.837834 175.557008 
L 171.107845 172.536441 
L 173.161319 173.909426 
L 176.760529 177.113058 
L 178.357198 179.035237 
L 181.234155 176.106202 
L 182.540323 173.268699 
L 184.362126 169.973535 
L 196.831112 165.030788 
L 203.513453 162.467882 
L 204.903947 160.271106 
L 222.868625 156.792876 
L 243.545088 153.863841 
" clip-path="url(#p8b17497d6b)" style="fill: none; stroke: #1f77b4; stroke-width: 1.5; stroke-linecap: square"/>
   </g>
   <g id="line2d_15">
    <path d="M 66.376477 82.468609 
L 188.095296 69.013353 
L 189.053016 136.106565 
L 194.777637 111.75896 
L 196.168131 108.097666 
L 196.831112 99.035964 
L 197.474299 132.536804 
L 200.430321 116.42711 
L 201.507804 120.729131 
L 202.281965 105.626293 
L 202.533959 120.271469 
L 203.029272 122.376713 
L 203.986993 138.120277 
L 204.219916 166.495305 
L 205.348193 164.023932 
L 206.628481 162.37635 
L 207.038878 158.257394 
L 207.441603 178.028382 
L 208.22515 172.811038 
L 210.06774 173.909426 
L 210.418076 164.756191 
L 211.436147 170.980391 
L 212.722809 181.964273 
L 213.032817 181.140481 
L 213.338427 186.449358 
L 213.639763 188.829199 
L 213.788865 183.42879 
L 213.936943 177.662252 
L 214.51928 177.57072 
L 214.945931 176.746929 
L 215.364297 170.797326 
L 216.702937 167.593694 
L 216.960966 161.277962 
L 217.215942 160.911832 
L 217.467935 174.367088 
L 217.717015 172.719505 
L 218.920969 175.373943 
L 220.282169 176.01467 
L 220.71744 184.801775 
L 221.562457 195.968722 
L 222.375579 193.588881 
L 223.35064 188.463069 
L 224.100113 186.723955 
L 224.555631 186.998552 
L 225.265001 197.982434 
L 225.352052 192.76509 
L 225.867101 191.575169 
L 225.951758 199.355419 
L 227.421316 195.51106 
L 227.578581 192.39896 
L 228.722841 184.252581 
L 230.159719 180.68282 
L 231.30997 178.577576 
L 233.381406 185.167905 
L 235.597486 180.68282 
L 237.948342 176.289267 
L 238.33223 172.444908 
L 239.034089 169.149744 
L 239.308554 165.305385 
L 240.415949 171.529585 
L 240.885734 173.726361 
L 241.876491 170.705794 
L 243.054116 167.410629 
L 244.098031 163.749335 
L 244.206937 171.071923 
L 244.743359 168.417485 
L 244.884178 164.847723 
L 246.538417 171.438052 
L 246.70029 175.190879 
L 246.988632 172.627973 
L 247.335887 178.119914 
L 247.584967 174.916282 
L 248.434746 173.634829 
L 249.48027 171.804182 
L 251.248373 177.845317 
L 251.687822 175.557008 
L 251.840806 172.627973 
L 251.916893 169.424341 
L 251.967468 166.67837 
L 252.09339 165.030788 
L 252.168592 162.284817 
L 253.313715 158.348926 
L 253.573156 155.694488 
L 257.229997 152.307791 
L 257.446533 158.165862 
L 259.800602 155.328359 
L 262.765177 152.582388 
L 263.129329 157.342071 
L 267.227323 155.877553 
L 268.188289 153.223115 
L 270.785347 150.660209 
L 273.036367 148.3719 
L 276.422612 145.534397 
L 279.048483 143.337621 
L 280.41291 140.866248 
L 283.598779 138.211809 
L 290.491104 135.923501 
L 318.279052 133.635192 
" clip-path="url(#p8b17497d6b)" style="fill: none; stroke: #ff7f0e; stroke-width: 1.5; stroke-linecap: square"/>
   </g>
   <g id="line2d_16">
    <path d="M 66.376477 93.910152 
L 256.09257 71.576259 
L 260.711702 139.127133 
L 261.358355 122.65131 
L 263.099217 111.118234 
L 264.37168 94.184749 
L 265.070353 141.781571 
L 266.812859 129.882366 
L 267.20243 119.53921 
L 267.646168 106.450084 
L 267.767823 103.795646 
L 267.864656 127.502525 
L 269.869768 123.200504 
L 272.409869 148.3719 
L 272.643318 136.015033 
L 273.055358 129.241639 
L 276.800819 120.820663 
L 278.228174 145.62593 
L 278.715341 138.852536 
L 279.206009 129.058574 
L 279.433101 120.729131 
L 279.615867 122.010584 
L 279.963042 114.413399 
L 280.533988 114.87106 
L 280.959061 107.914602 
L 281.408138 99.859755 
L 284.082055 94.184749 
L 284.155889 91.255714 
L 284.869666 110.56904 
L 284.946319 117.250901 
L 285.087957 110.752105 
L 285.136769 114.687996 
L 285.655955 118.623887 
L 287.353623 123.658166 
L 287.470611 118.34929 
L 288.017789 128.326316 
L 288.211232 122.65131 
L 289.390206 116.610175 
L 290.077294 113.498075 
L 290.120325 109.01299 
L 290.65946 110.294443 
L 291.169061 122.193648 
L 292.129986 135.191242 
L 293.333174 146.907383 
L 294.054205 145.808994 
L 294.310529 158.257394 
L 294.807289 156.518279 
L 294.824574 151.85013 
L 296.734639 147.18198 
L 297.753732 157.067473 
L 298.192623 167.0445 
L 298.579251 169.882002 
L 299.748722 167.502161 
L 300.768993 163.200141 
L 301.040005 158.989653 
L 302.103525 155.053762 
L 304.021907 151.392468 
L 305.448307 148.097303 
L 306.47245 155.694488 
L 306.805933 165.305385 
L 309.408441 162.284817 
L 309.431258 158.623523 
L 309.490819 155.053762 
L 310.891041 151.209403 
L 311.860661 147.365044 
L 316.283785 143.063024 
L 316.480709 149.653353 
L 316.528713 146.358189 
L 316.754661 142.879959 
L 317.140777 139.310198 
L 317.219132 136.381162 
L 319.295924 138.303342 
L 319.42979 135.923501 
L 320.266958 133.085998 
L 320.588117 140.317053 
L 320.714214 137.571083 
L 320.975508 134.458983 
L 320.98064 141.506974 
L 321.950896 148.3719 
L 322.35522 146.358189 
L 322.40331 143.612218 
L 325.093924 140.774715 
L 325.318302 147.365044 
L 325.471322 153.772309 
L 325.781532 151.026338 
L 327.99768 147.822706 
L 328.864062 146.632786 
L 329.907525 152.216259 
L 330.809328 149.653353 
L 331.170487 147.18198 
L 331.648016 153.223115 
L 332.982021 150.751741 
L 334.543887 148.005771 
L 335.676226 154.138438 
L 337.496656 152.307791 
L 341.120279 149.653353 
L 342.763531 147.090447 
L 344.901773 144.527542 
L 345.068167 142.239233 
L 345.166254 140.133989 
L 348.553823 137.113421 
L 354.039797 134.73358 
L 354.487574 132.628336 
L 360.219973 130.156963 
L 391.031023 127.960186 
" clip-path="url(#p8b17497d6b)" style="fill: none; stroke: #2ca02c; stroke-width: 1.5; stroke-linecap: square"/>
   </g>
   <g id="patch_3">
    <path d="M 50.14375 288.430125 
L 50.14375 22.318125 
" style="fill: none; stroke: #000000; stroke-width: 0.8; stroke-linejoin: miter; stroke-linecap: square"/>
   </g>
   <g id="patch_4">
    <path d="M 407.26375 288.430125 
L 407.26375 22.318125 
" style="fill: none; stroke: #000000; stroke-width: 0.8; stroke-linejoin: miter; stroke-linecap: square"/>
   </g>
   <g id="patch_5">
    <path d="M 50.14375 288.430125 
L 407.26375 288.430125 
" style="fill: none; stroke: #000000; stroke-width: 0.8; stroke-linejoin: miter; stroke-linecap: square"/>
   </g>
   <g id="patch_6">
    <path d="M 50.14375 22.318125 
L 407.26375 22.318125 
" style="fill: none; stroke: #000000; stroke-width: 0.8; stroke-linejoin: miter; stroke-linecap: square"/>
   </g>
   <g id="text_16">
    <!-- PROTEINS -->
    <g transform="translate(198.67 16.318125) scale(0.12 -0.12)">
     <defs>
      <path id="DejaVuSans-50" d="M 1259 4147 
L 1259 2394 
L 2053 2394 
Q 2494 2394 2734 2622 
Q 2975 2850 2975 3272 
Q 2975 3691 2734 3919 
Q 2494 4147 2053 4147 
L 1259 4147 
z
M 628 4666 
L 2053 4666 
Q 2838 4666 3239 4311 
Q 3641 3956 3641 3272 
Q 3641 2581 3239 2228 
Q 2838 1875 2053 1875 
L 1259 1875 
L 1259 0 
L 628 0 
L 628 4666 
z
" transform="scale(0.015625)"/>
      <path id="DejaVuSans-52" d="M 2841 2188 
Q 3044 2119 3236 1894 
Q 3428 1669 3622 1275 
L 4263 0 
L 3584 0 
L 2988 1197 
Q 2756 1666 2539 1819 
Q 2322 1972 1947 1972 
L 1259 1972 
L 1259 0 
L 628 0 
L 628 4666 
L 2053 4666 
Q 2853 4666 3247 4331 
Q 3641 3997 3641 3322 
Q 3641 2881 3436 2590 
Q 3231 2300 2841 2188 
z
M 1259 4147 
L 1259 2491 
L 2053 2491 
Q 2509 2491 2742 2702 
Q 2975 2913 2975 3322 
Q 2975 3731 2742 3939 
Q 2509 4147 2053 4147 
L 1259 4147 
z
" transform="scale(0.015625)"/>
      <path id="DejaVuSans-4f" d="M 2522 4238 
Q 1834 4238 1429 3725 
Q 1025 3213 1025 2328 
Q 1025 1447 1429 934 
Q 1834 422 2522 422 
Q 3209 422 3611 934 
Q 4013 1447 4013 2328 
Q 4013 3213 3611 3725 
Q 3209 4238 2522 4238 
z
M 2522 4750 
Q 3503 4750 4090 4092 
Q 4678 3434 4678 2328 
Q 4678 1225 4090 567 
Q 3503 -91 2522 -91 
Q 1538 -91 948 565 
Q 359 1222 359 2328 
Q 359 3434 948 4092 
Q 1538 4750 2522 4750 
z
" transform="scale(0.015625)"/>
      <path id="DejaVuSans-45" d="M 628 4666 
L 3578 4666 
L 3578 4134 
L 1259 4134 
L 1259 2753 
L 3481 2753 
L 3481 2222 
L 1259 2222 
L 1259 531 
L 3634 531 
L 3634 0 
L 628 0 
L 628 4666 
z
" transform="scale(0.015625)"/>
      <path id="DejaVuSans-49" d="M 628 4666 
L 1259 4666 
L 1259 0 
L 628 0 
L 628 4666 
z
" transform="scale(0.015625)"/>
      <path id="DejaVuSans-4e" d="M 628 4666 
L 1478 4666 
L 3547 763 
L 3547 4666 
L 4159 4666 
L 4159 0 
L 3309 0 
L 1241 3903 
L 1241 0 
L 628 0 
L 628 4666 
z
" transform="scale(0.015625)"/>
      <path id="DejaVuSans-53" d="M 3425 4513 
L 3425 3897 
Q 3066 4069 2747 4153 
Q 2428 4238 2131 4238 
Q 1616 4238 1336 4038 
Q 1056 3838 1056 3469 
Q 1056 3159 1242 3001 
Q 1428 2844 1947 2747 
L 2328 2669 
Q 3034 2534 3370 2195 
Q 3706 1856 3706 1288 
Q 3706 609 3251 259 
Q 2797 -91 1919 -91 
Q 1588 -91 1214 -16 
Q 841 59 441 206 
L 441 856 
Q 825 641 1194 531 
Q 1563 422 1919 422 
Q 2459 422 2753 634 
Q 3047 847 3047 1241 
Q 3047 1584 2836 1778 
Q 2625 1972 2144 2069 
L 1759 2144 
Q 1053 2284 737 2584 
Q 422 2884 422 3419 
Q 422 4038 858 4394 
Q 1294 4750 2059 4750 
Q 2388 4750 2728 4690 
Q 3069 4631 3425 4513 
z
" transform="scale(0.015625)"/>
     </defs>
     <use xlink:href="#DejaVuSans-50"/>
     <use xlink:href="#DejaVuSans-52" transform="translate(60.302734 0)"/>
     <use xlink:href="#DejaVuSans-4f" transform="translate(129.785156 0)"/>
     <use xlink:href="#DejaVuSans-54" transform="translate(208.496094 0)"/>
     <use xlink:href="#DejaVuSans-45" transform="translate(269.580078 0)"/>
     <use xlink:href="#DejaVuSans-49" transform="translate(332.763672 0)"/>
     <use xlink:href="#DejaVuSans-4e" transform="translate(362.255859 0)"/>
     <use xlink:href="#DejaVuSans-53" transform="translate(437.060547 0)"/>
    </g>
   </g>
   <g id="legend_1">
    <g id="patch_7">
     <path d="M 357.585625 89.030625 
L 400.26375 89.030625 
Q 402.26375 89.030625 402.26375 87.030625 
L 402.26375 29.318125 
Q 402.26375 27.318125 400.26375 27.318125 
L 357.585625 27.318125 
Q 355.585625 27.318125 355.585625 29.318125 
L 355.585625 87.030625 
Q 355.585625 89.030625 357.585625 89.030625 
z
" style="fill: #ffffff; opacity: 0.8; stroke: #cccccc; stroke-linejoin: miter"/>
    </g>
    <g id="text_17">
     <!-- #layers -->
     <g transform="translate(359.585625 38.916562) scale(0.1 -0.1)">
      <defs>
       <path id="DejaVuSans-23" d="M 3272 2816 
L 2363 2816 
L 2100 1772 
L 3016 1772 
L 3272 2816 
z
M 2803 4594 
L 2478 3297 
L 3391 3297 
L 3719 4594 
L 4219 4594 
L 3897 3297 
L 4872 3297 
L 4872 2816 
L 3775 2816 
L 3519 1772 
L 4513 1772 
L 4513 1294 
L 3397 1294 
L 3072 0 
L 2572 0 
L 2894 1294 
L 1978 1294 
L 1656 0 
L 1153 0 
L 1478 1294 
L 494 1294 
L 494 1772 
L 1594 1772 
L 1856 2816 
L 850 2816 
L 850 3297 
L 1978 3297 
L 2297 4594 
L 2803 4594 
z
" transform="scale(0.015625)"/>
       <path id="DejaVuSans-6c" d="M 603 4863 
L 1178 4863 
L 1178 0 
L 603 0 
L 603 4863 
z
" transform="scale(0.015625)"/>
      </defs>
      <use xlink:href="#DejaVuSans-23"/>
      <use xlink:href="#DejaVuSans-6c" transform="translate(83.789062 0)"/>
      <use xlink:href="#DejaVuSans-61" transform="translate(111.572266 0)"/>
      <use xlink:href="#DejaVuSans-79" transform="translate(172.851562 0)"/>
      <use xlink:href="#DejaVuSans-65" transform="translate(232.03125 0)"/>
      <use xlink:href="#DejaVuSans-72" transform="translate(293.554688 0)"/>
      <use xlink:href="#DejaVuSans-73" transform="translate(334.667969 0)"/>
     </g>
    </g>
    <g id="line2d_17">
     <path d="M 361.743437 50.094688 
L 371.743437 50.094688 
L 381.743437 50.094688 
" style="fill: none; stroke: #1f77b4; stroke-width: 1.5; stroke-linecap: square"/>
    </g>
    <g id="text_18">
     <!-- 1 -->
     <g transform="translate(389.743437 53.594688) scale(0.1 -0.1)">
      <use xlink:href="#DejaVuSans-31"/>
     </g>
    </g>
    <g id="line2d_18">
     <path d="M 361.743437 64.772813 
L 371.743437 64.772813 
L 381.743437 64.772813 
" style="fill: none; stroke: #ff7f0e; stroke-width: 1.5; stroke-linecap: square"/>
    </g>
    <g id="text_19">
     <!-- 3 -->
     <g transform="translate(389.743437 68.272813) scale(0.1 -0.1)">
      <use xlink:href="#DejaVuSans-33"/>
     </g>
    </g>
    <g id="line2d_19">
     <path d="M 361.743437 79.450938 
L 371.743437 79.450938 
L 381.743437 79.450938 
" style="fill: none; stroke: #2ca02c; stroke-width: 1.5; stroke-linecap: square"/>
    </g>
    <g id="text_20">
     <!-- 5 -->
     <g transform="translate(389.743437 82.950938) scale(0.1 -0.1)">
      <use xlink:href="#DejaVuSans-35"/>
     </g>
    </g>
   </g>
  </g>
 </g>
 <defs>
  <clipPath id="p8b17497d6b">
   <rect x="50.14375" y="22.318125" width="357.12" height="266.112"/>
  </clipPath>
 </defs>
</svg>
