<?xml version="1.0" encoding="utf-8" standalone="no"?>
<!DOCTYPE svg PUBLIC "-//W3C//DTD SVG 1.1//EN"
  "http://www.w3.org/Graphics/SVG/1.1/DTD/svg11.dtd">
<svg xmlns:xlink="http://www.w3.org/1999/xlink" width="408.10125pt" height="325.986375pt" viewBox="0 0 408.10125 325.986375" xmlns="http://www.w3.org/2000/svg" version="1.1">
 <metadata>
  <rdf:RDF xmlns:dc="http://purl.org/dc/elements/1.1/" xmlns:cc="http://creativecommons.org/ns#" xmlns:rdf="http://www.w3.org/1999/02/22-rdf-syntax-ns#">
   <cc:Work>
    <dc:type rdf:resource="http://purl.org/dc/dcmitype/StillImage"/>
    <dc:date>2025-02-25T15:21:32.652178</dc:date>
    <dc:format>image/svg+xml</dc:format>
    <dc:creator>
     <cc:Agent>
      <dc:title>Matplotlib v3.9.0, https://matplotlib.org/</dc:title>
     </cc:Agent>
    </dc:creator>
   </cc:Work>
  </rdf:RDF>
 </metadata>
 <defs>
  <style type="text/css">*{stroke-linejoin: round; stroke-linecap: butt}</style>
 </defs>
 <g id="figure_1">
  <g id="patch_1">
   <path d="M 0 325.986375 
L 408.10125 325.986375 
L 408.10125 0 
L 0 0 
z
" style="fill: #ffffff"/>
  </g>
  <g id="axes_1">
   <g id="patch_2">
    <path d="M 43.78125 288.430125 
L 400.90125 288.430125 
L 400.90125 22.318125 
L 43.78125 22.318125 
z
" style="fill: #ffffff"/>
   </g>
   <g id="PolyCollection_1">
    <path d="M 60.013977 43.534684 
L 60.013977 43.534684 
L 120.614583 187.830927 
L 135.074593 163.00274 
L 139.729483 136.65446 
L 143.532817 154.051081 
L 146.748497 145.38092 
L 149.534049 172.742596 
L 151.991083 205.227548 
L 154.188977 229.886836 
L 156.177215 205.846846 
L 157.992458 189.857718 
L 159.662198 181.018658 
L 161.208137 189.632519 
L 161.208137 181.975754 
L 162.647373 191.884509 
L 163.99369 187.32423 
L 165.25836 184.002545 
L 166.450724 182.989149 
L 167.578681 186.648633 
L 167.578681 182.82025 
L 169.666485 191.884509 
L 170.636923 196.501088 
L 171.564216 196.05069 
L 172.452037 193.010504 
L 173.303612 191.096313 
L 174.121839 194.868395 
L 174.909126 199.653874 
L 175.667778 196.782587 
L 176.399806 195.093594 
L 177.107014 193.629801 
L 177.791032 191.321512 
L 180.910405 189.238421 
L 182.038283 191.997108 
L 183.623436 191.828209 
L 185.565362 193.573501 
L 186.023856 192.166008 
L 188.176377 194.699496 
L 188.581451 193.460902 
L 189.751515 196.613687 
L 191.216048 196.10699 
L 192.584473 194.924695 
L 192.912994 193.292003 
L 193.554911 192.166008 
L 193.868611 192.334907 
L 197.567954 190.251816 
L 206.710325 188.675424 
L 207.696062 187.549429 
L 211.365287 186.536033 
L 211.765184 185.522638 
L 218.953351 183.383248 
L 225.689907 181.919454 
L 242.333907 180.906059 
L 242.333907 166.831123 
L 242.333907 166.831123 
L 225.689907 168.069717 
L 218.953351 169.083113 
L 211.765184 170.209108 
L 211.365287 171.335102 
L 207.696062 172.573697 
L 206.710325 173.812291 
L 197.567954 175.613883 
L 193.868611 176.796178 
L 193.554911 177.528074 
L 192.912994 178.879268 
L 192.584473 179.836364 
L 191.216048 181.243857 
L 189.751515 182.538751 
L 188.581451 178.597769 
L 188.176377 179.160767 
L 186.023856 175.839082 
L 185.565362 177.133976 
L 183.623436 175.839082 
L 182.038283 176.007981 
L 180.910405 173.249294 
L 177.791032 174.994586 
L 177.107014 178.316271 
L 176.399806 180.343061 
L 175.667778 181.806855 
L 174.909126 183.439547 
L 174.121839 177.978472 
L 173.303612 175.219785 
L 172.452037 177.021377 
L 171.564216 180.511961 
L 170.636923 182.088354 
L 169.666485 174.656787 
L 167.578681 170.434307 
L 167.578681 173.587092 
L 166.450724 170.941004 
L 165.25836 167.56302 
L 163.99369 169.871309 
L 162.647373 177.133976 
L 161.208137 160.91965 
L 161.208137 168.238617 
L 159.662198 160.97595 
L 157.992458 168.126017 
L 156.177215 178.48517 
L 154.188977 202.074763 
L 151.991083 171.447702 
L 149.534049 146.619515 
L 146.748497 109.349084 
L 143.532817 107.097095 
L 139.729483 80.242117 
L 135.074593 90.263471 
L 120.614583 113.177467 
L 60.013977 43.534684 
z
" clip-path="url(#p31675777ec)" style="fill: #1f77b4; fill-opacity: 0.1"/>
   </g>
   <g id="PolyCollection_2">
    <path d="M 60.013977 43.534684 
L 60.013977 43.534684 
L 201.801466 212.433916 
L 202.013251 183.383248 
L 207.855915 162.101944 
L 210.401247 162.327143 
L 212.795559 160.018854 
L 212.920857 210.688623 
L 213.292273 196.219589 
L 215.056212 227.015549 
L 215.722042 236.642805 
L 215.939342 223.356066 
L 216.993149 211.758319 
L 217.095659 232.589224 
L 217.299179 242.27278 
L 217.500733 262.822186 
L 218.093974 250.94294 
L 218.953351 242.892077 
L 219.868445 231.969927 
L 221.169966 248.522051 
L 221.66865 244.581069 
L 222.235777 237.093203 
L 223.552115 230.224635 
L 224.070884 220.878877 
L 224.57706 234.109317 
L 225.001364 236.642805 
L 226.874751 227.184448 
L 228.29693 221.104076 
L 228.475486 215.586701 
L 228.534665 213.55991 
L 228.944288 209.787828 
L 229.346023 214.291807 
L 229.402787 209.787828 
L 229.459396 204.720851 
L 229.684311 209.731528 
L 230.23622 215.080004 
L 230.290616 210.576024 
L 230.45296 217.275694 
L 230.50679 214.179208 
L 231.037632 222.39897 
L 231.606363 220.597378 
L 232.699327 212.208717 
L 232.844026 209.393729 
L 232.939937 216.374898 
L 234.148252 212.208717 
L 234.193359 214.179208 
L 234.550724 210.294525 
L 235.797163 207.592138 
L 235.963384 206.916541 
L 236.775194 213.165812 
L 237.518209 209.562629 
L 238.748963 207.704737 
L 238.821271 205.790546 
L 239.000953 203.988954 
L 240.750381 201.905863 
L 240.914252 199.484974 
L 241.334392 198.809378 
L 243.3459 202.862959 
L 243.519501 200.779869 
L 243.748743 198.865677 
L 244.777401 204.77715 
L 244.966433 203.031858 
L 245.233542 206.916541 
L 246.014939 206.916541 
L 246.520067 205.340148 
L 246.964458 203.369657 
L 247.942676 205.734246 
L 248.562692 210.576024 
L 249.707245 209.28113 
L 251.234834 213.72881 
L 251.432944 217.557192 
L 252.339661 215.305202 
L 252.377385 219.978081 
L 253.406851 226.677751 
L 253.567664 224.425761 
L 253.83296 222.624169 
L 254.007968 221.216676 
L 255.061428 219.752882 
L 255.568856 218.06389 
L 256.143045 221.610774 
L 256.36214 220.034381 
L 256.60975 223.750164 
L 256.717161 221.779673 
L 257.171334 219.809182 
L 257.732778 217.613492 
L 258.022317 216.149699 
L 259.14188 214.179208 
L 259.304751 212.659115 
L 260.384908 210.913822 
L 261.079283 211.814618 
L 261.153653 210.970122 
L 261.301603 209.16853 
L 263.580441 210.744923 
L 265.28237 209.16853 
L 265.353309 207.761037 
L 268.169215 210.407125 
L 272.746248 209.28113 
L 272.845383 207.929936 
L 274.449286 206.353543 
L 275.276519 204.551951 
L 278.362496 202.806659 
L 279.019038 201.399166 
L 281.822344 200.104272 
L 286.887616 198.415279 
L 287.786854 197.007786 
L 295.586012 195.600292 
L 314.524134 194.417997 
L 314.524134 172.348498 
L 314.524134 172.348498 
L 295.586012 173.755991 
L 287.786854 175.163485 
L 286.887616 176.120581 
L 281.822344 177.359175 
L 279.019038 178.766669 
L 278.362496 179.836364 
L 275.276519 181.243857 
L 274.449286 182.595051 
L 272.845383 183.721046 
L 272.746248 184.95964 
L 268.169215 186.423434 
L 265.353309 185.353739 
L 265.28237 186.761232 
L 263.580441 188.337625 
L 261.301603 189.914018 
L 261.153653 191.040013 
L 261.079283 192.447506 
L 260.384908 193.123103 
L 259.304751 194.755796 
L 259.14188 196.726287 
L 258.022317 198.24638 
L 257.732778 200.047972 
L 257.171334 201.905863 
L 256.717161 203.763755 
L 256.60975 205.396448 
L 256.36214 199.879073 
L 256.143045 201.793264 
L 255.568856 200.723569 
L 255.061428 202.63776 
L 254.007968 203.876354 
L 253.83296 201.117667 
L 253.567664 203.031858 
L 253.406851 203.707455 
L 252.377385 199.822773 
L 252.339661 195.149894 
L 251.432944 196.838886 
L 251.234834 190.983713 
L 249.707245 187.549429 
L 248.562692 188.281325 
L 247.942676 183.439547 
L 246.964458 181.750555 
L 246.520067 183.608447 
L 246.014939 185.973036 
L 245.233542 182.257253 
L 244.966433 176.683578 
L 244.777401 178.879268 
L 243.748743 172.404798 
L 243.519501 174.431588 
L 243.3459 176.402079 
L 241.334392 170.434307 
L 240.914252 172.123299 
L 240.750381 173.98119 
L 239.000953 173.812291 
L 238.821271 176.402079 
L 238.748963 179.104467 
L 237.518209 180.62456 
L 236.775194 182.651351 
L 235.963384 175.276085 
L 235.797163 171.672901 
L 234.550724 175.501283 
L 234.193359 177.696973 
L 234.148252 180.68086 
L 232.939937 182.257253 
L 232.844026 176.28948 
L 232.699327 179.217067 
L 231.606363 184.790741 
L 231.037632 188.619124 
L 230.50679 179.723764 
L 230.45296 183.158049 
L 230.290616 179.385966 
L 230.23622 182.088354 
L 229.684311 186.761232 
L 229.459396 184.678142 
L 229.402787 187.493129 
L 229.346023 191.096313 
L 228.944288 181.975754 
L 228.534665 186.761232 
L 228.475486 183.158049 
L 228.29693 187.099031 
L 226.874751 190.364416 
L 225.001364 195.656592 
L 224.57706 201.117667 
L 224.070884 188.450225 
L 223.552115 188.788023 
L 222.235777 191.152612 
L 221.66865 197.176685 
L 221.169966 197.739682 
L 219.868445 188.506524 
L 218.953351 189.970318 
L 218.093974 192.729005 
L 217.500733 199.541274 
L 217.299179 181.356457 
L 217.095659 161.764146 
L 216.993149 131.137085 
L 215.939342 136.65446 
L 215.722042 142.847432 
L 215.056212 139.187949 
L 213.292273 100.735223 
L 212.920857 105.295503 
L 212.795559 80.298416 
L 210.401247 86.322489 
L 207.855915 101.41082 
L 202.013251 111.995172 
L 201.801466 127.9843 
L 60.013977 43.534684 
z
" clip-path="url(#p31675777ec)" style="fill: #ff7f0e; fill-opacity: 0.1"/>
   </g>
   <g id="PolyCollection_3">
    <path d="M 60.013977 43.534684 
L 60.013977 43.534684 
L 254.198797 43.534684 
L 258.742946 43.534684 
L 268.397782 131.474884 
L 270.109196 200.44207 
L 270.95369 181.356457 
L 271.061697 169.308312 
L 271.276049 197.739682 
L 272.126716 210.013027 
L 273.912579 202.356261 
L 274.106324 191.65931 
L 274.344361 215.530401 
L 275.163043 236.868004 
L 275.451822 243.736573 
L 277.134047 233.771519 
L 279.640251 227.015549 
L 279.655547 235.179012 
L 280.273207 250.605142 
L 280.679903 242.385379 
L 282.218232 256.798114 
L 283.152587 264.792677 
L 284.832954 276.334125 
L 285.011134 268.846259 
L 286.336259 262.202889 
L 287.91417 254.264625 
L 288.271298 246.889359 
L 288.757927 240.302289 
L 289.29135 234.616015 
L 289.438551 239.851891 
L 289.581554 245.256666 
L 289.973715 254.883923 
L 290.462125 261.639892 
L 290.516703 254.940222 
L 291.081311 250.492543 
L 291.107819 245.087767 
L 291.207659 243.905472 
L 291.298277 240.583788 
L 292.96265 235.235312 
L 293.383882 232.307725 
L 294.551459 226.565151 
L 294.616245 225.608056 
L 294.880763 222.061172 
L 295.010555 220.653678 
L 296.062625 215.192603 
L 297.01101 211.589419 
L 297.607918 208.267734 
L 297.663885 216.262298 
L 299.358104 223.018267 
L 299.842008 230.280934 
L 299.890367 236.530206 
L 300.16675 233.37742 
L 300.299792 230.675033 
L 300.972751 227.015549 
L 301.177199 224.031663 
L 301.958035 221.498174 
L 301.999987 218.570588 
L 304.019014 216.318598 
L 304.880739 216.262298 
L 305.527684 213.55991 
L 306.220886 210.801223 
L 306.313396 216.487497 
L 307.09522 214.122908 
L 307.23835 211.983518 
L 308.75877 212.602815 
L 310.497878 218.795787 
L 310.748515 216.543797 
L 310.954155 222.45527 
L 311.180292 225.213957 
L 314.058162 229.661637 
L 315.13029 226.621451 
L 315.91562 224.59466 
L 315.987193 228.648242 
L 316.105642 226.396252 
L 316.41855 224.876159 
L 319.173158 222.567869 
L 319.199206 224.313162 
L 319.849737 225.270257 
L 321.051631 229.267539 
L 321.549389 227.972645 
L 321.968604 231.969927 
L 322.372987 230.280934 
L 322.544574 228.085244 
L 322.615546 226.452552 
L 322.623993 224.256862 
L 323.195665 227.297048 
L 323.32926 225.382857 
L 324.139946 223.806464 
L 326.319783 222.51157 
L 327.283376 220.653678 
L 327.802781 224.988758 
L 328.640388 223.412366 
L 328.785967 221.779673 
L 329.316886 220.653678 
L 329.981268 218.964686 
L 330.155886 217.669792 
L 331.949876 214.685905 
L 333.12569 216.881595 
L 334.114767 219.865482 
L 334.807681 220.14698 
L 339.800552 218.795787 
L 340.095917 217.331993 
L 340.600413 215.7556 
L 343.860506 214.629606 
L 344.153999 213.053213 
L 345.370395 211.589419 
L 345.490372 210.013027 
L 351.087071 208.155135 
L 354.093254 206.522442 
L 359.740858 205.340148 
L 384.668523 203.988954 
L 384.668523 186.986431 
L 384.668523 186.986431 
L 359.740858 188.337625 
L 354.093254 189.970318 
L 351.087071 191.152612 
L 345.490372 192.785305 
L 345.370395 193.9113 
L 344.153999 195.375093 
L 343.860506 196.613687 
L 340.600413 198.19008 
L 340.095917 199.428675 
L 339.800552 200.892468 
L 334.807681 202.806659 
L 334.114767 203.763755 
L 333.12569 201.793264 
L 331.949876 198.24638 
L 330.155886 199.428675 
L 329.981268 201.173967 
L 329.316886 202.975559 
L 328.785967 200.610969 
L 328.640388 202.243662 
L 327.802781 203.031858 
L 327.283376 199.597574 
L 326.319783 201.455465 
L 324.139946 202.975559 
L 323.32926 204.88975 
L 323.195665 206.578742 
L 322.623993 204.326752 
L 322.615546 205.734246 
L 322.544574 207.817337 
L 322.372987 209.450029 
L 321.968604 211.589419 
L 321.549389 208.380334 
L 321.051631 209.112231 
L 319.849737 204.326752 
L 319.199206 203.369657 
L 319.173158 204.664551 
L 316.41855 207.198039 
L 316.105642 208.943331 
L 315.987193 211.307921 
L 315.91562 205.790546 
L 315.13029 207.02914 
L 314.058162 208.943331 
L 311.180292 203.707455 
L 310.954155 198.24638 
L 310.748515 193.573501 
L 310.497878 196.16329 
L 308.75877 191.434111 
L 307.23835 190.589615 
L 307.09522 192.841605 
L 306.313396 192.954204 
L 306.220886 187.493129 
L 305.527684 189.46362 
L 304.880739 187.774628 
L 304.019014 189.294721 
L 301.999987 192.447506 
L 301.958035 194.699496 
L 301.177199 194.530597 
L 300.972751 196.951486 
L 300.299792 200.160571 
L 300.16675 201.962163 
L 299.890367 203.200758 
L 299.842008 195.825491 
L 299.358104 189.46362 
L 297.663885 186.761232 
L 297.607918 179.667465 
L 297.01101 177.922172 
L 296.062625 180.849759 
L 295.010555 183.946245 
L 294.880763 187.26793 
L 294.616245 190.477015 
L 294.551459 191.208912 
L 293.383882 194.249098 
L 292.96265 198.865677 
L 291.298277 204.214153 
L 291.207659 209.33743 
L 291.107819 210.970122 
L 291.081311 214.911104 
L 290.516703 213.503611 
L 290.462125 218.289089 
L 289.973715 214.235507 
L 289.581554 206.297243 
L 289.438551 204.157853 
L 289.29135 193.742401 
L 288.757927 198.527879 
L 288.271298 204.551951 
L 287.91417 210.688623 
L 286.336259 214.685905 
L 285.011134 219.077285 
L 284.832954 222.173771 
L 283.152587 209.055931 
L 282.218232 205.114949 
L 280.679903 186.761232 
L 280.273207 193.855 
L 279.655547 173.699692 
L 279.640251 166.887423 
L 277.134047 175.219785 
L 275.451822 177.753273 
L 275.163043 178.54147 
L 274.344361 157.541665 
L 274.106324 120.046036 
L 273.912579 126.239007 
L 272.126716 130.06739 
L 271.276049 84.464597 
L 271.061697 86.660287 
L 270.95369 92.74066 
L 270.109196 98.426934 
L 268.397782 34.414125 
L 258.742946 43.534684 
L 254.198797 43.534684 
L 60.013977 43.534684 
z
" clip-path="url(#p31675777ec)" style="fill: #2ca02c; fill-opacity: 0.1"/>
   </g>
   <g id="matplotlib.axis_1">
    <g id="xtick_1">
     <g id="line2d_1">
      <defs>
       <path id="mae45a26513" d="M 0 0 
L 0 3.5 
" style="stroke: #000000; stroke-width: 0.8"/>
      </defs>
      <g>
       <use xlink:href="#mae45a26513" x="60.013977" y="288.430125" style="stroke: #000000; stroke-width: 0.8"/>
      </g>
     </g>
     <g id="text_1">
      <!-- $\mathdefault{0}$ -->
      <g transform="translate(56.813977 303.028562) scale(0.1 -0.1)">
       <defs>
        <path id="DejaVuSans-30" d="M 2034 4250 
Q 1547 4250 1301 3770 
Q 1056 3291 1056 2328 
Q 1056 1369 1301 889 
Q 1547 409 2034 409 
Q 2525 409 2770 889 
Q 3016 1369 3016 2328 
Q 3016 3291 2770 3770 
Q 2525 4250 2034 4250 
z
M 2034 4750 
Q 2819 4750 3233 4129 
Q 3647 3509 3647 2328 
Q 3647 1150 3233 529 
Q 2819 -91 2034 -91 
Q 1250 -91 836 529 
Q 422 1150 422 2328 
Q 422 3509 836 4129 
Q 1250 4750 2034 4750 
z
" transform="scale(0.015625)"/>
       </defs>
       <use xlink:href="#DejaVuSans-30" transform="translate(0 0.78125)"/>
      </g>
     </g>
    </g>
    <g id="xtick_2">
     <g id="line2d_2">
      <g>
       <use xlink:href="#mae45a26513" x="86.69947" y="288.430125" style="stroke: #000000; stroke-width: 0.8"/>
      </g>
     </g>
     <g id="text_2">
      <!-- $\mathdefault{10^{0}}$ -->
      <g transform="translate(77.89947 303.028562) scale(0.1 -0.1)">
       <defs>
        <path id="DejaVuSans-31" d="M 794 531 
L 1825 531 
L 1825 4091 
L 703 3866 
L 703 4441 
L 1819 4666 
L 2450 4666 
L 2450 531 
L 3481 531 
L 3481 0 
L 794 0 
L 794 531 
z
" transform="scale(0.015625)"/>
       </defs>
       <use xlink:href="#DejaVuSans-31" transform="translate(0 0.765625)"/>
       <use xlink:href="#DejaVuSans-30" transform="translate(63.623047 0.765625)"/>
       <use xlink:href="#DejaVuSans-30" transform="translate(128.203125 39.046875) scale(0.7)"/>
      </g>
     </g>
    </g>
    <g id="xtick_3">
     <g id="line2d_3">
      <g>
       <use xlink:href="#mae45a26513" x="146.959209" y="288.430125" style="stroke: #000000; stroke-width: 0.8"/>
      </g>
     </g>
     <g id="text_3">
      <!-- $\mathdefault{10^{1}}$ -->
      <g transform="translate(138.159209 303.028562) scale(0.1 -0.1)">
       <use xlink:href="#DejaVuSans-31" transform="translate(0 0.684375)"/>
       <use xlink:href="#DejaVuSans-30" transform="translate(63.623047 0.684375)"/>
       <use xlink:href="#DejaVuSans-31" transform="translate(128.203125 38.965625) scale(0.7)"/>
      </g>
     </g>
    </g>
    <g id="xtick_4">
     <g id="line2d_4">
      <g>
       <use xlink:href="#mae45a26513" x="194.993096" y="288.430125" style="stroke: #000000; stroke-width: 0.8"/>
      </g>
     </g>
     <g id="text_4">
      <!-- $\mathdefault{10^{2}}$ -->
      <g transform="translate(186.193096 303.028562) scale(0.1 -0.1)">
       <defs>
        <path id="DejaVuSans-32" d="M 1228 531 
L 3431 531 
L 3431 0 
L 469 0 
L 469 531 
Q 828 903 1448 1529 
Q 2069 2156 2228 2338 
Q 2531 2678 2651 2914 
Q 2772 3150 2772 3378 
Q 2772 3750 2511 3984 
Q 2250 4219 1831 4219 
Q 1534 4219 1204 4116 
Q 875 4013 500 3803 
L 500 4441 
Q 881 4594 1212 4672 
Q 1544 4750 1819 4750 
Q 2544 4750 2975 4387 
Q 3406 4025 3406 3419 
Q 3406 3131 3298 2873 
Q 3191 2616 2906 2266 
Q 2828 2175 2409 1742 
Q 1991 1309 1228 531 
z
" transform="scale(0.015625)"/>
       </defs>
       <use xlink:href="#DejaVuSans-31" transform="translate(0 0.765625)"/>
       <use xlink:href="#DejaVuSans-30" transform="translate(63.623047 0.765625)"/>
       <use xlink:href="#DejaVuSans-32" transform="translate(128.203125 39.046875) scale(0.7)"/>
      </g>
     </g>
    </g>
    <g id="xtick_5">
     <g id="line2d_5">
      <g>
       <use xlink:href="#mae45a26513" x="243.026983" y="288.430125" style="stroke: #000000; stroke-width: 0.8"/>
      </g>
     </g>
     <g id="text_5">
      <!-- $\mathdefault{10^{3}}$ -->
      <g transform="translate(234.226983 303.028562) scale(0.1 -0.1)">
       <defs>
        <path id="DejaVuSans-33" d="M 2597 2516 
Q 3050 2419 3304 2112 
Q 3559 1806 3559 1356 
Q 3559 666 3084 287 
Q 2609 -91 1734 -91 
Q 1441 -91 1130 -33 
Q 819 25 488 141 
L 488 750 
Q 750 597 1062 519 
Q 1375 441 1716 441 
Q 2309 441 2620 675 
Q 2931 909 2931 1356 
Q 2931 1769 2642 2001 
Q 2353 2234 1838 2234 
L 1294 2234 
L 1294 2753 
L 1863 2753 
Q 2328 2753 2575 2939 
Q 2822 3125 2822 3475 
Q 2822 3834 2567 4026 
Q 2313 4219 1838 4219 
Q 1578 4219 1281 4162 
Q 984 4106 628 3988 
L 628 4550 
Q 988 4650 1302 4700 
Q 1616 4750 1894 4750 
Q 2613 4750 3031 4423 
Q 3450 4097 3450 3541 
Q 3450 3153 3228 2886 
Q 3006 2619 2597 2516 
z
" transform="scale(0.015625)"/>
       </defs>
       <use xlink:href="#DejaVuSans-31" transform="translate(0 0.765625)"/>
       <use xlink:href="#DejaVuSans-30" transform="translate(63.623047 0.765625)"/>
       <use xlink:href="#DejaVuSans-33" transform="translate(128.203125 39.046875) scale(0.7)"/>
      </g>
     </g>
    </g>
    <g id="xtick_6">
     <g id="line2d_6">
      <g>
       <use xlink:href="#mae45a26513" x="291.06087" y="288.430125" style="stroke: #000000; stroke-width: 0.8"/>
      </g>
     </g>
     <g id="text_6">
      <!-- $\mathdefault{10^{4}}$ -->
      <g transform="translate(282.26087 303.028562) scale(0.1 -0.1)">
       <defs>
        <path id="DejaVuSans-34" d="M 2419 4116 
L 825 1625 
L 2419 1625 
L 2419 4116 
z
M 2253 4666 
L 3047 4666 
L 3047 1625 
L 3713 1625 
L 3713 1100 
L 3047 1100 
L 3047 0 
L 2419 0 
L 2419 1100 
L 313 1100 
L 313 1709 
L 2253 4666 
z
" transform="scale(0.015625)"/>
       </defs>
       <use xlink:href="#DejaVuSans-31" transform="translate(0 0.684375)"/>
       <use xlink:href="#DejaVuSans-30" transform="translate(63.623047 0.684375)"/>
       <use xlink:href="#DejaVuSans-34" transform="translate(128.203125 38.965625) scale(0.7)"/>
      </g>
     </g>
    </g>
    <g id="xtick_7">
     <g id="line2d_7">
      <g>
       <use xlink:href="#mae45a26513" x="339.094756" y="288.430125" style="stroke: #000000; stroke-width: 0.8"/>
      </g>
     </g>
     <g id="text_7">
      <!-- $\mathdefault{10^{5}}$ -->
      <g transform="translate(330.294756 303.028562) scale(0.1 -0.1)">
       <defs>
        <path id="DejaVuSans-35" d="M 691 4666 
L 3169 4666 
L 3169 4134 
L 1269 4134 
L 1269 2991 
Q 1406 3038 1543 3061 
Q 1681 3084 1819 3084 
Q 2600 3084 3056 2656 
Q 3513 2228 3513 1497 
Q 3513 744 3044 326 
Q 2575 -91 1722 -91 
Q 1428 -91 1123 -41 
Q 819 9 494 109 
L 494 744 
Q 775 591 1075 516 
Q 1375 441 1709 441 
Q 2250 441 2565 725 
Q 2881 1009 2881 1497 
Q 2881 1984 2565 2268 
Q 2250 2553 1709 2553 
Q 1456 2553 1204 2497 
Q 953 2441 691 2322 
L 691 4666 
z
" transform="scale(0.015625)"/>
       </defs>
       <use xlink:href="#DejaVuSans-31" transform="translate(0 0.684375)"/>
       <use xlink:href="#DejaVuSans-30" transform="translate(63.623047 0.684375)"/>
       <use xlink:href="#DejaVuSans-35" transform="translate(128.203125 38.965625) scale(0.7)"/>
      </g>
     </g>
    </g>
    <g id="xtick_8">
     <g id="line2d_8">
      <g>
       <use xlink:href="#mae45a26513" x="387.128643" y="288.430125" style="stroke: #000000; stroke-width: 0.8"/>
      </g>
     </g>
     <g id="text_8">
      <!-- $\mathdefault{10^{6}}$ -->
      <g transform="translate(378.328643 303.028562) scale(0.1 -0.1)">
       <defs>
        <path id="DejaVuSans-36" d="M 2113 2584 
Q 1688 2584 1439 2293 
Q 1191 2003 1191 1497 
Q 1191 994 1439 701 
Q 1688 409 2113 409 
Q 2538 409 2786 701 
Q 3034 994 3034 1497 
Q 3034 2003 2786 2293 
Q 2538 2584 2113 2584 
z
M 3366 4563 
L 3366 3988 
Q 3128 4100 2886 4159 
Q 2644 4219 2406 4219 
Q 1781 4219 1451 3797 
Q 1122 3375 1075 2522 
Q 1259 2794 1537 2939 
Q 1816 3084 2150 3084 
Q 2853 3084 3261 2657 
Q 3669 2231 3669 1497 
Q 3669 778 3244 343 
Q 2819 -91 2113 -91 
Q 1303 -91 875 529 
Q 447 1150 447 2328 
Q 447 3434 972 4092 
Q 1497 4750 2381 4750 
Q 2619 4750 2861 4703 
Q 3103 4656 3366 4563 
z
" transform="scale(0.015625)"/>
       </defs>
       <use xlink:href="#DejaVuSans-31" transform="translate(0 0.765625)"/>
       <use xlink:href="#DejaVuSans-30" transform="translate(63.623047 0.765625)"/>
       <use xlink:href="#DejaVuSans-36" transform="translate(128.203125 39.046875) scale(0.7)"/>
      </g>
     </g>
    </g>
    <g id="text_9">
     <!-- TMD to training dataset -->
     <g transform="translate(163.063125 316.706687) scale(0.1 -0.1)">
      <defs>
       <path id="DejaVuSans-54" d="M -19 4666 
L 3928 4666 
L 3928 4134 
L 2272 4134 
L 2272 0 
L 1638 0 
L 1638 4134 
L -19 4134 
L -19 4666 
z
" transform="scale(0.015625)"/>
       <path id="DejaVuSans-4d" d="M 628 4666 
L 1569 4666 
L 2759 1491 
L 3956 4666 
L 4897 4666 
L 4897 0 
L 4281 0 
L 4281 4097 
L 3078 897 
L 2444 897 
L 1241 4097 
L 1241 0 
L 628 0 
L 628 4666 
z
" transform="scale(0.015625)"/>
       <path id="DejaVuSans-44" d="M 1259 4147 
L 1259 519 
L 2022 519 
Q 2988 519 3436 956 
Q 3884 1394 3884 2338 
Q 3884 3275 3436 3711 
Q 2988 4147 2022 4147 
L 1259 4147 
z
M 628 4666 
L 1925 4666 
Q 3281 4666 3915 4102 
Q 4550 3538 4550 2338 
Q 4550 1131 3912 565 
Q 3275 0 1925 0 
L 628 0 
L 628 4666 
z
" transform="scale(0.015625)"/>
       <path id="DejaVuSans-20" transform="scale(0.015625)"/>
       <path id="DejaVuSans-74" d="M 1172 4494 
L 1172 3500 
L 2356 3500 
L 2356 3053 
L 1172 3053 
L 1172 1153 
Q 1172 725 1289 603 
Q 1406 481 1766 481 
L 2356 481 
L 2356 0 
L 1766 0 
Q 1100 0 847 248 
Q 594 497 594 1153 
L 594 3053 
L 172 3053 
L 172 3500 
L 594 3500 
L 594 4494 
L 1172 4494 
z
" transform="scale(0.015625)"/>
       <path id="DejaVuSans-6f" d="M 1959 3097 
Q 1497 3097 1228 2736 
Q 959 2375 959 1747 
Q 959 1119 1226 758 
Q 1494 397 1959 397 
Q 2419 397 2687 759 
Q 2956 1122 2956 1747 
Q 2956 2369 2687 2733 
Q 2419 3097 1959 3097 
z
M 1959 3584 
Q 2709 3584 3137 3096 
Q 3566 2609 3566 1747 
Q 3566 888 3137 398 
Q 2709 -91 1959 -91 
Q 1206 -91 779 398 
Q 353 888 353 1747 
Q 353 2609 779 3096 
Q 1206 3584 1959 3584 
z
" transform="scale(0.015625)"/>
       <path id="DejaVuSans-72" d="M 2631 2963 
Q 2534 3019 2420 3045 
Q 2306 3072 2169 3072 
Q 1681 3072 1420 2755 
Q 1159 2438 1159 1844 
L 1159 0 
L 581 0 
L 581 3500 
L 1159 3500 
L 1159 2956 
Q 1341 3275 1631 3429 
Q 1922 3584 2338 3584 
Q 2397 3584 2469 3576 
Q 2541 3569 2628 3553 
L 2631 2963 
z
" transform="scale(0.015625)"/>
       <path id="DejaVuSans-61" d="M 2194 1759 
Q 1497 1759 1228 1600 
Q 959 1441 959 1056 
Q 959 750 1161 570 
Q 1363 391 1709 391 
Q 2188 391 2477 730 
Q 2766 1069 2766 1631 
L 2766 1759 
L 2194 1759 
z
M 3341 1997 
L 3341 0 
L 2766 0 
L 2766 531 
Q 2569 213 2275 61 
Q 1981 -91 1556 -91 
Q 1019 -91 701 211 
Q 384 513 384 1019 
Q 384 1609 779 1909 
Q 1175 2209 1959 2209 
L 2766 2209 
L 2766 2266 
Q 2766 2663 2505 2880 
Q 2244 3097 1772 3097 
Q 1472 3097 1187 3025 
Q 903 2953 641 2809 
L 641 3341 
Q 956 3463 1253 3523 
Q 1550 3584 1831 3584 
Q 2591 3584 2966 3190 
Q 3341 2797 3341 1997 
z
" transform="scale(0.015625)"/>
       <path id="DejaVuSans-69" d="M 603 3500 
L 1178 3500 
L 1178 0 
L 603 0 
L 603 3500 
z
M 603 4863 
L 1178 4863 
L 1178 4134 
L 603 4134 
L 603 4863 
z
" transform="scale(0.015625)"/>
       <path id="DejaVuSans-6e" d="M 3513 2113 
L 3513 0 
L 2938 0 
L 2938 2094 
Q 2938 2591 2744 2837 
Q 2550 3084 2163 3084 
Q 1697 3084 1428 2787 
Q 1159 2491 1159 1978 
L 1159 0 
L 581 0 
L 581 3500 
L 1159 3500 
L 1159 2956 
Q 1366 3272 1645 3428 
Q 1925 3584 2291 3584 
Q 2894 3584 3203 3211 
Q 3513 2838 3513 2113 
z
" transform="scale(0.015625)"/>
       <path id="DejaVuSans-67" d="M 2906 1791 
Q 2906 2416 2648 2759 
Q 2391 3103 1925 3103 
Q 1463 3103 1205 2759 
Q 947 2416 947 1791 
Q 947 1169 1205 825 
Q 1463 481 1925 481 
Q 2391 481 2648 825 
Q 2906 1169 2906 1791 
z
M 3481 434 
Q 3481 -459 3084 -895 
Q 2688 -1331 1869 -1331 
Q 1566 -1331 1297 -1286 
Q 1028 -1241 775 -1147 
L 775 -588 
Q 1028 -725 1275 -790 
Q 1522 -856 1778 -856 
Q 2344 -856 2625 -561 
Q 2906 -266 2906 331 
L 2906 616 
Q 2728 306 2450 153 
Q 2172 0 1784 0 
Q 1141 0 747 490 
Q 353 981 353 1791 
Q 353 2603 747 3093 
Q 1141 3584 1784 3584 
Q 2172 3584 2450 3431 
Q 2728 3278 2906 2969 
L 2906 3500 
L 3481 3500 
L 3481 434 
z
" transform="scale(0.015625)"/>
       <path id="DejaVuSans-64" d="M 2906 2969 
L 2906 4863 
L 3481 4863 
L 3481 0 
L 2906 0 
L 2906 525 
Q 2725 213 2448 61 
Q 2172 -91 1784 -91 
Q 1150 -91 751 415 
Q 353 922 353 1747 
Q 353 2572 751 3078 
Q 1150 3584 1784 3584 
Q 2172 3584 2448 3432 
Q 2725 3281 2906 2969 
z
M 947 1747 
Q 947 1113 1208 752 
Q 1469 391 1925 391 
Q 2381 391 2643 752 
Q 2906 1113 2906 1747 
Q 2906 2381 2643 2742 
Q 2381 3103 1925 3103 
Q 1469 3103 1208 2742 
Q 947 2381 947 1747 
z
" transform="scale(0.015625)"/>
       <path id="DejaVuSans-73" d="M 2834 3397 
L 2834 2853 
Q 2591 2978 2328 3040 
Q 2066 3103 1784 3103 
Q 1356 3103 1142 2972 
Q 928 2841 928 2578 
Q 928 2378 1081 2264 
Q 1234 2150 1697 2047 
L 1894 2003 
Q 2506 1872 2764 1633 
Q 3022 1394 3022 966 
Q 3022 478 2636 193 
Q 2250 -91 1575 -91 
Q 1294 -91 989 -36 
Q 684 19 347 128 
L 347 722 
Q 666 556 975 473 
Q 1284 391 1588 391 
Q 1994 391 2212 530 
Q 2431 669 2431 922 
Q 2431 1156 2273 1281 
Q 2116 1406 1581 1522 
L 1381 1569 
Q 847 1681 609 1914 
Q 372 2147 372 2553 
Q 372 3047 722 3315 
Q 1072 3584 1716 3584 
Q 2034 3584 2315 3537 
Q 2597 3491 2834 3397 
z
" transform="scale(0.015625)"/>
       <path id="DejaVuSans-65" d="M 3597 1894 
L 3597 1613 
L 953 1613 
Q 991 1019 1311 708 
Q 1631 397 2203 397 
Q 2534 397 2845 478 
Q 3156 559 3463 722 
L 3463 178 
Q 3153 47 2828 -22 
Q 2503 -91 2169 -91 
Q 1331 -91 842 396 
Q 353 884 353 1716 
Q 353 2575 817 3079 
Q 1281 3584 2069 3584 
Q 2775 3584 3186 3129 
Q 3597 2675 3597 1894 
z
M 3022 2063 
Q 3016 2534 2758 2815 
Q 2500 3097 2075 3097 
Q 1594 3097 1305 2825 
Q 1016 2553 972 2059 
L 3022 2063 
z
" transform="scale(0.015625)"/>
      </defs>
      <use xlink:href="#DejaVuSans-54"/>
      <use xlink:href="#DejaVuSans-4d" x="61.083984"/>
      <use xlink:href="#DejaVuSans-44" x="147.363281"/>
      <use xlink:href="#DejaVuSans-20" x="224.365234"/>
      <use xlink:href="#DejaVuSans-74" x="256.152344"/>
      <use xlink:href="#DejaVuSans-6f" x="295.361328"/>
      <use xlink:href="#DejaVuSans-20" x="356.542969"/>
      <use xlink:href="#DejaVuSans-74" x="388.330078"/>
      <use xlink:href="#DejaVuSans-72" x="427.539062"/>
      <use xlink:href="#DejaVuSans-61" x="468.652344"/>
      <use xlink:href="#DejaVuSans-69" x="529.931641"/>
      <use xlink:href="#DejaVuSans-6e" x="557.714844"/>
      <use xlink:href="#DejaVuSans-69" x="621.09375"/>
      <use xlink:href="#DejaVuSans-6e" x="648.876953"/>
      <use xlink:href="#DejaVuSans-67" x="712.255859"/>
      <use xlink:href="#DejaVuSans-20" x="775.732422"/>
      <use xlink:href="#DejaVuSans-64" x="807.519531"/>
      <use xlink:href="#DejaVuSans-61" x="870.996094"/>
      <use xlink:href="#DejaVuSans-74" x="932.275391"/>
      <use xlink:href="#DejaVuSans-61" x="971.484375"/>
      <use xlink:href="#DejaVuSans-73" x="1032.763672"/>
      <use xlink:href="#DejaVuSans-65" x="1084.863281"/>
      <use xlink:href="#DejaVuSans-74" x="1146.386719"/>
     </g>
    </g>
   </g>
   <g id="matplotlib.axis_2">
    <g id="ytick_1">
     <g id="line2d_9">
      <defs>
       <path id="me73d5b1a67" d="M 0 0 
L -3.5 0 
" style="stroke: #000000; stroke-width: 0.8"/>
      </defs>
      <g>
       <use xlink:href="#me73d5b1a67" x="43.78125" y="268.73366" style="stroke: #000000; stroke-width: 0.8"/>
      </g>
     </g>
     <g id="text_10">
      <!-- 0.6 -->
      <g transform="translate(20.878125 272.532878) scale(0.1 -0.1)">
       <defs>
        <path id="DejaVuSans-2e" d="M 684 794 
L 1344 794 
L 1344 0 
L 684 0 
L 684 794 
z
" transform="scale(0.015625)"/>
       </defs>
       <use xlink:href="#DejaVuSans-30"/>
       <use xlink:href="#DejaVuSans-2e" x="63.623047"/>
       <use xlink:href="#DejaVuSans-36" x="95.410156"/>
      </g>
     </g>
    </g>
    <g id="ytick_2">
     <g id="line2d_10">
      <g>
       <use xlink:href="#me73d5b1a67" x="43.78125" y="212.433916" style="stroke: #000000; stroke-width: 0.8"/>
      </g>
     </g>
     <g id="text_11">
      <!-- 0.7 -->
      <g transform="translate(20.878125 216.233134) scale(0.1 -0.1)">
       <defs>
        <path id="DejaVuSans-37" d="M 525 4666 
L 3525 4666 
L 3525 4397 
L 1831 0 
L 1172 0 
L 2766 4134 
L 525 4134 
L 525 4666 
z
" transform="scale(0.015625)"/>
       </defs>
       <use xlink:href="#DejaVuSans-30"/>
       <use xlink:href="#DejaVuSans-2e" x="63.623047"/>
       <use xlink:href="#DejaVuSans-37" x="95.410156"/>
      </g>
     </g>
    </g>
    <g id="ytick_3">
     <g id="line2d_11">
      <g>
       <use xlink:href="#me73d5b1a67" x="43.78125" y="156.134172" style="stroke: #000000; stroke-width: 0.8"/>
      </g>
     </g>
     <g id="text_12">
      <!-- 0.8 -->
      <g transform="translate(20.878125 159.93339) scale(0.1 -0.1)">
       <defs>
        <path id="DejaVuSans-38" d="M 2034 2216 
Q 1584 2216 1326 1975 
Q 1069 1734 1069 1313 
Q 1069 891 1326 650 
Q 1584 409 2034 409 
Q 2484 409 2743 651 
Q 3003 894 3003 1313 
Q 3003 1734 2745 1975 
Q 2488 2216 2034 2216 
z
M 1403 2484 
Q 997 2584 770 2862 
Q 544 3141 544 3541 
Q 544 4100 942 4425 
Q 1341 4750 2034 4750 
Q 2731 4750 3128 4425 
Q 3525 4100 3525 3541 
Q 3525 3141 3298 2862 
Q 3072 2584 2669 2484 
Q 3125 2378 3379 2068 
Q 3634 1759 3634 1313 
Q 3634 634 3220 271 
Q 2806 -91 2034 -91 
Q 1263 -91 848 271 
Q 434 634 434 1313 
Q 434 1759 690 2068 
Q 947 2378 1403 2484 
z
M 1172 3481 
Q 1172 3119 1398 2916 
Q 1625 2713 2034 2713 
Q 2441 2713 2670 2916 
Q 2900 3119 2900 3481 
Q 2900 3844 2670 4047 
Q 2441 4250 2034 4250 
Q 1625 4250 1398 4047 
Q 1172 3844 1172 3481 
z
" transform="scale(0.015625)"/>
       </defs>
       <use xlink:href="#DejaVuSans-30"/>
       <use xlink:href="#DejaVuSans-2e" x="63.623047"/>
       <use xlink:href="#DejaVuSans-38" x="95.410156"/>
      </g>
     </g>
    </g>
    <g id="ytick_4">
     <g id="line2d_12">
      <g>
       <use xlink:href="#me73d5b1a67" x="43.78125" y="99.834428" style="stroke: #000000; stroke-width: 0.8"/>
      </g>
     </g>
     <g id="text_13">
      <!-- 0.9 -->
      <g transform="translate(20.878125 103.633646) scale(0.1 -0.1)">
       <defs>
        <path id="DejaVuSans-39" d="M 703 97 
L 703 672 
Q 941 559 1184 500 
Q 1428 441 1663 441 
Q 2288 441 2617 861 
Q 2947 1281 2994 2138 
Q 2813 1869 2534 1725 
Q 2256 1581 1919 1581 
Q 1219 1581 811 2004 
Q 403 2428 403 3163 
Q 403 3881 828 4315 
Q 1253 4750 1959 4750 
Q 2769 4750 3195 4129 
Q 3622 3509 3622 2328 
Q 3622 1225 3098 567 
Q 2575 -91 1691 -91 
Q 1453 -91 1209 -44 
Q 966 3 703 97 
z
M 1959 2075 
Q 2384 2075 2632 2365 
Q 2881 2656 2881 3163 
Q 2881 3666 2632 3958 
Q 2384 4250 1959 4250 
Q 1534 4250 1286 3958 
Q 1038 3666 1038 3163 
Q 1038 2656 1286 2365 
Q 1534 2075 1959 2075 
z
" transform="scale(0.015625)"/>
       </defs>
       <use xlink:href="#DejaVuSans-30"/>
       <use xlink:href="#DejaVuSans-2e" x="63.623047"/>
       <use xlink:href="#DejaVuSans-39" x="95.410156"/>
      </g>
     </g>
    </g>
    <g id="ytick_5">
     <g id="line2d_13">
      <g>
       <use xlink:href="#me73d5b1a67" x="43.78125" y="43.534684" style="stroke: #000000; stroke-width: 0.8"/>
      </g>
     </g>
     <g id="text_14">
      <!-- 1.0 -->
      <g transform="translate(20.878125 47.333902) scale(0.1 -0.1)">
       <use xlink:href="#DejaVuSans-31"/>
       <use xlink:href="#DejaVuSans-2e" x="63.623047"/>
       <use xlink:href="#DejaVuSans-30" x="95.410156"/>
      </g>
     </g>
    </g>
    <g id="text_15">
     <!-- Accuracy -->
     <g transform="translate(14.798438 178.20225) rotate(-90) scale(0.1 -0.1)">
      <defs>
       <path id="DejaVuSans-41" d="M 2188 4044 
L 1331 1722 
L 3047 1722 
L 2188 4044 
z
M 1831 4666 
L 2547 4666 
L 4325 0 
L 3669 0 
L 3244 1197 
L 1141 1197 
L 716 0 
L 50 0 
L 1831 4666 
z
" transform="scale(0.015625)"/>
       <path id="DejaVuSans-63" d="M 3122 3366 
L 3122 2828 
Q 2878 2963 2633 3030 
Q 2388 3097 2138 3097 
Q 1578 3097 1268 2742 
Q 959 2388 959 1747 
Q 959 1106 1268 751 
Q 1578 397 2138 397 
Q 2388 397 2633 464 
Q 2878 531 3122 666 
L 3122 134 
Q 2881 22 2623 -34 
Q 2366 -91 2075 -91 
Q 1284 -91 818 406 
Q 353 903 353 1747 
Q 353 2603 823 3093 
Q 1294 3584 2113 3584 
Q 2378 3584 2631 3529 
Q 2884 3475 3122 3366 
z
" transform="scale(0.015625)"/>
       <path id="DejaVuSans-75" d="M 544 1381 
L 544 3500 
L 1119 3500 
L 1119 1403 
Q 1119 906 1312 657 
Q 1506 409 1894 409 
Q 2359 409 2629 706 
Q 2900 1003 2900 1516 
L 2900 3500 
L 3475 3500 
L 3475 0 
L 2900 0 
L 2900 538 
Q 2691 219 2414 64 
Q 2138 -91 1772 -91 
Q 1169 -91 856 284 
Q 544 659 544 1381 
z
M 1991 3584 
L 1991 3584 
z
" transform="scale(0.015625)"/>
       <path id="DejaVuSans-79" d="M 2059 -325 
Q 1816 -950 1584 -1140 
Q 1353 -1331 966 -1331 
L 506 -1331 
L 506 -850 
L 844 -850 
Q 1081 -850 1212 -737 
Q 1344 -625 1503 -206 
L 1606 56 
L 191 3500 
L 800 3500 
L 1894 763 
L 2988 3500 
L 3597 3500 
L 2059 -325 
z
" transform="scale(0.015625)"/>
      </defs>
      <use xlink:href="#DejaVuSans-41"/>
      <use xlink:href="#DejaVuSans-63" x="66.658203"/>
      <use xlink:href="#DejaVuSans-63" x="121.638672"/>
      <use xlink:href="#DejaVuSans-75" x="176.619141"/>
      <use xlink:href="#DejaVuSans-72" x="239.998047"/>
      <use xlink:href="#DejaVuSans-61" x="281.111328"/>
      <use xlink:href="#DejaVuSans-63" x="342.390625"/>
      <use xlink:href="#DejaVuSans-79" x="397.371094"/>
     </g>
    </g>
   </g>
   <g id="line2d_14">
    <path d="M 60.013977 43.534684 
L 120.614583 150.504197 
L 135.074593 126.633106 
L 139.729483 108.448288 
L 143.532817 130.574088 
L 146.748497 127.365002 
L 149.534049 159.681055 
L 151.991083 188.337625 
L 154.188977 215.980799 
L 156.177215 192.166008 
L 157.992458 178.991868 
L 159.662198 170.997304 
L 161.208137 178.935568 
L 161.208137 171.447702 
L 162.647373 184.509243 
L 163.99369 178.597769 
L 165.25836 175.782782 
L 166.450724 176.965077 
L 167.578681 180.117862 
L 167.578681 176.627278 
L 169.666485 183.270648 
L 170.636923 189.294721 
L 171.564216 188.281325 
L 172.452037 185.01594 
L 173.303612 183.158049 
L 174.121839 186.423434 
L 174.909126 191.546711 
L 175.667778 189.294721 
L 176.399806 187.718328 
L 177.107014 185.973036 
L 177.791032 183.158049 
L 180.910405 181.243857 
L 182.038283 184.002545 
L 183.623436 183.833646 
L 185.565362 185.353739 
L 186.023856 184.002545 
L 188.176377 186.930132 
L 188.581451 186.029336 
L 189.751515 189.576219 
L 191.216048 188.675424 
L 192.584473 187.380529 
L 192.912994 186.085635 
L 193.554911 184.847041 
L 193.868611 184.565542 
L 197.567954 182.93285 
L 206.710325 181.243857 
L 207.696062 180.061563 
L 211.365287 178.935568 
L 211.765184 177.865873 
L 218.953351 176.23318 
L 225.689907 174.994586 
L 242.333907 173.868591 
" clip-path="url(#p31675777ec)" style="fill: none; stroke: #1f77b4; stroke-width: 1.5; stroke-linecap: square"/>
    <defs>
     <path id="m8ceedd8e81" d="M 0 1.5 
C 0.397805 1.5 0.77937 1.341951 1.06066 1.06066 
C 1.341951 0.77937 1.5 0.397805 1.5 0 
C 1.5 -0.397805 1.341951 -0.77937 1.06066 -1.06066 
C 0.77937 -1.341951 0.397805 -1.5 0 -1.5 
C -0.397805 -1.5 -0.77937 -1.341951 -1.06066 -1.06066 
C -1.341951 -0.77937 -1.5 -0.397805 -1.5 0 
C -1.5 0.397805 -1.341951 0.77937 -1.06066 1.06066 
C -0.77937 1.341951 -0.397805 1.5 0 1.5 
z
" style="stroke: #1f77b4"/>
    </defs>
    <g clip-path="url(#p31675777ec)">
     <use xlink:href="#m8ceedd8e81" x="60.013977" y="43.534684" style="fill: #1f77b4; stroke: #1f77b4"/>
     <use xlink:href="#m8ceedd8e81" x="120.614583" y="150.504197" style="fill: #1f77b4; stroke: #1f77b4"/>
     <use xlink:href="#m8ceedd8e81" x="135.074593" y="126.633106" style="fill: #1f77b4; stroke: #1f77b4"/>
     <use xlink:href="#m8ceedd8e81" x="139.729483" y="108.448288" style="fill: #1f77b4; stroke: #1f77b4"/>
     <use xlink:href="#m8ceedd8e81" x="143.532817" y="130.574088" style="fill: #1f77b4; stroke: #1f77b4"/>
     <use xlink:href="#m8ceedd8e81" x="146.748497" y="127.365002" style="fill: #1f77b4; stroke: #1f77b4"/>
     <use xlink:href="#m8ceedd8e81" x="149.534049" y="159.681055" style="fill: #1f77b4; stroke: #1f77b4"/>
     <use xlink:href="#m8ceedd8e81" x="151.991083" y="188.337625" style="fill: #1f77b4; stroke: #1f77b4"/>
     <use xlink:href="#m8ceedd8e81" x="154.188977" y="215.980799" style="fill: #1f77b4; stroke: #1f77b4"/>
     <use xlink:href="#m8ceedd8e81" x="156.177215" y="192.166008" style="fill: #1f77b4; stroke: #1f77b4"/>
     <use xlink:href="#m8ceedd8e81" x="157.992458" y="178.991868" style="fill: #1f77b4; stroke: #1f77b4"/>
     <use xlink:href="#m8ceedd8e81" x="159.662198" y="170.997304" style="fill: #1f77b4; stroke: #1f77b4"/>
     <use xlink:href="#m8ceedd8e81" x="161.208137" y="178.935568" style="fill: #1f77b4; stroke: #1f77b4"/>
     <use xlink:href="#m8ceedd8e81" x="161.208137" y="171.447702" style="fill: #1f77b4; stroke: #1f77b4"/>
     <use xlink:href="#m8ceedd8e81" x="162.647373" y="184.509243" style="fill: #1f77b4; stroke: #1f77b4"/>
     <use xlink:href="#m8ceedd8e81" x="163.99369" y="178.597769" style="fill: #1f77b4; stroke: #1f77b4"/>
     <use xlink:href="#m8ceedd8e81" x="165.25836" y="175.782782" style="fill: #1f77b4; stroke: #1f77b4"/>
     <use xlink:href="#m8ceedd8e81" x="166.450724" y="176.965077" style="fill: #1f77b4; stroke: #1f77b4"/>
     <use xlink:href="#m8ceedd8e81" x="167.578681" y="180.117862" style="fill: #1f77b4; stroke: #1f77b4"/>
     <use xlink:href="#m8ceedd8e81" x="167.578681" y="176.627278" style="fill: #1f77b4; stroke: #1f77b4"/>
     <use xlink:href="#m8ceedd8e81" x="169.666485" y="183.270648" style="fill: #1f77b4; stroke: #1f77b4"/>
     <use xlink:href="#m8ceedd8e81" x="170.636923" y="189.294721" style="fill: #1f77b4; stroke: #1f77b4"/>
     <use xlink:href="#m8ceedd8e81" x="171.564216" y="188.281325" style="fill: #1f77b4; stroke: #1f77b4"/>
     <use xlink:href="#m8ceedd8e81" x="172.452037" y="185.01594" style="fill: #1f77b4; stroke: #1f77b4"/>
     <use xlink:href="#m8ceedd8e81" x="173.303612" y="183.158049" style="fill: #1f77b4; stroke: #1f77b4"/>
     <use xlink:href="#m8ceedd8e81" x="174.121839" y="186.423434" style="fill: #1f77b4; stroke: #1f77b4"/>
     <use xlink:href="#m8ceedd8e81" x="174.909126" y="191.546711" style="fill: #1f77b4; stroke: #1f77b4"/>
     <use xlink:href="#m8ceedd8e81" x="175.667778" y="189.294721" style="fill: #1f77b4; stroke: #1f77b4"/>
     <use xlink:href="#m8ceedd8e81" x="176.399806" y="187.718328" style="fill: #1f77b4; stroke: #1f77b4"/>
     <use xlink:href="#m8ceedd8e81" x="177.107014" y="185.973036" style="fill: #1f77b4; stroke: #1f77b4"/>
     <use xlink:href="#m8ceedd8e81" x="177.791032" y="183.158049" style="fill: #1f77b4; stroke: #1f77b4"/>
     <use xlink:href="#m8ceedd8e81" x="180.910405" y="181.243857" style="fill: #1f77b4; stroke: #1f77b4"/>
     <use xlink:href="#m8ceedd8e81" x="182.038283" y="184.002545" style="fill: #1f77b4; stroke: #1f77b4"/>
     <use xlink:href="#m8ceedd8e81" x="183.623436" y="183.833646" style="fill: #1f77b4; stroke: #1f77b4"/>
     <use xlink:href="#m8ceedd8e81" x="185.565362" y="185.353739" style="fill: #1f77b4; stroke: #1f77b4"/>
     <use xlink:href="#m8ceedd8e81" x="186.023856" y="184.002545" style="fill: #1f77b4; stroke: #1f77b4"/>
     <use xlink:href="#m8ceedd8e81" x="188.176377" y="186.930132" style="fill: #1f77b4; stroke: #1f77b4"/>
     <use xlink:href="#m8ceedd8e81" x="188.581451" y="186.029336" style="fill: #1f77b4; stroke: #1f77b4"/>
     <use xlink:href="#m8ceedd8e81" x="189.751515" y="189.576219" style="fill: #1f77b4; stroke: #1f77b4"/>
     <use xlink:href="#m8ceedd8e81" x="191.216048" y="188.675424" style="fill: #1f77b4; stroke: #1f77b4"/>
     <use xlink:href="#m8ceedd8e81" x="192.584473" y="187.380529" style="fill: #1f77b4; stroke: #1f77b4"/>
     <use xlink:href="#m8ceedd8e81" x="192.912994" y="186.085635" style="fill: #1f77b4; stroke: #1f77b4"/>
     <use xlink:href="#m8ceedd8e81" x="193.554911" y="184.847041" style="fill: #1f77b4; stroke: #1f77b4"/>
     <use xlink:href="#m8ceedd8e81" x="193.868611" y="184.565542" style="fill: #1f77b4; stroke: #1f77b4"/>
     <use xlink:href="#m8ceedd8e81" x="197.567954" y="182.93285" style="fill: #1f77b4; stroke: #1f77b4"/>
     <use xlink:href="#m8ceedd8e81" x="206.710325" y="181.243857" style="fill: #1f77b4; stroke: #1f77b4"/>
     <use xlink:href="#m8ceedd8e81" x="207.696062" y="180.061563" style="fill: #1f77b4; stroke: #1f77b4"/>
     <use xlink:href="#m8ceedd8e81" x="211.365287" y="178.935568" style="fill: #1f77b4; stroke: #1f77b4"/>
     <use xlink:href="#m8ceedd8e81" x="211.765184" y="177.865873" style="fill: #1f77b4; stroke: #1f77b4"/>
     <use xlink:href="#m8ceedd8e81" x="218.953351" y="176.23318" style="fill: #1f77b4; stroke: #1f77b4"/>
     <use xlink:href="#m8ceedd8e81" x="225.689907" y="174.994586" style="fill: #1f77b4; stroke: #1f77b4"/>
     <use xlink:href="#m8ceedd8e81" x="242.333907" y="173.868591" style="fill: #1f77b4; stroke: #1f77b4"/>
    </g>
   </g>
   <g id="line2d_15">
    <path d="M 60.013977 43.534684 
L 201.801466 170.209108 
L 202.013251 147.68921 
L 207.855915 131.756382 
L 210.401247 124.324816 
L 212.795559 120.158635 
L 212.920857 157.992063 
L 213.292273 148.477406 
L 215.056212 183.101749 
L 215.722042 189.745119 
L 215.939342 180.005263 
L 216.993149 171.447702 
L 217.095659 197.176685 
L 217.299179 211.814618 
L 217.500733 231.18173 
L 218.093974 221.835973 
L 218.953351 216.431197 
L 219.868445 210.238226 
L 221.169966 223.130867 
L 221.66865 220.878877 
L 222.235777 214.122908 
L 223.552115 209.506329 
L 224.070884 204.664551 
L 224.57706 217.613492 
L 225.001364 216.149699 
L 226.874751 208.774432 
L 228.29693 204.101553 
L 228.475486 199.372375 
L 228.534665 200.160571 
L 228.944288 195.881791 
L 229.346023 202.69406 
L 229.402787 198.640478 
L 229.459396 194.699496 
L 229.684311 198.24638 
L 230.23622 198.584179 
L 230.290616 194.980995 
L 230.45296 200.216871 
L 230.50679 196.951486 
L 231.037632 205.509047 
L 231.606363 202.69406 
L 232.699327 195.712892 
L 232.844026 192.841605 
L 232.939937 199.316075 
L 234.148252 196.444788 
L 234.193359 195.938091 
L 234.550724 192.897904 
L 235.797163 189.632519 
L 235.963384 191.096313 
L 236.775194 197.908582 
L 237.518209 195.093594 
L 238.748963 193.404602 
L 238.821271 191.096313 
L 239.000953 188.900623 
L 240.750381 187.943527 
L 240.914252 185.804137 
L 241.334392 184.621842 
L 243.3459 189.632519 
L 243.519501 187.605728 
L 243.748743 185.635237 
L 244.777401 191.828209 
L 244.966433 189.857718 
L 245.233542 194.586897 
L 246.014939 196.444788 
L 246.520067 194.474297 
L 246.964458 192.560106 
L 247.942676 194.586897 
L 248.562692 199.428675 
L 249.707245 198.415279 
L 251.234834 202.356261 
L 251.432944 207.198039 
L 252.339661 205.227548 
L 252.377385 209.900427 
L 253.406851 215.192603 
L 253.567664 213.72881 
L 253.83296 211.870918 
L 254.007968 212.546515 
L 255.061428 211.195321 
L 255.568856 209.393729 
L 256.143045 211.702019 
L 256.36214 209.956727 
L 256.60975 214.573306 
L 256.717161 212.771714 
L 257.171334 210.857523 
L 257.732778 208.830732 
L 258.022317 207.198039 
L 259.14188 205.452747 
L 259.304751 203.707455 
L 260.384908 202.018463 
L 261.079283 202.131062 
L 261.153653 201.005068 
L 261.301603 199.541274 
L 263.580441 199.541274 
L 265.28237 197.964881 
L 265.353309 196.557388 
L 268.169215 198.415279 
L 272.746248 197.120385 
L 272.845383 195.825491 
L 274.449286 194.474297 
L 275.276519 192.897904 
L 278.362496 191.321512 
L 279.019038 190.082917 
L 281.822344 188.731723 
L 286.887616 187.26793 
L 287.786854 186.085635 
L 295.586012 184.678142 
L 314.524134 183.383248 
" clip-path="url(#p31675777ec)" style="fill: none; stroke-dasharray: 1.5,2.475; stroke-dashoffset: 0; stroke: #ff7f0e; stroke-width: 1.5"/>
    <defs>
     <path id="mca0045fbe9" d="M -0 2.12132 
L 1.272792 0 
L 0 -2.12132 
L -1.272792 -0 
z
" style="stroke: #ff7f0e; stroke-linejoin: miter"/>
    </defs>
    <g clip-path="url(#p31675777ec)">
     <use xlink:href="#mca0045fbe9" x="60.013977" y="43.534684" style="fill: #ff7f0e; stroke: #ff7f0e; stroke-linejoin: miter"/>
     <use xlink:href="#mca0045fbe9" x="201.801466" y="170.209108" style="fill: #ff7f0e; stroke: #ff7f0e; stroke-linejoin: miter"/>
     <use xlink:href="#mca0045fbe9" x="202.013251" y="147.68921" style="fill: #ff7f0e; stroke: #ff7f0e; stroke-linejoin: miter"/>
     <use xlink:href="#mca0045fbe9" x="207.855915" y="131.756382" style="fill: #ff7f0e; stroke: #ff7f0e; stroke-linejoin: miter"/>
     <use xlink:href="#mca0045fbe9" x="210.401247" y="124.324816" style="fill: #ff7f0e; stroke: #ff7f0e; stroke-linejoin: miter"/>
     <use xlink:href="#mca0045fbe9" x="212.795559" y="120.158635" style="fill: #ff7f0e; stroke: #ff7f0e; stroke-linejoin: miter"/>
     <use xlink:href="#mca0045fbe9" x="212.920857" y="157.992063" style="fill: #ff7f0e; stroke: #ff7f0e; stroke-linejoin: miter"/>
     <use xlink:href="#mca0045fbe9" x="213.292273" y="148.477406" style="fill: #ff7f0e; stroke: #ff7f0e; stroke-linejoin: miter"/>
     <use xlink:href="#mca0045fbe9" x="215.056212" y="183.101749" style="fill: #ff7f0e; stroke: #ff7f0e; stroke-linejoin: miter"/>
     <use xlink:href="#mca0045fbe9" x="215.722042" y="189.745119" style="fill: #ff7f0e; stroke: #ff7f0e; stroke-linejoin: miter"/>
     <use xlink:href="#mca0045fbe9" x="215.939342" y="180.005263" style="fill: #ff7f0e; stroke: #ff7f0e; stroke-linejoin: miter"/>
     <use xlink:href="#mca0045fbe9" x="216.993149" y="171.447702" style="fill: #ff7f0e; stroke: #ff7f0e; stroke-linejoin: miter"/>
     <use xlink:href="#mca0045fbe9" x="217.095659" y="197.176685" style="fill: #ff7f0e; stroke: #ff7f0e; stroke-linejoin: miter"/>
     <use xlink:href="#mca0045fbe9" x="217.299179" y="211.814618" style="fill: #ff7f0e; stroke: #ff7f0e; stroke-linejoin: miter"/>
     <use xlink:href="#mca0045fbe9" x="217.500733" y="231.18173" style="fill: #ff7f0e; stroke: #ff7f0e; stroke-linejoin: miter"/>
     <use xlink:href="#mca0045fbe9" x="218.093974" y="221.835973" style="fill: #ff7f0e; stroke: #ff7f0e; stroke-linejoin: miter"/>
     <use xlink:href="#mca0045fbe9" x="218.953351" y="216.431197" style="fill: #ff7f0e; stroke: #ff7f0e; stroke-linejoin: miter"/>
     <use xlink:href="#mca0045fbe9" x="219.868445" y="210.238226" style="fill: #ff7f0e; stroke: #ff7f0e; stroke-linejoin: miter"/>
     <use xlink:href="#mca0045fbe9" x="221.169966" y="223.130867" style="fill: #ff7f0e; stroke: #ff7f0e; stroke-linejoin: miter"/>
     <use xlink:href="#mca0045fbe9" x="221.66865" y="220.878877" style="fill: #ff7f0e; stroke: #ff7f0e; stroke-linejoin: miter"/>
     <use xlink:href="#mca0045fbe9" x="222.235777" y="214.122908" style="fill: #ff7f0e; stroke: #ff7f0e; stroke-linejoin: miter"/>
     <use xlink:href="#mca0045fbe9" x="223.552115" y="209.506329" style="fill: #ff7f0e; stroke: #ff7f0e; stroke-linejoin: miter"/>
     <use xlink:href="#mca0045fbe9" x="224.070884" y="204.664551" style="fill: #ff7f0e; stroke: #ff7f0e; stroke-linejoin: miter"/>
     <use xlink:href="#mca0045fbe9" x="224.57706" y="217.613492" style="fill: #ff7f0e; stroke: #ff7f0e; stroke-linejoin: miter"/>
     <use xlink:href="#mca0045fbe9" x="225.001364" y="216.149699" style="fill: #ff7f0e; stroke: #ff7f0e; stroke-linejoin: miter"/>
     <use xlink:href="#mca0045fbe9" x="226.874751" y="208.774432" style="fill: #ff7f0e; stroke: #ff7f0e; stroke-linejoin: miter"/>
     <use xlink:href="#mca0045fbe9" x="228.29693" y="204.101553" style="fill: #ff7f0e; stroke: #ff7f0e; stroke-linejoin: miter"/>
     <use xlink:href="#mca0045fbe9" x="228.475486" y="199.372375" style="fill: #ff7f0e; stroke: #ff7f0e; stroke-linejoin: miter"/>
     <use xlink:href="#mca0045fbe9" x="228.534665" y="200.160571" style="fill: #ff7f0e; stroke: #ff7f0e; stroke-linejoin: miter"/>
     <use xlink:href="#mca0045fbe9" x="228.944288" y="195.881791" style="fill: #ff7f0e; stroke: #ff7f0e; stroke-linejoin: miter"/>
     <use xlink:href="#mca0045fbe9" x="229.346023" y="202.69406" style="fill: #ff7f0e; stroke: #ff7f0e; stroke-linejoin: miter"/>
     <use xlink:href="#mca0045fbe9" x="229.402787" y="198.640478" style="fill: #ff7f0e; stroke: #ff7f0e; stroke-linejoin: miter"/>
     <use xlink:href="#mca0045fbe9" x="229.459396" y="194.699496" style="fill: #ff7f0e; stroke: #ff7f0e; stroke-linejoin: miter"/>
     <use xlink:href="#mca0045fbe9" x="229.684311" y="198.24638" style="fill: #ff7f0e; stroke: #ff7f0e; stroke-linejoin: miter"/>
     <use xlink:href="#mca0045fbe9" x="230.23622" y="198.584179" style="fill: #ff7f0e; stroke: #ff7f0e; stroke-linejoin: miter"/>
     <use xlink:href="#mca0045fbe9" x="230.290616" y="194.980995" style="fill: #ff7f0e; stroke: #ff7f0e; stroke-linejoin: miter"/>
     <use xlink:href="#mca0045fbe9" x="230.45296" y="200.216871" style="fill: #ff7f0e; stroke: #ff7f0e; stroke-linejoin: miter"/>
     <use xlink:href="#mca0045fbe9" x="230.50679" y="196.951486" style="fill: #ff7f0e; stroke: #ff7f0e; stroke-linejoin: miter"/>
     <use xlink:href="#mca0045fbe9" x="231.037632" y="205.509047" style="fill: #ff7f0e; stroke: #ff7f0e; stroke-linejoin: miter"/>
     <use xlink:href="#mca0045fbe9" x="231.606363" y="202.69406" style="fill: #ff7f0e; stroke: #ff7f0e; stroke-linejoin: miter"/>
     <use xlink:href="#mca0045fbe9" x="232.699327" y="195.712892" style="fill: #ff7f0e; stroke: #ff7f0e; stroke-linejoin: miter"/>
     <use xlink:href="#mca0045fbe9" x="232.844026" y="192.841605" style="fill: #ff7f0e; stroke: #ff7f0e; stroke-linejoin: miter"/>
     <use xlink:href="#mca0045fbe9" x="232.939937" y="199.316075" style="fill: #ff7f0e; stroke: #ff7f0e; stroke-linejoin: miter"/>
     <use xlink:href="#mca0045fbe9" x="234.148252" y="196.444788" style="fill: #ff7f0e; stroke: #ff7f0e; stroke-linejoin: miter"/>
     <use xlink:href="#mca0045fbe9" x="234.193359" y="195.938091" style="fill: #ff7f0e; stroke: #ff7f0e; stroke-linejoin: miter"/>
     <use xlink:href="#mca0045fbe9" x="234.550724" y="192.897904" style="fill: #ff7f0e; stroke: #ff7f0e; stroke-linejoin: miter"/>
     <use xlink:href="#mca0045fbe9" x="235.797163" y="189.632519" style="fill: #ff7f0e; stroke: #ff7f0e; stroke-linejoin: miter"/>
     <use xlink:href="#mca0045fbe9" x="235.963384" y="191.096313" style="fill: #ff7f0e; stroke: #ff7f0e; stroke-linejoin: miter"/>
     <use xlink:href="#mca0045fbe9" x="236.775194" y="197.908582" style="fill: #ff7f0e; stroke: #ff7f0e; stroke-linejoin: miter"/>
     <use xlink:href="#mca0045fbe9" x="237.518209" y="195.093594" style="fill: #ff7f0e; stroke: #ff7f0e; stroke-linejoin: miter"/>
     <use xlink:href="#mca0045fbe9" x="238.748963" y="193.404602" style="fill: #ff7f0e; stroke: #ff7f0e; stroke-linejoin: miter"/>
     <use xlink:href="#mca0045fbe9" x="238.821271" y="191.096313" style="fill: #ff7f0e; stroke: #ff7f0e; stroke-linejoin: miter"/>
     <use xlink:href="#mca0045fbe9" x="239.000953" y="188.900623" style="fill: #ff7f0e; stroke: #ff7f0e; stroke-linejoin: miter"/>
     <use xlink:href="#mca0045fbe9" x="240.750381" y="187.943527" style="fill: #ff7f0e; stroke: #ff7f0e; stroke-linejoin: miter"/>
     <use xlink:href="#mca0045fbe9" x="240.914252" y="185.804137" style="fill: #ff7f0e; stroke: #ff7f0e; stroke-linejoin: miter"/>
     <use xlink:href="#mca0045fbe9" x="241.334392" y="184.621842" style="fill: #ff7f0e; stroke: #ff7f0e; stroke-linejoin: miter"/>
     <use xlink:href="#mca0045fbe9" x="243.3459" y="189.632519" style="fill: #ff7f0e; stroke: #ff7f0e; stroke-linejoin: miter"/>
     <use xlink:href="#mca0045fbe9" x="243.519501" y="187.605728" style="fill: #ff7f0e; stroke: #ff7f0e; stroke-linejoin: miter"/>
     <use xlink:href="#mca0045fbe9" x="243.748743" y="185.635237" style="fill: #ff7f0e; stroke: #ff7f0e; stroke-linejoin: miter"/>
     <use xlink:href="#mca0045fbe9" x="244.777401" y="191.828209" style="fill: #ff7f0e; stroke: #ff7f0e; stroke-linejoin: miter"/>
     <use xlink:href="#mca0045fbe9" x="244.966433" y="189.857718" style="fill: #ff7f0e; stroke: #ff7f0e; stroke-linejoin: miter"/>
     <use xlink:href="#mca0045fbe9" x="245.233542" y="194.586897" style="fill: #ff7f0e; stroke: #ff7f0e; stroke-linejoin: miter"/>
     <use xlink:href="#mca0045fbe9" x="246.014939" y="196.444788" style="fill: #ff7f0e; stroke: #ff7f0e; stroke-linejoin: miter"/>
     <use xlink:href="#mca0045fbe9" x="246.520067" y="194.474297" style="fill: #ff7f0e; stroke: #ff7f0e; stroke-linejoin: miter"/>
     <use xlink:href="#mca0045fbe9" x="246.964458" y="192.560106" style="fill: #ff7f0e; stroke: #ff7f0e; stroke-linejoin: miter"/>
     <use xlink:href="#mca0045fbe9" x="247.942676" y="194.586897" style="fill: #ff7f0e; stroke: #ff7f0e; stroke-linejoin: miter"/>
     <use xlink:href="#mca0045fbe9" x="248.562692" y="199.428675" style="fill: #ff7f0e; stroke: #ff7f0e; stroke-linejoin: miter"/>
     <use xlink:href="#mca0045fbe9" x="249.707245" y="198.415279" style="fill: #ff7f0e; stroke: #ff7f0e; stroke-linejoin: miter"/>
     <use xlink:href="#mca0045fbe9" x="251.234834" y="202.356261" style="fill: #ff7f0e; stroke: #ff7f0e; stroke-linejoin: miter"/>
     <use xlink:href="#mca0045fbe9" x="251.432944" y="207.198039" style="fill: #ff7f0e; stroke: #ff7f0e; stroke-linejoin: miter"/>
     <use xlink:href="#mca0045fbe9" x="252.339661" y="205.227548" style="fill: #ff7f0e; stroke: #ff7f0e; stroke-linejoin: miter"/>
     <use xlink:href="#mca0045fbe9" x="252.377385" y="209.900427" style="fill: #ff7f0e; stroke: #ff7f0e; stroke-linejoin: miter"/>
     <use xlink:href="#mca0045fbe9" x="253.406851" y="215.192603" style="fill: #ff7f0e; stroke: #ff7f0e; stroke-linejoin: miter"/>
     <use xlink:href="#mca0045fbe9" x="253.567664" y="213.72881" style="fill: #ff7f0e; stroke: #ff7f0e; stroke-linejoin: miter"/>
     <use xlink:href="#mca0045fbe9" x="253.83296" y="211.870918" style="fill: #ff7f0e; stroke: #ff7f0e; stroke-linejoin: miter"/>
     <use xlink:href="#mca0045fbe9" x="254.007968" y="212.546515" style="fill: #ff7f0e; stroke: #ff7f0e; stroke-linejoin: miter"/>
     <use xlink:href="#mca0045fbe9" x="255.061428" y="211.195321" style="fill: #ff7f0e; stroke: #ff7f0e; stroke-linejoin: miter"/>
     <use xlink:href="#mca0045fbe9" x="255.568856" y="209.393729" style="fill: #ff7f0e; stroke: #ff7f0e; stroke-linejoin: miter"/>
     <use xlink:href="#mca0045fbe9" x="256.143045" y="211.702019" style="fill: #ff7f0e; stroke: #ff7f0e; stroke-linejoin: miter"/>
     <use xlink:href="#mca0045fbe9" x="256.36214" y="209.956727" style="fill: #ff7f0e; stroke: #ff7f0e; stroke-linejoin: miter"/>
     <use xlink:href="#mca0045fbe9" x="256.60975" y="214.573306" style="fill: #ff7f0e; stroke: #ff7f0e; stroke-linejoin: miter"/>
     <use xlink:href="#mca0045fbe9" x="256.717161" y="212.771714" style="fill: #ff7f0e; stroke: #ff7f0e; stroke-linejoin: miter"/>
     <use xlink:href="#mca0045fbe9" x="257.171334" y="210.857523" style="fill: #ff7f0e; stroke: #ff7f0e; stroke-linejoin: miter"/>
     <use xlink:href="#mca0045fbe9" x="257.732778" y="208.830732" style="fill: #ff7f0e; stroke: #ff7f0e; stroke-linejoin: miter"/>
     <use xlink:href="#mca0045fbe9" x="258.022317" y="207.198039" style="fill: #ff7f0e; stroke: #ff7f0e; stroke-linejoin: miter"/>
     <use xlink:href="#mca0045fbe9" x="259.14188" y="205.452747" style="fill: #ff7f0e; stroke: #ff7f0e; stroke-linejoin: miter"/>
     <use xlink:href="#mca0045fbe9" x="259.304751" y="203.707455" style="fill: #ff7f0e; stroke: #ff7f0e; stroke-linejoin: miter"/>
     <use xlink:href="#mca0045fbe9" x="260.384908" y="202.018463" style="fill: #ff7f0e; stroke: #ff7f0e; stroke-linejoin: miter"/>
     <use xlink:href="#mca0045fbe9" x="261.079283" y="202.131062" style="fill: #ff7f0e; stroke: #ff7f0e; stroke-linejoin: miter"/>
     <use xlink:href="#mca0045fbe9" x="261.153653" y="201.005068" style="fill: #ff7f0e; stroke: #ff7f0e; stroke-linejoin: miter"/>
     <use xlink:href="#mca0045fbe9" x="261.301603" y="199.541274" style="fill: #ff7f0e; stroke: #ff7f0e; stroke-linejoin: miter"/>
     <use xlink:href="#mca0045fbe9" x="263.580441" y="199.541274" style="fill: #ff7f0e; stroke: #ff7f0e; stroke-linejoin: miter"/>
     <use xlink:href="#mca0045fbe9" x="265.28237" y="197.964881" style="fill: #ff7f0e; stroke: #ff7f0e; stroke-linejoin: miter"/>
     <use xlink:href="#mca0045fbe9" x="265.353309" y="196.557388" style="fill: #ff7f0e; stroke: #ff7f0e; stroke-linejoin: miter"/>
     <use xlink:href="#mca0045fbe9" x="268.169215" y="198.415279" style="fill: #ff7f0e; stroke: #ff7f0e; stroke-linejoin: miter"/>
     <use xlink:href="#mca0045fbe9" x="272.746248" y="197.120385" style="fill: #ff7f0e; stroke: #ff7f0e; stroke-linejoin: miter"/>
     <use xlink:href="#mca0045fbe9" x="272.845383" y="195.825491" style="fill: #ff7f0e; stroke: #ff7f0e; stroke-linejoin: miter"/>
     <use xlink:href="#mca0045fbe9" x="274.449286" y="194.474297" style="fill: #ff7f0e; stroke: #ff7f0e; stroke-linejoin: miter"/>
     <use xlink:href="#mca0045fbe9" x="275.276519" y="192.897904" style="fill: #ff7f0e; stroke: #ff7f0e; stroke-linejoin: miter"/>
     <use xlink:href="#mca0045fbe9" x="278.362496" y="191.321512" style="fill: #ff7f0e; stroke: #ff7f0e; stroke-linejoin: miter"/>
     <use xlink:href="#mca0045fbe9" x="279.019038" y="190.082917" style="fill: #ff7f0e; stroke: #ff7f0e; stroke-linejoin: miter"/>
     <use xlink:href="#mca0045fbe9" x="281.822344" y="188.731723" style="fill: #ff7f0e; stroke: #ff7f0e; stroke-linejoin: miter"/>
     <use xlink:href="#mca0045fbe9" x="286.887616" y="187.26793" style="fill: #ff7f0e; stroke: #ff7f0e; stroke-linejoin: miter"/>
     <use xlink:href="#mca0045fbe9" x="287.786854" y="186.085635" style="fill: #ff7f0e; stroke: #ff7f0e; stroke-linejoin: miter"/>
     <use xlink:href="#mca0045fbe9" x="295.586012" y="184.678142" style="fill: #ff7f0e; stroke: #ff7f0e; stroke-linejoin: miter"/>
     <use xlink:href="#mca0045fbe9" x="314.524134" y="183.383248" style="fill: #ff7f0e; stroke: #ff7f0e; stroke-linejoin: miter"/>
    </g>
   </g>
   <g id="line2d_16">
    <path d="M 60.013977 43.534684 
L 254.198797 43.534684 
L 258.742946 43.534684 
L 268.397782 82.944504 
L 270.109196 149.434502 
L 270.95369 137.048558 
L 271.061697 127.9843 
L 271.276049 141.10214 
L 272.126716 170.040208 
L 273.912579 164.297634 
L 274.106324 155.852673 
L 274.344361 186.536033 
L 275.163043 207.704737 
L 275.451822 210.744923 
L 277.134047 204.495652 
L 279.640251 196.951486 
L 279.655547 204.439352 
L 280.273207 222.230071 
L 280.679903 214.573306 
L 282.218232 230.956531 
L 283.152587 236.924304 
L 284.832954 249.253948 
L 285.011134 243.961772 
L 286.336259 238.444397 
L 287.91417 232.476624 
L 288.271298 225.720655 
L 288.757927 219.415084 
L 289.29135 214.179208 
L 289.438551 222.004872 
L 289.581554 225.776955 
L 289.973715 234.559715 
L 290.462125 239.96449 
L 290.516703 234.221916 
L 291.081311 232.701823 
L 291.107819 228.028945 
L 291.207659 226.621451 
L 291.298277 222.39897 
L 292.96265 217.050495 
L 293.383882 213.278412 
L 294.551459 208.887032 
L 294.616245 208.042536 
L 294.880763 204.664551 
L 295.010555 202.299962 
L 296.062625 198.021181 
L 297.01101 194.755796 
L 297.607918 193.9676 
L 297.663885 201.511765 
L 299.358104 206.240944 
L 299.842008 213.053213 
L 299.890367 219.865482 
L 300.16675 217.669792 
L 300.299792 215.417802 
L 300.972751 211.983518 
L 301.177199 209.28113 
L 301.958035 208.098835 
L 301.999987 205.509047 
L 304.019014 202.806659 
L 304.880739 202.018463 
L 305.527684 201.511765 
L 306.220886 199.147176 
L 306.313396 204.720851 
L 307.09522 203.482256 
L 307.23835 201.286566 
L 308.75877 202.018463 
L 310.497878 207.479538 
L 310.748515 205.058649 
L 310.954155 210.350825 
L 311.180292 214.460706 
L 314.058162 219.302484 
L 315.13029 216.825296 
L 315.91562 215.192603 
L 315.987193 219.978081 
L 316.105642 217.669792 
L 316.41855 216.037099 
L 319.173158 213.61621 
L 319.199206 213.841409 
L 319.849737 214.798505 
L 321.051631 219.189885 
L 321.549389 218.176489 
L 321.968604 221.779673 
L 322.372987 219.865482 
L 322.544574 217.95129 
L 322.615546 216.093399 
L 322.623993 214.291807 
L 323.195665 216.937895 
L 323.32926 215.136303 
L 324.139946 213.391011 
L 326.319783 211.983518 
L 327.283376 210.125626 
L 327.802781 214.010308 
L 328.640388 212.828014 
L 328.785967 211.195321 
L 329.316886 211.814618 
L 329.981268 210.069326 
L 330.155886 208.549233 
L 331.949876 206.466143 
L 333.12569 209.33743 
L 334.114767 211.814618 
L 334.807681 211.47682 
L 339.800552 209.844127 
L 340.095917 208.380334 
L 340.600413 206.97284 
L 343.860506 205.621647 
L 344.153999 204.214153 
L 345.370395 202.75036 
L 345.490372 201.399166 
L 351.087071 199.653874 
L 354.093254 198.24638 
L 359.740858 196.838886 
L 384.668523 195.487693 
" clip-path="url(#p31675777ec)" style="fill: none; stroke-dasharray: 5.55,2.4; stroke-dashoffset: 0; stroke: #2ca02c; stroke-width: 1.5"/>
    <defs>
     <path id="mf55de84b4e" d="M -0 1.5 
L 1.5 -1.5 
L -1.5 -1.5 
z
" style="stroke: #2ca02c; stroke-linejoin: miter"/>
    </defs>
    <g clip-path="url(#p31675777ec)">
     <use xlink:href="#mf55de84b4e" x="60.013977" y="43.534684" style="fill: #2ca02c; stroke: #2ca02c; stroke-linejoin: miter"/>
     <use xlink:href="#mf55de84b4e" x="254.198797" y="43.534684" style="fill: #2ca02c; stroke: #2ca02c; stroke-linejoin: miter"/>
     <use xlink:href="#mf55de84b4e" x="258.742946" y="43.534684" style="fill: #2ca02c; stroke: #2ca02c; stroke-linejoin: miter"/>
     <use xlink:href="#mf55de84b4e" x="268.397782" y="82.944504" style="fill: #2ca02c; stroke: #2ca02c; stroke-linejoin: miter"/>
     <use xlink:href="#mf55de84b4e" x="270.109196" y="149.434502" style="fill: #2ca02c; stroke: #2ca02c; stroke-linejoin: miter"/>
     <use xlink:href="#mf55de84b4e" x="270.95369" y="137.048558" style="fill: #2ca02c; stroke: #2ca02c; stroke-linejoin: miter"/>
     <use xlink:href="#mf55de84b4e" x="271.061697" y="127.9843" style="fill: #2ca02c; stroke: #2ca02c; stroke-linejoin: miter"/>
     <use xlink:href="#mf55de84b4e" x="271.276049" y="141.10214" style="fill: #2ca02c; stroke: #2ca02c; stroke-linejoin: miter"/>
     <use xlink:href="#mf55de84b4e" x="272.126716" y="170.040208" style="fill: #2ca02c; stroke: #2ca02c; stroke-linejoin: miter"/>
     <use xlink:href="#mf55de84b4e" x="273.912579" y="164.297634" style="fill: #2ca02c; stroke: #2ca02c; stroke-linejoin: miter"/>
     <use xlink:href="#mf55de84b4e" x="274.106324" y="155.852673" style="fill: #2ca02c; stroke: #2ca02c; stroke-linejoin: miter"/>
     <use xlink:href="#mf55de84b4e" x="274.344361" y="186.536033" style="fill: #2ca02c; stroke: #2ca02c; stroke-linejoin: miter"/>
     <use xlink:href="#mf55de84b4e" x="275.163043" y="207.704737" style="fill: #2ca02c; stroke: #2ca02c; stroke-linejoin: miter"/>
     <use xlink:href="#mf55de84b4e" x="275.451822" y="210.744923" style="fill: #2ca02c; stroke: #2ca02c; stroke-linejoin: miter"/>
     <use xlink:href="#mf55de84b4e" x="277.134047" y="204.495652" style="fill: #2ca02c; stroke: #2ca02c; stroke-linejoin: miter"/>
     <use xlink:href="#mf55de84b4e" x="279.640251" y="196.951486" style="fill: #2ca02c; stroke: #2ca02c; stroke-linejoin: miter"/>
     <use xlink:href="#mf55de84b4e" x="279.655547" y="204.439352" style="fill: #2ca02c; stroke: #2ca02c; stroke-linejoin: miter"/>
     <use xlink:href="#mf55de84b4e" x="280.273207" y="222.230071" style="fill: #2ca02c; stroke: #2ca02c; stroke-linejoin: miter"/>
     <use xlink:href="#mf55de84b4e" x="280.679903" y="214.573306" style="fill: #2ca02c; stroke: #2ca02c; stroke-linejoin: miter"/>
     <use xlink:href="#mf55de84b4e" x="282.218232" y="230.956531" style="fill: #2ca02c; stroke: #2ca02c; stroke-linejoin: miter"/>
     <use xlink:href="#mf55de84b4e" x="283.152587" y="236.924304" style="fill: #2ca02c; stroke: #2ca02c; stroke-linejoin: miter"/>
     <use xlink:href="#mf55de84b4e" x="284.832954" y="249.253948" style="fill: #2ca02c; stroke: #2ca02c; stroke-linejoin: miter"/>
     <use xlink:href="#mf55de84b4e" x="285.011134" y="243.961772" style="fill: #2ca02c; stroke: #2ca02c; stroke-linejoin: miter"/>
     <use xlink:href="#mf55de84b4e" x="286.336259" y="238.444397" style="fill: #2ca02c; stroke: #2ca02c; stroke-linejoin: miter"/>
     <use xlink:href="#mf55de84b4e" x="287.91417" y="232.476624" style="fill: #2ca02c; stroke: #2ca02c; stroke-linejoin: miter"/>
     <use xlink:href="#mf55de84b4e" x="288.271298" y="225.720655" style="fill: #2ca02c; stroke: #2ca02c; stroke-linejoin: miter"/>
     <use xlink:href="#mf55de84b4e" x="288.757927" y="219.415084" style="fill: #2ca02c; stroke: #2ca02c; stroke-linejoin: miter"/>
     <use xlink:href="#mf55de84b4e" x="289.29135" y="214.179208" style="fill: #2ca02c; stroke: #2ca02c; stroke-linejoin: miter"/>
     <use xlink:href="#mf55de84b4e" x="289.438551" y="222.004872" style="fill: #2ca02c; stroke: #2ca02c; stroke-linejoin: miter"/>
     <use xlink:href="#mf55de84b4e" x="289.581554" y="225.776955" style="fill: #2ca02c; stroke: #2ca02c; stroke-linejoin: miter"/>
     <use xlink:href="#mf55de84b4e" x="289.973715" y="234.559715" style="fill: #2ca02c; stroke: #2ca02c; stroke-linejoin: miter"/>
     <use xlink:href="#mf55de84b4e" x="290.462125" y="239.96449" style="fill: #2ca02c; stroke: #2ca02c; stroke-linejoin: miter"/>
     <use xlink:href="#mf55de84b4e" x="290.516703" y="234.221916" style="fill: #2ca02c; stroke: #2ca02c; stroke-linejoin: miter"/>
     <use xlink:href="#mf55de84b4e" x="291.081311" y="232.701823" style="fill: #2ca02c; stroke: #2ca02c; stroke-linejoin: miter"/>
     <use xlink:href="#mf55de84b4e" x="291.107819" y="228.028945" style="fill: #2ca02c; stroke: #2ca02c; stroke-linejoin: miter"/>
     <use xlink:href="#mf55de84b4e" x="291.207659" y="226.621451" style="fill: #2ca02c; stroke: #2ca02c; stroke-linejoin: miter"/>
     <use xlink:href="#mf55de84b4e" x="291.298277" y="222.39897" style="fill: #2ca02c; stroke: #2ca02c; stroke-linejoin: miter"/>
     <use xlink:href="#mf55de84b4e" x="292.96265" y="217.050495" style="fill: #2ca02c; stroke: #2ca02c; stroke-linejoin: miter"/>
     <use xlink:href="#mf55de84b4e" x="293.383882" y="213.278412" style="fill: #2ca02c; stroke: #2ca02c; stroke-linejoin: miter"/>
     <use xlink:href="#mf55de84b4e" x="294.551459" y="208.887032" style="fill: #2ca02c; stroke: #2ca02c; stroke-linejoin: miter"/>
     <use xlink:href="#mf55de84b4e" x="294.616245" y="208.042536" style="fill: #2ca02c; stroke: #2ca02c; stroke-linejoin: miter"/>
     <use xlink:href="#mf55de84b4e" x="294.880763" y="204.664551" style="fill: #2ca02c; stroke: #2ca02c; stroke-linejoin: miter"/>
     <use xlink:href="#mf55de84b4e" x="295.010555" y="202.299962" style="fill: #2ca02c; stroke: #2ca02c; stroke-linejoin: miter"/>
     <use xlink:href="#mf55de84b4e" x="296.062625" y="198.021181" style="fill: #2ca02c; stroke: #2ca02c; stroke-linejoin: miter"/>
     <use xlink:href="#mf55de84b4e" x="297.01101" y="194.755796" style="fill: #2ca02c; stroke: #2ca02c; stroke-linejoin: miter"/>
     <use xlink:href="#mf55de84b4e" x="297.607918" y="193.9676" style="fill: #2ca02c; stroke: #2ca02c; stroke-linejoin: miter"/>
     <use xlink:href="#mf55de84b4e" x="297.663885" y="201.511765" style="fill: #2ca02c; stroke: #2ca02c; stroke-linejoin: miter"/>
     <use xlink:href="#mf55de84b4e" x="299.358104" y="206.240944" style="fill: #2ca02c; stroke: #2ca02c; stroke-linejoin: miter"/>
     <use xlink:href="#mf55de84b4e" x="299.842008" y="213.053213" style="fill: #2ca02c; stroke: #2ca02c; stroke-linejoin: miter"/>
     <use xlink:href="#mf55de84b4e" x="299.890367" y="219.865482" style="fill: #2ca02c; stroke: #2ca02c; stroke-linejoin: miter"/>
     <use xlink:href="#mf55de84b4e" x="300.16675" y="217.669792" style="fill: #2ca02c; stroke: #2ca02c; stroke-linejoin: miter"/>
     <use xlink:href="#mf55de84b4e" x="300.299792" y="215.417802" style="fill: #2ca02c; stroke: #2ca02c; stroke-linejoin: miter"/>
     <use xlink:href="#mf55de84b4e" x="300.972751" y="211.983518" style="fill: #2ca02c; stroke: #2ca02c; stroke-linejoin: miter"/>
     <use xlink:href="#mf55de84b4e" x="301.177199" y="209.28113" style="fill: #2ca02c; stroke: #2ca02c; stroke-linejoin: miter"/>
     <use xlink:href="#mf55de84b4e" x="301.958035" y="208.098835" style="fill: #2ca02c; stroke: #2ca02c; stroke-linejoin: miter"/>
     <use xlink:href="#mf55de84b4e" x="301.999987" y="205.509047" style="fill: #2ca02c; stroke: #2ca02c; stroke-linejoin: miter"/>
     <use xlink:href="#mf55de84b4e" x="304.019014" y="202.806659" style="fill: #2ca02c; stroke: #2ca02c; stroke-linejoin: miter"/>
     <use xlink:href="#mf55de84b4e" x="304.880739" y="202.018463" style="fill: #2ca02c; stroke: #2ca02c; stroke-linejoin: miter"/>
     <use xlink:href="#mf55de84b4e" x="305.527684" y="201.511765" style="fill: #2ca02c; stroke: #2ca02c; stroke-linejoin: miter"/>
     <use xlink:href="#mf55de84b4e" x="306.220886" y="199.147176" style="fill: #2ca02c; stroke: #2ca02c; stroke-linejoin: miter"/>
     <use xlink:href="#mf55de84b4e" x="306.313396" y="204.720851" style="fill: #2ca02c; stroke: #2ca02c; stroke-linejoin: miter"/>
     <use xlink:href="#mf55de84b4e" x="307.09522" y="203.482256" style="fill: #2ca02c; stroke: #2ca02c; stroke-linejoin: miter"/>
     <use xlink:href="#mf55de84b4e" x="307.23835" y="201.286566" style="fill: #2ca02c; stroke: #2ca02c; stroke-linejoin: miter"/>
     <use xlink:href="#mf55de84b4e" x="308.75877" y="202.018463" style="fill: #2ca02c; stroke: #2ca02c; stroke-linejoin: miter"/>
     <use xlink:href="#mf55de84b4e" x="310.497878" y="207.479538" style="fill: #2ca02c; stroke: #2ca02c; stroke-linejoin: miter"/>
     <use xlink:href="#mf55de84b4e" x="310.748515" y="205.058649" style="fill: #2ca02c; stroke: #2ca02c; stroke-linejoin: miter"/>
     <use xlink:href="#mf55de84b4e" x="310.954155" y="210.350825" style="fill: #2ca02c; stroke: #2ca02c; stroke-linejoin: miter"/>
     <use xlink:href="#mf55de84b4e" x="311.180292" y="214.460706" style="fill: #2ca02c; stroke: #2ca02c; stroke-linejoin: miter"/>
     <use xlink:href="#mf55de84b4e" x="314.058162" y="219.302484" style="fill: #2ca02c; stroke: #2ca02c; stroke-linejoin: miter"/>
     <use xlink:href="#mf55de84b4e" x="315.13029" y="216.825296" style="fill: #2ca02c; stroke: #2ca02c; stroke-linejoin: miter"/>
     <use xlink:href="#mf55de84b4e" x="315.91562" y="215.192603" style="fill: #2ca02c; stroke: #2ca02c; stroke-linejoin: miter"/>
     <use xlink:href="#mf55de84b4e" x="315.987193" y="219.978081" style="fill: #2ca02c; stroke: #2ca02c; stroke-linejoin: miter"/>
     <use xlink:href="#mf55de84b4e" x="316.105642" y="217.669792" style="fill: #2ca02c; stroke: #2ca02c; stroke-linejoin: miter"/>
     <use xlink:href="#mf55de84b4e" x="316.41855" y="216.037099" style="fill: #2ca02c; stroke: #2ca02c; stroke-linejoin: miter"/>
     <use xlink:href="#mf55de84b4e" x="319.173158" y="213.61621" style="fill: #2ca02c; stroke: #2ca02c; stroke-linejoin: miter"/>
     <use xlink:href="#mf55de84b4e" x="319.199206" y="213.841409" style="fill: #2ca02c; stroke: #2ca02c; stroke-linejoin: miter"/>
     <use xlink:href="#mf55de84b4e" x="319.849737" y="214.798505" style="fill: #2ca02c; stroke: #2ca02c; stroke-linejoin: miter"/>
     <use xlink:href="#mf55de84b4e" x="321.051631" y="219.189885" style="fill: #2ca02c; stroke: #2ca02c; stroke-linejoin: miter"/>
     <use xlink:href="#mf55de84b4e" x="321.549389" y="218.176489" style="fill: #2ca02c; stroke: #2ca02c; stroke-linejoin: miter"/>
     <use xlink:href="#mf55de84b4e" x="321.968604" y="221.779673" style="fill: #2ca02c; stroke: #2ca02c; stroke-linejoin: miter"/>
     <use xlink:href="#mf55de84b4e" x="322.372987" y="219.865482" style="fill: #2ca02c; stroke: #2ca02c; stroke-linejoin: miter"/>
     <use xlink:href="#mf55de84b4e" x="322.544574" y="217.95129" style="fill: #2ca02c; stroke: #2ca02c; stroke-linejoin: miter"/>
     <use xlink:href="#mf55de84b4e" x="322.615546" y="216.093399" style="fill: #2ca02c; stroke: #2ca02c; stroke-linejoin: miter"/>
     <use xlink:href="#mf55de84b4e" x="322.623993" y="214.291807" style="fill: #2ca02c; stroke: #2ca02c; stroke-linejoin: miter"/>
     <use xlink:href="#mf55de84b4e" x="323.195665" y="216.937895" style="fill: #2ca02c; stroke: #2ca02c; stroke-linejoin: miter"/>
     <use xlink:href="#mf55de84b4e" x="323.32926" y="215.136303" style="fill: #2ca02c; stroke: #2ca02c; stroke-linejoin: miter"/>
     <use xlink:href="#mf55de84b4e" x="324.139946" y="213.391011" style="fill: #2ca02c; stroke: #2ca02c; stroke-linejoin: miter"/>
     <use xlink:href="#mf55de84b4e" x="326.319783" y="211.983518" style="fill: #2ca02c; stroke: #2ca02c; stroke-linejoin: miter"/>
     <use xlink:href="#mf55de84b4e" x="327.283376" y="210.125626" style="fill: #2ca02c; stroke: #2ca02c; stroke-linejoin: miter"/>
     <use xlink:href="#mf55de84b4e" x="327.802781" y="214.010308" style="fill: #2ca02c; stroke: #2ca02c; stroke-linejoin: miter"/>
     <use xlink:href="#mf55de84b4e" x="328.640388" y="212.828014" style="fill: #2ca02c; stroke: #2ca02c; stroke-linejoin: miter"/>
     <use xlink:href="#mf55de84b4e" x="328.785967" y="211.195321" style="fill: #2ca02c; stroke: #2ca02c; stroke-linejoin: miter"/>
     <use xlink:href="#mf55de84b4e" x="329.316886" y="211.814618" style="fill: #2ca02c; stroke: #2ca02c; stroke-linejoin: miter"/>
     <use xlink:href="#mf55de84b4e" x="329.981268" y="210.069326" style="fill: #2ca02c; stroke: #2ca02c; stroke-linejoin: miter"/>
     <use xlink:href="#mf55de84b4e" x="330.155886" y="208.549233" style="fill: #2ca02c; stroke: #2ca02c; stroke-linejoin: miter"/>
     <use xlink:href="#mf55de84b4e" x="331.949876" y="206.466143" style="fill: #2ca02c; stroke: #2ca02c; stroke-linejoin: miter"/>
     <use xlink:href="#mf55de84b4e" x="333.12569" y="209.33743" style="fill: #2ca02c; stroke: #2ca02c; stroke-linejoin: miter"/>
     <use xlink:href="#mf55de84b4e" x="334.114767" y="211.814618" style="fill: #2ca02c; stroke: #2ca02c; stroke-linejoin: miter"/>
     <use xlink:href="#mf55de84b4e" x="334.807681" y="211.47682" style="fill: #2ca02c; stroke: #2ca02c; stroke-linejoin: miter"/>
     <use xlink:href="#mf55de84b4e" x="339.800552" y="209.844127" style="fill: #2ca02c; stroke: #2ca02c; stroke-linejoin: miter"/>
     <use xlink:href="#mf55de84b4e" x="340.095917" y="208.380334" style="fill: #2ca02c; stroke: #2ca02c; stroke-linejoin: miter"/>
     <use xlink:href="#mf55de84b4e" x="340.600413" y="206.97284" style="fill: #2ca02c; stroke: #2ca02c; stroke-linejoin: miter"/>
     <use xlink:href="#mf55de84b4e" x="343.860506" y="205.621647" style="fill: #2ca02c; stroke: #2ca02c; stroke-linejoin: miter"/>
     <use xlink:href="#mf55de84b4e" x="344.153999" y="204.214153" style="fill: #2ca02c; stroke: #2ca02c; stroke-linejoin: miter"/>
     <use xlink:href="#mf55de84b4e" x="345.370395" y="202.75036" style="fill: #2ca02c; stroke: #2ca02c; stroke-linejoin: miter"/>
     <use xlink:href="#mf55de84b4e" x="345.490372" y="201.399166" style="fill: #2ca02c; stroke: #2ca02c; stroke-linejoin: miter"/>
     <use xlink:href="#mf55de84b4e" x="351.087071" y="199.653874" style="fill: #2ca02c; stroke: #2ca02c; stroke-linejoin: miter"/>
     <use xlink:href="#mf55de84b4e" x="354.093254" y="198.24638" style="fill: #2ca02c; stroke: #2ca02c; stroke-linejoin: miter"/>
     <use xlink:href="#mf55de84b4e" x="359.740858" y="196.838886" style="fill: #2ca02c; stroke: #2ca02c; stroke-linejoin: miter"/>
     <use xlink:href="#mf55de84b4e" x="384.668523" y="195.487693" style="fill: #2ca02c; stroke: #2ca02c; stroke-linejoin: miter"/>
    </g>
   </g>
   <g id="patch_3">
    <path d="M 43.78125 288.430125 
L 43.78125 22.318125 
" style="fill: none; stroke: #000000; stroke-width: 0.8; stroke-linejoin: miter; stroke-linecap: square"/>
   </g>
   <g id="patch_4">
    <path d="M 400.90125 288.430125 
L 400.90125 22.318125 
" style="fill: none; stroke: #000000; stroke-width: 0.8; stroke-linejoin: miter; stroke-linecap: square"/>
   </g>
   <g id="patch_5">
    <path d="M 43.78125 288.430125 
L 400.90125 288.430125 
" style="fill: none; stroke: #000000; stroke-width: 0.8; stroke-linejoin: miter; stroke-linecap: square"/>
   </g>
   <g id="patch_6">
    <path d="M 43.78125 22.318125 
L 400.90125 22.318125 
" style="fill: none; stroke: #000000; stroke-width: 0.8; stroke-linejoin: miter; stroke-linecap: square"/>
   </g>
   <g id="text_16">
    <!-- PROTEINS -->
    <g transform="translate(192.3075 16.318125) scale(0.12 -0.12)">
     <defs>
      <path id="DejaVuSans-50" d="M 1259 4147 
L 1259 2394 
L 2053 2394 
Q 2494 2394 2734 2622 
Q 2975 2850 2975 3272 
Q 2975 3691 2734 3919 
Q 2494 4147 2053 4147 
L 1259 4147 
z
M 628 4666 
L 2053 4666 
Q 2838 4666 3239 4311 
Q 3641 3956 3641 3272 
Q 3641 2581 3239 2228 
Q 2838 1875 2053 1875 
L 1259 1875 
L 1259 0 
L 628 0 
L 628 4666 
z
" transform="scale(0.015625)"/>
      <path id="DejaVuSans-52" d="M 2841 2188 
Q 3044 2119 3236 1894 
Q 3428 1669 3622 1275 
L 4263 0 
L 3584 0 
L 2988 1197 
Q 2756 1666 2539 1819 
Q 2322 1972 1947 1972 
L 1259 1972 
L 1259 0 
L 628 0 
L 628 4666 
L 2053 4666 
Q 2853 4666 3247 4331 
Q 3641 3997 3641 3322 
Q 3641 2881 3436 2590 
Q 3231 2300 2841 2188 
z
M 1259 4147 
L 1259 2491 
L 2053 2491 
Q 2509 2491 2742 2702 
Q 2975 2913 2975 3322 
Q 2975 3731 2742 3939 
Q 2509 4147 2053 4147 
L 1259 4147 
z
" transform="scale(0.015625)"/>
      <path id="DejaVuSans-4f" d="M 2522 4238 
Q 1834 4238 1429 3725 
Q 1025 3213 1025 2328 
Q 1025 1447 1429 934 
Q 1834 422 2522 422 
Q 3209 422 3611 934 
Q 4013 1447 4013 2328 
Q 4013 3213 3611 3725 
Q 3209 4238 2522 4238 
z
M 2522 4750 
Q 3503 4750 4090 4092 
Q 4678 3434 4678 2328 
Q 4678 1225 4090 567 
Q 3503 -91 2522 -91 
Q 1538 -91 948 565 
Q 359 1222 359 2328 
Q 359 3434 948 4092 
Q 1538 4750 2522 4750 
z
" transform="scale(0.015625)"/>
      <path id="DejaVuSans-45" d="M 628 4666 
L 3578 4666 
L 3578 4134 
L 1259 4134 
L 1259 2753 
L 3481 2753 
L 3481 2222 
L 1259 2222 
L 1259 531 
L 3634 531 
L 3634 0 
L 628 0 
L 628 4666 
z
" transform="scale(0.015625)"/>
      <path id="DejaVuSans-49" d="M 628 4666 
L 1259 4666 
L 1259 0 
L 628 0 
L 628 4666 
z
" transform="scale(0.015625)"/>
      <path id="DejaVuSans-4e" d="M 628 4666 
L 1478 4666 
L 3547 763 
L 3547 4666 
L 4159 4666 
L 4159 0 
L 3309 0 
L 1241 3903 
L 1241 0 
L 628 0 
L 628 4666 
z
" transform="scale(0.015625)"/>
      <path id="DejaVuSans-53" d="M 3425 4513 
L 3425 3897 
Q 3066 4069 2747 4153 
Q 2428 4238 2131 4238 
Q 1616 4238 1336 4038 
Q 1056 3838 1056 3469 
Q 1056 3159 1242 3001 
Q 1428 2844 1947 2747 
L 2328 2669 
Q 3034 2534 3370 2195 
Q 3706 1856 3706 1288 
Q 3706 609 3251 259 
Q 2797 -91 1919 -91 
Q 1588 -91 1214 -16 
Q 841 59 441 206 
L 441 856 
Q 825 641 1194 531 
Q 1563 422 1919 422 
Q 2459 422 2753 634 
Q 3047 847 3047 1241 
Q 3047 1584 2836 1778 
Q 2625 1972 2144 2069 
L 1759 2144 
Q 1053 2284 737 2584 
Q 422 2884 422 3419 
Q 422 4038 858 4394 
Q 1294 4750 2059 4750 
Q 2388 4750 2728 4690 
Q 3069 4631 3425 4513 
z
" transform="scale(0.015625)"/>
     </defs>
     <use xlink:href="#DejaVuSans-50"/>
     <use xlink:href="#DejaVuSans-52" x="60.302734"/>
     <use xlink:href="#DejaVuSans-4f" x="129.785156"/>
     <use xlink:href="#DejaVuSans-54" x="208.496094"/>
     <use xlink:href="#DejaVuSans-45" x="269.580078"/>
     <use xlink:href="#DejaVuSans-49" x="332.763672"/>
     <use xlink:href="#DejaVuSans-4e" x="362.255859"/>
     <use xlink:href="#DejaVuSans-53" x="437.060547"/>
    </g>
   </g>
   <g id="legend_1">
    <g id="patch_7">
     <path d="M 351.223125 89.030625 
L 393.90125 89.030625 
Q 395.90125 89.030625 395.90125 87.030625 
L 395.90125 29.318125 
Q 395.90125 27.318125 393.90125 27.318125 
L 351.223125 27.318125 
Q 349.223125 27.318125 349.223125 29.318125 
L 349.223125 87.030625 
Q 349.223125 89.030625 351.223125 89.030625 
z
" style="fill: #ffffff; opacity: 0.8; stroke: #cccccc; stroke-linejoin: miter"/>
    </g>
    <g id="text_17">
     <!-- #layers -->
     <g transform="translate(353.223125 38.916562) scale(0.1 -0.1)">
      <defs>
       <path id="DejaVuSans-23" d="M 3272 2816 
L 2363 2816 
L 2100 1772 
L 3016 1772 
L 3272 2816 
z
M 2803 4594 
L 2478 3297 
L 3391 3297 
L 3719 4594 
L 4219 4594 
L 3897 3297 
L 4872 3297 
L 4872 2816 
L 3775 2816 
L 3519 1772 
L 4513 1772 
L 4513 1294 
L 3397 1294 
L 3072 0 
L 2572 0 
L 2894 1294 
L 1978 1294 
L 1656 0 
L 1153 0 
L 1478 1294 
L 494 1294 
L 494 1772 
L 1594 1772 
L 1856 2816 
L 850 2816 
L 850 3297 
L 1978 3297 
L 2297 4594 
L 2803 4594 
z
" transform="scale(0.015625)"/>
       <path id="DejaVuSans-6c" d="M 603 4863 
L 1178 4863 
L 1178 0 
L 603 0 
L 603 4863 
z
" transform="scale(0.015625)"/>
      </defs>
      <use xlink:href="#DejaVuSans-23"/>
      <use xlink:href="#DejaVuSans-6c" x="83.789062"/>
      <use xlink:href="#DejaVuSans-61" x="111.572266"/>
      <use xlink:href="#DejaVuSans-79" x="172.851562"/>
      <use xlink:href="#DejaVuSans-65" x="232.03125"/>
      <use xlink:href="#DejaVuSans-72" x="293.554688"/>
      <use xlink:href="#DejaVuSans-73" x="334.667969"/>
     </g>
    </g>
    <g id="line2d_17">
     <path d="M 355.380937 50.094688 
L 365.380937 50.094688 
L 375.380937 50.094688 
" style="fill: none; stroke: #1f77b4; stroke-width: 1.5; stroke-linecap: square"/>
     <g>
      <use xlink:href="#m8ceedd8e81" x="365.380937" y="50.094688" style="fill: #1f77b4; stroke: #1f77b4"/>
     </g>
    </g>
    <g id="text_18">
     <!-- 1 -->
     <g transform="translate(383.380937 53.594688) scale(0.1 -0.1)">
      <use xlink:href="#DejaVuSans-31"/>
     </g>
    </g>
    <g id="line2d_18">
     <path d="M 355.380937 64.772813 
L 365.380937 64.772813 
L 375.380937 64.772813 
" style="fill: none; stroke-dasharray: 1.5,2.475; stroke-dashoffset: 0; stroke: #ff7f0e; stroke-width: 1.5"/>
     <g>
      <use xlink:href="#mca0045fbe9" x="365.380937" y="64.772813" style="fill: #ff7f0e; stroke: #ff7f0e; stroke-linejoin: miter"/>
     </g>
    </g>
    <g id="text_19">
     <!-- 3 -->
     <g transform="translate(383.380937 68.272813) scale(0.1 -0.1)">
      <use xlink:href="#DejaVuSans-33"/>
     </g>
    </g>
    <g id="line2d_19">
     <path d="M 355.380937 79.450938 
L 365.380937 79.450938 
L 375.380937 79.450938 
" style="fill: none; stroke-dasharray: 5.55,2.4; stroke-dashoffset: 0; stroke: #2ca02c; stroke-width: 1.5"/>
     <g>
      <use xlink:href="#mf55de84b4e" x="365.380937" y="79.450938" style="fill: #2ca02c; stroke: #2ca02c; stroke-linejoin: miter"/>
     </g>
    </g>
    <g id="text_20">
     <!-- 5 -->
     <g transform="translate(383.380937 82.950938) scale(0.1 -0.1)">
      <use xlink:href="#DejaVuSans-35"/>
     </g>
    </g>
   </g>
  </g>
 </g>
 <defs>
  <clipPath id="p31675777ec">
   <rect x="43.78125" y="22.318125" width="357.12" height="266.112"/>
  </clipPath>
 </defs>
</svg>
