<?xml version="1.0" encoding="utf-8" standalone="no"?>
<!DOCTYPE svg PUBLIC "-//W3C//DTD SVG 1.1//EN"
  "http://www.w3.org/Graphics/SVG/1.1/DTD/svg11.dtd">
<svg xmlns:xlink="http://www.w3.org/1999/xlink" width="371.52pt" height="280.512pt" viewBox="0 0 371.52 280.512" xmlns="http://www.w3.org/2000/svg" version="1.1">
 <metadata>
  <rdf:RDF xmlns:dc="http://purl.org/dc/elements/1.1/" xmlns:cc="http://creativecommons.org/ns#" xmlns:rdf="http://www.w3.org/1999/02/22-rdf-syntax-ns#">
   <cc:Work>
    <dc:type rdf:resource="http://purl.org/dc/dcmitype/StillImage"/>
    <dc:date>2025-03-10T16:26:38.545825</dc:date>
    <dc:format>image/svg+xml</dc:format>
    <dc:creator>
     <cc:Agent>
      <dc:title>Matplotlib v3.9.0, https://matplotlib.org/</dc:title>
     </cc:Agent>
    </dc:creator>
   </cc:Work>
  </rdf:RDF>
 </metadata>
 <defs>
  <style type="text/css">*{stroke-linejoin: round; stroke-linecap: butt}</style>
 </defs>
 <g id="figure_1">
  <g id="patch_1">
   <path d="M 0 280.512 
L 371.52 280.512 
L 371.52 0 
L 0 0 
z
" style="fill: #ffffff"/>
  </g>
  <g id="axes_1">
   <g id="patch_2">
    <path d="M 7.2 273.312 
L 364.32 273.312 
L 364.32 7.2 
L 7.2 7.2 
z
" style="fill: #ffffff"/>
   </g>
   <g id="PathCollection_1">
    <defs>
     <path id="C0_0_b23641db86" d="M 0 1.581139 
C 0.419323 1.581139 0.821528 1.41454 1.118034 1.118034 
C 1.41454 0.821528 1.581139 0.419323 1.581139 -0 
C 1.581139 -0.419323 1.41454 -0.821528 1.118034 -1.118034 
C 0.821528 -1.41454 0.419323 -1.581139 0 -1.581139 
C -0.419323 -1.581139 -0.821528 -1.41454 -1.118034 -1.118034 
C -1.41454 -0.821528 -1.581139 -0.419323 -1.581139 0 
C -1.581139 0.419323 -1.41454 0.821528 -1.118034 1.118034 
C -0.821528 1.41454 -0.419323 1.581139 0 1.581139 
z
"/>
    </defs>
    <g clip-path="url(#paec34c92d4)">
     <use xlink:href="#C0_0_b23641db86" x="50.649742" y="171.143599" style="fill: #ff0000; fill-opacity: 0.5; stroke: #ff0000; stroke-opacity: 0.5"/>
    </g>
    <g clip-path="url(#paec34c92d4)">
     <use xlink:href="#C0_0_b23641db86" x="30.387037" y="174.305786" style="fill: #ff0000; fill-opacity: 0.5; stroke: #ff0000; stroke-opacity: 0.5"/>
    </g>
    <g clip-path="url(#paec34c92d4)">
     <use xlink:href="#C0_0_b23641db86" x="35.03818" y="176.635074" style="fill: #ff0000; fill-opacity: 0.5; stroke: #ff0000; stroke-opacity: 0.5"/>
    </g>
    <g clip-path="url(#paec34c92d4)">
     <use xlink:href="#C0_0_b23641db86" x="40.529678" y="193.417237" style="fill: #ff0000; fill-opacity: 0.5; stroke: #ff0000; stroke-opacity: 0.5"/>
    </g>
    <g clip-path="url(#paec34c92d4)">
     <use xlink:href="#C0_0_b23641db86" x="54.698217" y="185.548533" style="fill: #ff0000; fill-opacity: 0.5; stroke: #ff0000; stroke-opacity: 0.5"/>
    </g>
    <g clip-path="url(#paec34c92d4)">
     <use xlink:href="#C0_0_b23641db86" x="36.759785" y="188.074543" style="fill: #ff0000; fill-opacity: 0.5; stroke: #ff0000; stroke-opacity: 0.5"/>
    </g>
    <g clip-path="url(#paec34c92d4)">
     <use xlink:href="#C0_0_b23641db86" x="28.764192" y="191.059389" style="fill: #ff0000; fill-opacity: 0.5; stroke: #ff0000; stroke-opacity: 0.5"/>
    </g>
    <g clip-path="url(#paec34c92d4)">
     <use xlink:href="#C0_0_b23641db86" x="39.21217" y="190.768406" style="fill: #ff0000; fill-opacity: 0.5; stroke: #ff0000; stroke-opacity: 0.5"/>
    </g>
    <g clip-path="url(#paec34c92d4)">
     <use xlink:href="#C0_0_b23641db86" x="67.070789" y="171.845881" style="fill: #ff0000; fill-opacity: 0.5; stroke: #ff0000; stroke-opacity: 0.5"/>
    </g>
    <g clip-path="url(#paec34c92d4)">
     <use xlink:href="#C0_0_b23641db86" x="25.317521" y="190.043477" style="fill: #ff0000; fill-opacity: 0.5; stroke: #ff0000; stroke-opacity: 0.5"/>
    </g>
    <g clip-path="url(#paec34c92d4)">
     <use xlink:href="#C0_0_b23641db86" x="33.509921" y="189.843567" style="fill: #ff0000; fill-opacity: 0.5; stroke: #ff0000; stroke-opacity: 0.5"/>
    </g>
    <g clip-path="url(#paec34c92d4)">
     <use xlink:href="#C0_0_b23641db86" x="44.207976" y="179.059715" style="fill: #ff0000; fill-opacity: 0.5; stroke: #ff0000; stroke-opacity: 0.5"/>
    </g>
    <g clip-path="url(#paec34c92d4)">
     <use xlink:href="#C0_0_b23641db86" x="23.61543" y="189.262134" style="fill: #ff0000; fill-opacity: 0.5; stroke: #ff0000; stroke-opacity: 0.5"/>
    </g>
    <g clip-path="url(#paec34c92d4)">
     <use xlink:href="#C0_0_b23641db86" x="30.532453" y="171.328607" style="fill: #ff0000; fill-opacity: 0.5; stroke: #ff0000; stroke-opacity: 0.5"/>
    </g>
    <g clip-path="url(#paec34c92d4)">
     <use xlink:href="#C0_0_b23641db86" x="43.183385" y="174.358355" style="fill: #ff0000; fill-opacity: 0.5; stroke: #ff0000; stroke-opacity: 0.5"/>
    </g>
    <g clip-path="url(#paec34c92d4)">
     <use xlink:href="#C0_0_b23641db86" x="32.216578" y="187.991328" style="fill: #ff0000; fill-opacity: 0.5; stroke: #ff0000; stroke-opacity: 0.5"/>
    </g>
    <g clip-path="url(#paec34c92d4)">
     <use xlink:href="#C0_0_b23641db86" x="32.473665" y="180.814165" style="fill: #ff0000; fill-opacity: 0.5; stroke: #ff0000; stroke-opacity: 0.5"/>
    </g>
    <g clip-path="url(#paec34c92d4)">
     <use xlink:href="#C0_0_b23641db86" x="37.133754" y="174.99568" style="fill: #ff0000; fill-opacity: 0.5; stroke: #ff0000; stroke-opacity: 0.5"/>
    </g>
    <g clip-path="url(#paec34c92d4)">
     <use xlink:href="#C0_0_b23641db86" x="27.725618" y="186.993164" style="fill: #ff0000; fill-opacity: 0.5; stroke: #ff0000; stroke-opacity: 0.5"/>
    </g>
    <g clip-path="url(#paec34c92d4)">
     <use xlink:href="#C0_0_b23641db86" x="40.387176" y="187.910848" style="fill: #ff0000; fill-opacity: 0.5; stroke: #ff0000; stroke-opacity: 0.5"/>
    </g>
    <g clip-path="url(#paec34c92d4)">
     <use xlink:href="#C0_0_b23641db86" x="32.336361" y="191.614204" style="fill: #ff0000; fill-opacity: 0.5; stroke: #ff0000; stroke-opacity: 0.5"/>
    </g>
    <g clip-path="url(#paec34c92d4)">
     <use xlink:href="#C0_0_b23641db86" x="83.277829" y="186.338796" style="fill: #ff0000; fill-opacity: 0.5; stroke: #ff0000; stroke-opacity: 0.5"/>
    </g>
    <g clip-path="url(#paec34c92d4)">
     <use xlink:href="#C0_0_b23641db86" x="47.108279" y="184.449656" style="fill: #ff0000; fill-opacity: 0.5; stroke: #ff0000; stroke-opacity: 0.5"/>
    </g>
    <g clip-path="url(#paec34c92d4)">
     <use xlink:href="#C0_0_b23641db86" x="28.585271" y="181.387675" style="fill: #ff0000; fill-opacity: 0.5; stroke: #ff0000; stroke-opacity: 0.5"/>
    </g>
    <g clip-path="url(#paec34c92d4)">
     <use xlink:href="#C0_0_b23641db86" x="28.719721" y="185.858707" style="fill: #ff0000; fill-opacity: 0.5; stroke: #ff0000; stroke-opacity: 0.5"/>
    </g>
    <g clip-path="url(#paec34c92d4)">
     <use xlink:href="#C0_0_b23641db86" x="25.024918" y="187.420023" style="fill: #ff0000; fill-opacity: 0.5; stroke: #ff0000; stroke-opacity: 0.5"/>
    </g>
    <g clip-path="url(#paec34c92d4)">
     <use xlink:href="#C0_0_b23641db86" x="59.719793" y="196.677646" style="fill: #ff0000; fill-opacity: 0.5; stroke: #ff0000; stroke-opacity: 0.5"/>
    </g>
    <g clip-path="url(#paec34c92d4)">
     <use xlink:href="#C0_0_b23641db86" x="23.432727" y="188.51737" style="fill: #ff0000; fill-opacity: 0.5; stroke: #ff0000; stroke-opacity: 0.5"/>
    </g>
    <g clip-path="url(#paec34c92d4)">
     <use xlink:href="#C0_0_b23641db86" x="39.816489" y="179.335002" style="fill: #ff0000; fill-opacity: 0.5; stroke: #ff0000; stroke-opacity: 0.5"/>
    </g>
    <g clip-path="url(#paec34c92d4)">
     <use xlink:href="#C0_0_b23641db86" x="48.473841" y="189.098382" style="fill: #ff0000; fill-opacity: 0.5; stroke: #ff0000; stroke-opacity: 0.5"/>
    </g>
    <g clip-path="url(#paec34c92d4)">
     <use xlink:href="#C0_0_b23641db86" x="52.133786" y="182.404843" style="fill: #ff0000; fill-opacity: 0.5; stroke: #ff0000; stroke-opacity: 0.5"/>
    </g>
    <g clip-path="url(#paec34c92d4)">
     <use xlink:href="#C0_0_b23641db86" x="36.370498" y="184.094818" style="fill: #ff0000; fill-opacity: 0.5; stroke: #ff0000; stroke-opacity: 0.5"/>
    </g>
    <g clip-path="url(#paec34c92d4)">
     <use xlink:href="#C0_0_b23641db86" x="52.198952" y="177.648272" style="fill: #ff0000; fill-opacity: 0.5; stroke: #ff0000; stroke-opacity: 0.5"/>
    </g>
    <g clip-path="url(#paec34c92d4)">
     <use xlink:href="#C0_0_b23641db86" x="25.480322" y="188.746503" style="fill: #ff0000; fill-opacity: 0.5; stroke: #ff0000; stroke-opacity: 0.5"/>
    </g>
    <g clip-path="url(#paec34c92d4)">
     <use xlink:href="#C0_0_b23641db86" x="71.672882" y="150.723113" style="fill: #ff0000; fill-opacity: 0.5; stroke: #ff0000; stroke-opacity: 0.5"/>
    </g>
    <g clip-path="url(#paec34c92d4)">
     <use xlink:href="#C0_0_b23641db86" x="33.315784" y="188.522786" style="fill: #ff0000; fill-opacity: 0.5; stroke: #ff0000; stroke-opacity: 0.5"/>
    </g>
    <g clip-path="url(#paec34c92d4)">
     <use xlink:href="#C0_0_b23641db86" x="24.907207" y="188.595808" style="fill: #ff0000; fill-opacity: 0.5; stroke: #ff0000; stroke-opacity: 0.5"/>
    </g>
    <g clip-path="url(#paec34c92d4)">
     <use xlink:href="#C0_0_b23641db86" x="54.01061" y="198.232065" style="fill: #ff0000; fill-opacity: 0.5; stroke: #ff0000; stroke-opacity: 0.5"/>
    </g>
    <g clip-path="url(#paec34c92d4)">
     <use xlink:href="#C0_0_b23641db86" x="37.913355" y="193.981769" style="fill: #ff0000; fill-opacity: 0.5; stroke: #ff0000; stroke-opacity: 0.5"/>
    </g>
    <g clip-path="url(#paec34c92d4)">
     <use xlink:href="#C0_0_b23641db86" x="48.524216" y="147.090635" style="fill: #ff0000; fill-opacity: 0.5; stroke: #ff0000; stroke-opacity: 0.5"/>
    </g>
    <g clip-path="url(#paec34c92d4)">
     <use xlink:href="#C0_0_b23641db86" x="57.762488" y="193.454045" style="fill: #ff0000; fill-opacity: 0.5; stroke: #ff0000; stroke-opacity: 0.5"/>
    </g>
    <g clip-path="url(#paec34c92d4)">
     <use xlink:href="#C0_0_b23641db86" x="33.764661" y="182.325037" style="fill: #ff0000; fill-opacity: 0.5; stroke: #ff0000; stroke-opacity: 0.5"/>
    </g>
    <g clip-path="url(#paec34c92d4)">
     <use xlink:href="#C0_0_b23641db86" x="84.323496" y="195.176407" style="fill: #ff0000; fill-opacity: 0.5; stroke: #ff0000; stroke-opacity: 0.5"/>
    </g>
    <g clip-path="url(#paec34c92d4)">
     <use xlink:href="#C0_0_b23641db86" x="66.682859" y="178.489916" style="fill: #ff0000; fill-opacity: 0.5; stroke: #ff0000; stroke-opacity: 0.5"/>
    </g>
    <g clip-path="url(#paec34c92d4)">
     <use xlink:href="#C0_0_b23641db86" x="31.788114" y="185.030254" style="fill: #ff0000; fill-opacity: 0.5; stroke: #ff0000; stroke-opacity: 0.5"/>
    </g>
    <g clip-path="url(#paec34c92d4)">
     <use xlink:href="#C0_0_b23641db86" x="23.600177" y="188.130457" style="fill: #ff0000; fill-opacity: 0.5; stroke: #ff0000; stroke-opacity: 0.5"/>
    </g>
    <g clip-path="url(#paec34c92d4)">
     <use xlink:href="#C0_0_b23641db86" x="41.510481" y="165.987542" style="fill: #ff0000; fill-opacity: 0.5; stroke: #ff0000; stroke-opacity: 0.5"/>
    </g>
    <g clip-path="url(#paec34c92d4)">
     <use xlink:href="#C0_0_b23641db86" x="30.525831" y="189.864309" style="fill: #ff0000; fill-opacity: 0.5; stroke: #ff0000; stroke-opacity: 0.5"/>
    </g>
    <g clip-path="url(#paec34c92d4)">
     <use xlink:href="#C0_0_b23641db86" x="37.065507" y="185.641876" style="fill: #ff0000; fill-opacity: 0.5; stroke: #ff0000; stroke-opacity: 0.5"/>
    </g>
   </g>
   <g id="PathCollection_2">
    <defs>
     <path id="C1_0_8ed20faf0d" d="M -0 2.236068 
L 2.236068 -0 
L 0 -2.236068 
L -2.236068 -0 
z
"/>
    </defs>
    <g clip-path="url(#paec34c92d4)">
     <use xlink:href="#C1_0_8ed20faf0d" x="240.624572" y="19.296" style="fill: #0000ff; fill-opacity: 0.5; stroke: #0000ff; stroke-opacity: 0.5"/>
    </g>
    <g clip-path="url(#paec34c92d4)">
     <use xlink:href="#C1_0_8ed20faf0d" x="56.917125" y="145.508353" style="fill: #0000ff; fill-opacity: 0.5; stroke: #0000ff; stroke-opacity: 0.5"/>
    </g>
    <g clip-path="url(#paec34c92d4)">
     <use xlink:href="#C1_0_8ed20faf0d" x="104.489013" y="184.553225" style="fill: #0000ff; fill-opacity: 0.5; stroke: #0000ff; stroke-opacity: 0.5"/>
    </g>
    <g clip-path="url(#paec34c92d4)">
     <use xlink:href="#C1_0_8ed20faf0d" x="146.997085" y="217.12555" style="fill: #0000ff; fill-opacity: 0.5; stroke: #0000ff; stroke-opacity: 0.5"/>
    </g>
    <g clip-path="url(#paec34c92d4)">
     <use xlink:href="#C1_0_8ed20faf0d" x="101.536999" y="68.54252" style="fill: #0000ff; fill-opacity: 0.5; stroke: #0000ff; stroke-opacity: 0.5"/>
    </g>
    <g clip-path="url(#paec34c92d4)">
     <use xlink:href="#C1_0_8ed20faf0d" x="86.377116" y="202.159454" style="fill: #0000ff; fill-opacity: 0.5; stroke: #0000ff; stroke-opacity: 0.5"/>
    </g>
    <g clip-path="url(#paec34c92d4)">
     <use xlink:href="#C1_0_8ed20faf0d" x="162.956948" y="147.198369" style="fill: #0000ff; fill-opacity: 0.5; stroke: #0000ff; stroke-opacity: 0.5"/>
    </g>
    <g clip-path="url(#paec34c92d4)">
     <use xlink:href="#C1_0_8ed20faf0d" x="61.865638" y="185.309103" style="fill: #0000ff; fill-opacity: 0.5; stroke: #0000ff; stroke-opacity: 0.5"/>
    </g>
    <g clip-path="url(#paec34c92d4)">
     <use xlink:href="#C1_0_8ed20faf0d" x="103.889045" y="180.919132" style="fill: #0000ff; fill-opacity: 0.5; stroke: #0000ff; stroke-opacity: 0.5"/>
    </g>
    <g clip-path="url(#paec34c92d4)">
     <use xlink:href="#C1_0_8ed20faf0d" x="115.058449" y="165.85423" style="fill: #0000ff; fill-opacity: 0.5; stroke: #0000ff; stroke-opacity: 0.5"/>
    </g>
    <g clip-path="url(#paec34c92d4)">
     <use xlink:href="#C1_0_8ed20faf0d" x="100.525197" y="147.781523" style="fill: #0000ff; fill-opacity: 0.5; stroke: #0000ff; stroke-opacity: 0.5"/>
    </g>
    <g clip-path="url(#paec34c92d4)">
     <use xlink:href="#C1_0_8ed20faf0d" x="63.865445" y="158.038983" style="fill: #0000ff; fill-opacity: 0.5; stroke: #0000ff; stroke-opacity: 0.5"/>
    </g>
    <g clip-path="url(#paec34c92d4)">
     <use xlink:href="#C1_0_8ed20faf0d" x="80.066759" y="178.958637" style="fill: #0000ff; fill-opacity: 0.5; stroke: #0000ff; stroke-opacity: 0.5"/>
    </g>
    <g clip-path="url(#paec34c92d4)">
     <use xlink:href="#C1_0_8ed20faf0d" x="80.890212" y="153.534456" style="fill: #0000ff; fill-opacity: 0.5; stroke: #0000ff; stroke-opacity: 0.5"/>
    </g>
    <g clip-path="url(#paec34c92d4)">
     <use xlink:href="#C1_0_8ed20faf0d" x="61.772116" y="149.595517" style="fill: #0000ff; fill-opacity: 0.5; stroke: #0000ff; stroke-opacity: 0.5"/>
    </g>
    <g clip-path="url(#paec34c92d4)">
     <use xlink:href="#C1_0_8ed20faf0d" x="168.690358" y="62.850334" style="fill: #0000ff; fill-opacity: 0.5; stroke: #0000ff; stroke-opacity: 0.5"/>
    </g>
    <g clip-path="url(#paec34c92d4)">
     <use xlink:href="#C1_0_8ed20faf0d" x="124.246349" y="98.754098" style="fill: #0000ff; fill-opacity: 0.5; stroke: #0000ff; stroke-opacity: 0.5"/>
    </g>
    <g clip-path="url(#paec34c92d4)">
     <use xlink:href="#C1_0_8ed20faf0d" x="181.522254" y="115.108186" style="fill: #0000ff; fill-opacity: 0.5; stroke: #0000ff; stroke-opacity: 0.5"/>
    </g>
    <g clip-path="url(#paec34c92d4)">
     <use xlink:href="#C1_0_8ed20faf0d" x="47.727736" y="178.092894" style="fill: #0000ff; fill-opacity: 0.5; stroke: #0000ff; stroke-opacity: 0.5"/>
    </g>
    <g clip-path="url(#paec34c92d4)">
     <use xlink:href="#C1_0_8ed20faf0d" x="162.121586" y="193.346017" style="fill: #0000ff; fill-opacity: 0.5; stroke: #0000ff; stroke-opacity: 0.5"/>
    </g>
    <g clip-path="url(#paec34c92d4)">
     <use xlink:href="#C1_0_8ed20faf0d" x="162.167154" y="127.980723" style="fill: #0000ff; fill-opacity: 0.5; stroke: #0000ff; stroke-opacity: 0.5"/>
    </g>
    <g clip-path="url(#paec34c92d4)">
     <use xlink:href="#C1_0_8ed20faf0d" x="83.866909" y="161.647948" style="fill: #0000ff; fill-opacity: 0.5; stroke: #0000ff; stroke-opacity: 0.5"/>
    </g>
    <g clip-path="url(#paec34c92d4)">
     <use xlink:href="#C1_0_8ed20faf0d" x="348.087273" y="107.384122" style="fill: #0000ff; fill-opacity: 0.5; stroke: #0000ff; stroke-opacity: 0.5"/>
    </g>
    <g clip-path="url(#paec34c92d4)">
     <use xlink:href="#C1_0_8ed20faf0d" x="91.692637" y="187.272449" style="fill: #0000ff; fill-opacity: 0.5; stroke: #0000ff; stroke-opacity: 0.5"/>
    </g>
    <g clip-path="url(#paec34c92d4)">
     <use xlink:href="#C1_0_8ed20faf0d" x="81.93673" y="135.876151" style="fill: #0000ff; fill-opacity: 0.5; stroke: #0000ff; stroke-opacity: 0.5"/>
    </g>
    <g clip-path="url(#paec34c92d4)">
     <use xlink:href="#C1_0_8ed20faf0d" x="192.658502" y="157.046819" style="fill: #0000ff; fill-opacity: 0.5; stroke: #0000ff; stroke-opacity: 0.5"/>
    </g>
    <g clip-path="url(#paec34c92d4)">
     <use xlink:href="#C1_0_8ed20faf0d" x="167.397032" y="95.463705" style="fill: #0000ff; fill-opacity: 0.5; stroke: #0000ff; stroke-opacity: 0.5"/>
    </g>
    <g clip-path="url(#paec34c92d4)">
     <use xlink:href="#C1_0_8ed20faf0d" x="68.215722" y="188.507151" style="fill: #0000ff; fill-opacity: 0.5; stroke: #0000ff; stroke-opacity: 0.5"/>
    </g>
    <g clip-path="url(#paec34c92d4)">
     <use xlink:href="#C1_0_8ed20faf0d" x="41.114161" y="209.773326" style="fill: #0000ff; fill-opacity: 0.5; stroke: #0000ff; stroke-opacity: 0.5"/>
    </g>
    <g clip-path="url(#paec34c92d4)">
     <use xlink:href="#C1_0_8ed20faf0d" x="50.07033" y="156.507807" style="fill: #0000ff; fill-opacity: 0.5; stroke: #0000ff; stroke-opacity: 0.5"/>
    </g>
    <g clip-path="url(#paec34c92d4)">
     <use xlink:href="#C1_0_8ed20faf0d" x="276.851356" y="125.751176" style="fill: #0000ff; fill-opacity: 0.5; stroke: #0000ff; stroke-opacity: 0.5"/>
    </g>
    <g clip-path="url(#paec34c92d4)">
     <use xlink:href="#C1_0_8ed20faf0d" x="179.420033" y="221.819848" style="fill: #0000ff; fill-opacity: 0.5; stroke: #0000ff; stroke-opacity: 0.5"/>
    </g>
    <g clip-path="url(#paec34c92d4)">
     <use xlink:href="#C1_0_8ed20faf0d" x="173.793745" y="164.410082" style="fill: #0000ff; fill-opacity: 0.5; stroke: #0000ff; stroke-opacity: 0.5"/>
    </g>
    <g clip-path="url(#paec34c92d4)">
     <use xlink:href="#C1_0_8ed20faf0d" x="52.827374" y="139.119316" style="fill: #0000ff; fill-opacity: 0.5; stroke: #0000ff; stroke-opacity: 0.5"/>
    </g>
    <g clip-path="url(#paec34c92d4)">
     <use xlink:href="#C1_0_8ed20faf0d" x="84.410879" y="108.463602" style="fill: #0000ff; fill-opacity: 0.5; stroke: #0000ff; stroke-opacity: 0.5"/>
    </g>
    <g clip-path="url(#paec34c92d4)">
     <use xlink:href="#C1_0_8ed20faf0d" x="99.094742" y="128.812072" style="fill: #0000ff; fill-opacity: 0.5; stroke: #0000ff; stroke-opacity: 0.5"/>
    </g>
    <g clip-path="url(#paec34c92d4)">
     <use xlink:href="#C1_0_8ed20faf0d" x="122.473263" y="211.856964" style="fill: #0000ff; fill-opacity: 0.5; stroke: #0000ff; stroke-opacity: 0.5"/>
    </g>
    <g clip-path="url(#paec34c92d4)">
     <use xlink:href="#C1_0_8ed20faf0d" x="145.510447" y="248.050721" style="fill: #0000ff; fill-opacity: 0.5; stroke: #0000ff; stroke-opacity: 0.5"/>
    </g>
    <g clip-path="url(#paec34c92d4)">
     <use xlink:href="#C1_0_8ed20faf0d" x="99.43018" y="164.24946" style="fill: #0000ff; fill-opacity: 0.5; stroke: #0000ff; stroke-opacity: 0.5"/>
    </g>
    <g clip-path="url(#paec34c92d4)">
     <use xlink:href="#C1_0_8ed20faf0d" x="88.675634" y="168.18311" style="fill: #0000ff; fill-opacity: 0.5; stroke: #0000ff; stroke-opacity: 0.5"/>
    </g>
    <g clip-path="url(#paec34c92d4)">
     <use xlink:href="#C1_0_8ed20faf0d" x="81.041922" y="206.015055" style="fill: #0000ff; fill-opacity: 0.5; stroke: #0000ff; stroke-opacity: 0.5"/>
    </g>
    <g clip-path="url(#paec34c92d4)">
     <use xlink:href="#C1_0_8ed20faf0d" x="69.497823" y="210.897679" style="fill: #0000ff; fill-opacity: 0.5; stroke: #0000ff; stroke-opacity: 0.5"/>
    </g>
    <g clip-path="url(#paec34c92d4)">
     <use xlink:href="#C1_0_8ed20faf0d" x="69.983654" y="194.840051" style="fill: #0000ff; fill-opacity: 0.5; stroke: #0000ff; stroke-opacity: 0.5"/>
    </g>
    <g clip-path="url(#paec34c92d4)">
     <use xlink:href="#C1_0_8ed20faf0d" x="65.755017" y="167.717173" style="fill: #0000ff; fill-opacity: 0.5; stroke: #0000ff; stroke-opacity: 0.5"/>
    </g>
    <g clip-path="url(#paec34c92d4)">
     <use xlink:href="#C1_0_8ed20faf0d" x="129.313769" y="132.020858" style="fill: #0000ff; fill-opacity: 0.5; stroke: #0000ff; stroke-opacity: 0.5"/>
    </g>
    <g clip-path="url(#paec34c92d4)">
     <use xlink:href="#C1_0_8ed20faf0d" x="133.595066" y="41.781623" style="fill: #0000ff; fill-opacity: 0.5; stroke: #0000ff; stroke-opacity: 0.5"/>
    </g>
    <g clip-path="url(#paec34c92d4)">
     <use xlink:href="#C1_0_8ed20faf0d" x="77.585397" y="175.462728" style="fill: #0000ff; fill-opacity: 0.5; stroke: #0000ff; stroke-opacity: 0.5"/>
    </g>
    <g clip-path="url(#paec34c92d4)">
     <use xlink:href="#C1_0_8ed20faf0d" x="265.854334" y="261.216" style="fill: #0000ff; fill-opacity: 0.5; stroke: #0000ff; stroke-opacity: 0.5"/>
    </g>
    <g clip-path="url(#paec34c92d4)">
     <use xlink:href="#C1_0_8ed20faf0d" x="167.322314" y="177.422859" style="fill: #0000ff; fill-opacity: 0.5; stroke: #0000ff; stroke-opacity: 0.5"/>
    </g>
    <g clip-path="url(#paec34c92d4)">
     <use xlink:href="#C1_0_8ed20faf0d" x="55.307624" y="164.957378" style="fill: #0000ff; fill-opacity: 0.5; stroke: #0000ff; stroke-opacity: 0.5"/>
    </g>
    <g clip-path="url(#paec34c92d4)">
     <use xlink:href="#C1_0_8ed20faf0d" x="229.912274" y="196.594673" style="fill: #0000ff; fill-opacity: 0.5; stroke: #0000ff; stroke-opacity: 0.5"/>
    </g>
   </g>
   <g id="matplotlib.axis_1"/>
   <g id="matplotlib.axis_2"/>
   <g id="patch_3">
    <path d="M 7.2 273.312 
L 7.2 7.2 
" style="fill: none; stroke: #000000; stroke-width: 0.8; stroke-linejoin: miter; stroke-linecap: square"/>
   </g>
   <g id="patch_4">
    <path d="M 364.32 273.312 
L 364.32 7.2 
" style="fill: none; stroke: #000000; stroke-width: 0.8; stroke-linejoin: miter; stroke-linecap: square"/>
   </g>
   <g id="patch_5">
    <path d="M 7.2 273.312 
L 364.32 273.312 
" style="fill: none; stroke: #000000; stroke-width: 0.8; stroke-linejoin: miter; stroke-linecap: square"/>
   </g>
   <g id="patch_6">
    <path d="M 7.2 7.2 
L 364.32 7.2 
" style="fill: none; stroke: #000000; stroke-width: 0.8; stroke-linejoin: miter; stroke-linecap: square"/>
   </g>
   <g id="legend_1">
    <g id="patch_7">
     <path d="M 318.9575 59.234375 
L 357.32 59.234375 
Q 359.32 59.234375 359.32 57.234375 
L 359.32 14.2 
Q 359.32 12.2 357.32 12.2 
L 318.9575 12.2 
Q 316.9575 12.2 316.9575 14.2 
L 316.9575 57.234375 
Q 316.9575 59.234375 318.9575 59.234375 
z
" style="fill: #ffffff; opacity: 0.8; stroke: #cccccc; stroke-linejoin: miter"/>
    </g>
    <g id="text_1">
     <!-- Label -->
     <g transform="translate(324.648906 23.798437) scale(0.1 -0.1)">
      <defs>
       <path id="DejaVuSans-4c" d="M 628 4666 
L 1259 4666 
L 1259 531 
L 3531 531 
L 3531 0 
L 628 0 
L 628 4666 
z
" transform="scale(0.015625)"/>
       <path id="DejaVuSans-61" d="M 2194 1759 
Q 1497 1759 1228 1600 
Q 959 1441 959 1056 
Q 959 750 1161 570 
Q 1363 391 1709 391 
Q 2188 391 2477 730 
Q 2766 1069 2766 1631 
L 2766 1759 
L 2194 1759 
z
M 3341 1997 
L 3341 0 
L 2766 0 
L 2766 531 
Q 2569 213 2275 61 
Q 1981 -91 1556 -91 
Q 1019 -91 701 211 
Q 384 513 384 1019 
Q 384 1609 779 1909 
Q 1175 2209 1959 2209 
L 2766 2209 
L 2766 2266 
Q 2766 2663 2505 2880 
Q 2244 3097 1772 3097 
Q 1472 3097 1187 3025 
Q 903 2953 641 2809 
L 641 3341 
Q 956 3463 1253 3523 
Q 1550 3584 1831 3584 
Q 2591 3584 2966 3190 
Q 3341 2797 3341 1997 
z
" transform="scale(0.015625)"/>
       <path id="DejaVuSans-62" d="M 3116 1747 
Q 3116 2381 2855 2742 
Q 2594 3103 2138 3103 
Q 1681 3103 1420 2742 
Q 1159 2381 1159 1747 
Q 1159 1113 1420 752 
Q 1681 391 2138 391 
Q 2594 391 2855 752 
Q 3116 1113 3116 1747 
z
M 1159 2969 
Q 1341 3281 1617 3432 
Q 1894 3584 2278 3584 
Q 2916 3584 3314 3078 
Q 3713 2572 3713 1747 
Q 3713 922 3314 415 
Q 2916 -91 2278 -91 
Q 1894 -91 1617 61 
Q 1341 213 1159 525 
L 1159 0 
L 581 0 
L 581 4863 
L 1159 4863 
L 1159 2969 
z
" transform="scale(0.015625)"/>
       <path id="DejaVuSans-65" d="M 3597 1894 
L 3597 1613 
L 953 1613 
Q 991 1019 1311 708 
Q 1631 397 2203 397 
Q 2534 397 2845 478 
Q 3156 559 3463 722 
L 3463 178 
Q 3153 47 2828 -22 
Q 2503 -91 2169 -91 
Q 1331 -91 842 396 
Q 353 884 353 1716 
Q 353 2575 817 3079 
Q 1281 3584 2069 3584 
Q 2775 3584 3186 3129 
Q 3597 2675 3597 1894 
z
M 3022 2063 
Q 3016 2534 2758 2815 
Q 2500 3097 2075 3097 
Q 1594 3097 1305 2825 
Q 1016 2553 972 2059 
L 3022 2063 
z
" transform="scale(0.015625)"/>
       <path id="DejaVuSans-6c" d="M 603 4863 
L 1178 4863 
L 1178 0 
L 603 0 
L 603 4863 
z
" transform="scale(0.015625)"/>
      </defs>
      <use xlink:href="#DejaVuSans-4c"/>
      <use xlink:href="#DejaVuSans-61" x="55.712891"/>
      <use xlink:href="#DejaVuSans-62" x="116.992188"/>
      <use xlink:href="#DejaVuSans-65" x="180.46875"/>
      <use xlink:href="#DejaVuSans-6c" x="241.992188"/>
     </g>
    </g>
    <g id="PathCollection_3">
     <path d="M 330.9575 37.432701 
C 331.376823 37.432701 331.779028 37.266103 332.075534 36.969596 
C 332.37204 36.67309 332.538639 36.270885 332.538639 35.851562 
C 332.538639 35.43224 332.37204 35.030035 332.075534 34.733529 
C 331.779028 34.437022 331.376823 34.270424 330.9575 34.270424 
C 330.538177 34.270424 330.135972 34.437022 329.839466 34.733529 
C 329.54296 35.030035 329.376361 35.43224 329.376361 35.851562 
C 329.376361 36.270885 329.54296 36.67309 329.839466 36.969596 
C 330.135972 37.266103 330.538177 37.432701 330.9575 37.432701 
z
" style="fill: #ff0000; fill-opacity: 0.5; stroke: #ff0000; stroke-opacity: 0.5"/>
    </g>
    <g id="text_2">
     <!-- 0 -->
     <g transform="translate(348.9575 38.476562) scale(0.1 -0.1)">
      <defs>
       <path id="DejaVuSans-30" d="M 2034 4250 
Q 1547 4250 1301 3770 
Q 1056 3291 1056 2328 
Q 1056 1369 1301 889 
Q 1547 409 2034 409 
Q 2525 409 2770 889 
Q 3016 1369 3016 2328 
Q 3016 3291 2770 3770 
Q 2525 4250 2034 4250 
z
M 2034 4750 
Q 2819 4750 3233 4129 
Q 3647 3509 3647 2328 
Q 3647 1150 3233 529 
Q 2819 -91 2034 -91 
Q 1250 -91 836 529 
Q 422 1150 422 2328 
Q 422 3509 836 4129 
Q 1250 4750 2034 4750 
z
" transform="scale(0.015625)"/>
      </defs>
      <use xlink:href="#DejaVuSans-30"/>
     </g>
    </g>
    <g id="PathCollection_4">
     <path d="M 330.9575 52.765755 
L 333.193568 50.529687 
L 330.9575 48.29362 
L 328.721432 50.529687 
z
" style="fill: #0000ff; fill-opacity: 0.5; stroke: #0000ff; stroke-opacity: 0.5"/>
    </g>
    <g id="text_3">
     <!-- 1 -->
     <g transform="translate(348.9575 53.154687) scale(0.1 -0.1)">
      <defs>
       <path id="DejaVuSans-31" d="M 794 531 
L 1825 531 
L 1825 4091 
L 703 3866 
L 703 4441 
L 1819 4666 
L 2450 4666 
L 2450 531 
L 3481 531 
L 3481 0 
L 794 0 
L 794 531 
z
" transform="scale(0.015625)"/>
      </defs>
      <use xlink:href="#DejaVuSans-31"/>
     </g>
    </g>
   </g>
  </g>
 </g>
 <defs>
  <clipPath id="paec34c92d4">
   <rect x="7.2" y="7.2" width="357.12" height="266.112"/>
  </clipPath>
 </defs>
</svg>
