<?xml version="1.0" encoding="utf-8" standalone="no"?>
<!DOCTYPE svg PUBLIC "-//W3C//DTD SVG 1.1//EN"
  "http://www.w3.org/Graphics/SVG/1.1/DTD/svg11.dtd">
<svg xmlns:xlink="http://www.w3.org/1999/xlink" width="371.52pt" height="280.512pt" viewBox="0 0 371.52 280.512" xmlns="http://www.w3.org/2000/svg" version="1.1">
 <metadata>
  <rdf:RDF xmlns:dc="http://purl.org/dc/elements/1.1/" xmlns:cc="http://creativecommons.org/ns#" xmlns:rdf="http://www.w3.org/1999/02/22-rdf-syntax-ns#">
   <cc:Work>
    <dc:type rdf:resource="http://purl.org/dc/dcmitype/StillImage"/>
    <dc:date>2025-03-11T18:24:18.008480</dc:date>
    <dc:format>image/svg+xml</dc:format>
    <dc:creator>
     <cc:Agent>
      <dc:title>Matplotlib v3.9.0, https://matplotlib.org/</dc:title>
     </cc:Agent>
    </dc:creator>
   </cc:Work>
  </rdf:RDF>
 </metadata>
 <defs>
  <style type="text/css">*{stroke-linejoin: round; stroke-linecap: butt}</style>
 </defs>
 <g id="figure_1">
  <g id="patch_1">
   <path d="M 0 280.512 
L 371.52 280.512 
L 371.52 0 
L 0 0 
z
" style="fill: #ffffff"/>
  </g>
  <g id="axes_1">
   <g id="patch_2">
    <path d="M 7.2 273.312 
L 364.32 273.312 
L 364.32 7.2 
L 7.2 7.2 
z
" style="fill: #ffffff"/>
   </g>
   <g id="PathCollection_1">
    <defs>
     <path id="C0_0_dd521c9aed" d="M 0 1.581139 
C 0.419323 1.581139 0.821528 1.41454 1.118034 1.118034 
C 1.41454 0.821528 1.581139 0.419323 1.581139 -0 
C 1.581139 -0.419323 1.41454 -0.821528 1.118034 -1.118034 
C 0.821528 -1.41454 0.419323 -1.581139 0 -1.581139 
C -0.419323 -1.581139 -0.821528 -1.41454 -1.118034 -1.118034 
C -1.41454 -0.821528 -1.581139 -0.419323 -1.581139 0 
C -1.581139 0.419323 -1.41454 0.821528 -1.118034 1.118034 
C -0.821528 1.41454 -0.419323 1.581139 0 1.581139 
z
"/>
    </defs>
    <g clip-path="url(#pa664a03aa7)">
     <use xlink:href="#C0_0_dd521c9aed" x="238.402127" y="54.849006" style="fill: #ff0000; fill-opacity: 0.5; stroke: #ff0000; stroke-opacity: 0.5"/>
    </g>
    <g clip-path="url(#pa664a03aa7)">
     <use xlink:href="#C0_0_dd521c9aed" x="209.79249" y="30.559449" style="fill: #ff0000; fill-opacity: 0.5; stroke: #ff0000; stroke-opacity: 0.5"/>
    </g>
    <g clip-path="url(#pa664a03aa7)">
     <use xlink:href="#C0_0_dd521c9aed" x="220.917906" y="34.90368" style="fill: #ff0000; fill-opacity: 0.5; stroke: #ff0000; stroke-opacity: 0.5"/>
    </g>
    <g clip-path="url(#pa664a03aa7)">
     <use xlink:href="#C0_0_dd521c9aed" x="230.295515" y="31.892498" style="fill: #ff0000; fill-opacity: 0.5; stroke: #ff0000; stroke-opacity: 0.5"/>
    </g>
    <g clip-path="url(#pa664a03aa7)">
     <use xlink:href="#C0_0_dd521c9aed" x="232.204351" y="55.07362" style="fill: #ff0000; fill-opacity: 0.5; stroke: #ff0000; stroke-opacity: 0.5"/>
    </g>
    <g clip-path="url(#pa664a03aa7)">
     <use xlink:href="#C0_0_dd521c9aed" x="224.822704" y="30.375955" style="fill: #ff0000; fill-opacity: 0.5; stroke: #ff0000; stroke-opacity: 0.5"/>
    </g>
    <g clip-path="url(#pa664a03aa7)">
     <use xlink:href="#C0_0_dd521c9aed" x="235.394848" y="24.527201" style="fill: #ff0000; fill-opacity: 0.5; stroke: #ff0000; stroke-opacity: 0.5"/>
    </g>
    <g clip-path="url(#pa664a03aa7)">
     <use xlink:href="#C0_0_dd521c9aed" x="223.315832" y="29.270847" style="fill: #ff0000; fill-opacity: 0.5; stroke: #ff0000; stroke-opacity: 0.5"/>
    </g>
    <g clip-path="url(#pa664a03aa7)">
     <use xlink:href="#C0_0_dd521c9aed" x="229.791068" y="64.44703" style="fill: #ff0000; fill-opacity: 0.5; stroke: #ff0000; stroke-opacity: 0.5"/>
    </g>
    <g clip-path="url(#pa664a03aa7)">
     <use xlink:href="#C0_0_dd521c9aed" x="233.858132" y="21.240551" style="fill: #ff0000; fill-opacity: 0.5; stroke: #ff0000; stroke-opacity: 0.5"/>
    </g>
    <g clip-path="url(#pa664a03aa7)">
     <use xlink:href="#C0_0_dd521c9aed" x="227.049539" y="26.541831" style="fill: #ff0000; fill-opacity: 0.5; stroke: #ff0000; stroke-opacity: 0.5"/>
    </g>
    <g clip-path="url(#pa664a03aa7)">
     <use xlink:href="#C0_0_dd521c9aed" x="227.065026" y="46.897244" style="fill: #ff0000; fill-opacity: 0.5; stroke: #ff0000; stroke-opacity: 0.5"/>
    </g>
    <g clip-path="url(#pa664a03aa7)">
     <use xlink:href="#C0_0_dd521c9aed" x="235.52371" y="20.574463" style="fill: #ff0000; fill-opacity: 0.5; stroke: #ff0000; stroke-opacity: 0.5"/>
    </g>
    <g clip-path="url(#pa664a03aa7)">
     <use xlink:href="#C0_0_dd521c9aed" x="256.27498" y="44.640053" style="fill: #ff0000; fill-opacity: 0.5; stroke: #ff0000; stroke-opacity: 0.5"/>
    </g>
    <g clip-path="url(#pa664a03aa7)">
     <use xlink:href="#C0_0_dd521c9aed" x="218.237521" y="38.915122" style="fill: #ff0000; fill-opacity: 0.5; stroke: #ff0000; stroke-opacity: 0.5"/>
    </g>
    <g clip-path="url(#pa664a03aa7)">
     <use xlink:href="#C0_0_dd521c9aed" x="234.553409" y="29.832039" style="fill: #ff0000; fill-opacity: 0.5; stroke: #ff0000; stroke-opacity: 0.5"/>
    </g>
    <g clip-path="url(#pa664a03aa7)">
     <use xlink:href="#C0_0_dd521c9aed" x="240.979847" y="32.509589" style="fill: #ff0000; fill-opacity: 0.5; stroke: #ff0000; stroke-opacity: 0.5"/>
    </g>
    <g clip-path="url(#pa664a03aa7)">
     <use xlink:href="#C0_0_dd521c9aed" x="235.602209" y="41.686229" style="fill: #ff0000; fill-opacity: 0.5; stroke: #ff0000; stroke-opacity: 0.5"/>
    </g>
    <g clip-path="url(#pa664a03aa7)">
     <use xlink:href="#C0_0_dd521c9aed" x="235.41017" y="26.807763" style="fill: #ff0000; fill-opacity: 0.5; stroke: #ff0000; stroke-opacity: 0.5"/>
    </g>
    <g clip-path="url(#pa664a03aa7)">
     <use xlink:href="#C0_0_dd521c9aed" x="229.527064" y="36.769502" style="fill: #ff0000; fill-opacity: 0.5; stroke: #ff0000; stroke-opacity: 0.5"/>
    </g>
    <g clip-path="url(#pa664a03aa7)">
     <use xlink:href="#C0_0_dd521c9aed" x="230.893324" y="26.801768" style="fill: #ff0000; fill-opacity: 0.5; stroke: #ff0000; stroke-opacity: 0.5"/>
    </g>
    <g clip-path="url(#pa664a03aa7)">
     <use xlink:href="#C0_0_dd521c9aed" x="192.160679" y="53.08693" style="fill: #ff0000; fill-opacity: 0.5; stroke: #ff0000; stroke-opacity: 0.5"/>
    </g>
    <g clip-path="url(#pa664a03aa7)">
     <use xlink:href="#C0_0_dd521c9aed" x="224.375263" y="45.966324" style="fill: #ff0000; fill-opacity: 0.5; stroke: #ff0000; stroke-opacity: 0.5"/>
    </g>
    <g clip-path="url(#pa664a03aa7)">
     <use xlink:href="#C0_0_dd521c9aed" x="239.57845" y="35.826029" style="fill: #ff0000; fill-opacity: 0.5; stroke: #ff0000; stroke-opacity: 0.5"/>
    </g>
    <g clip-path="url(#pa664a03aa7)">
     <use xlink:href="#C0_0_dd521c9aed" x="237.188851" y="28.681936" style="fill: #ff0000; fill-opacity: 0.5; stroke: #ff0000; stroke-opacity: 0.5"/>
    </g>
    <g clip-path="url(#pa664a03aa7)">
     <use xlink:href="#C0_0_dd521c9aed" x="236.912628" y="21.993044" style="fill: #ff0000; fill-opacity: 0.5; stroke: #ff0000; stroke-opacity: 0.5"/>
    </g>
    <g clip-path="url(#pa664a03aa7)">
     <use xlink:href="#C0_0_dd521c9aed" x="243.844073" y="60.329561" style="fill: #ff0000; fill-opacity: 0.5; stroke: #ff0000; stroke-opacity: 0.5"/>
    </g>
    <g clip-path="url(#pa664a03aa7)">
     <use xlink:href="#C0_0_dd521c9aed" x="235.059596" y="21.559886" style="fill: #ff0000; fill-opacity: 0.5; stroke: #ff0000; stroke-opacity: 0.5"/>
    </g>
    <g clip-path="url(#pa664a03aa7)">
     <use xlink:href="#C0_0_dd521c9aed" x="220.850298" y="42.689195" style="fill: #ff0000; fill-opacity: 0.5; stroke: #ff0000; stroke-opacity: 0.5"/>
    </g>
    <g clip-path="url(#pa664a03aa7)">
     <use xlink:href="#C0_0_dd521c9aed" x="229.729892" y="42.701437" style="fill: #ff0000; fill-opacity: 0.5; stroke: #ff0000; stroke-opacity: 0.5"/>
    </g>
    <g clip-path="url(#pa664a03aa7)">
     <use xlink:href="#C0_0_dd521c9aed" x="217.08699" y="43.900235" style="fill: #ff0000; fill-opacity: 0.5; stroke: #ff0000; stroke-opacity: 0.5"/>
    </g>
    <g clip-path="url(#pa664a03aa7)">
     <use xlink:href="#C0_0_dd521c9aed" x="233.910634" y="36.135055" style="fill: #ff0000; fill-opacity: 0.5; stroke: #ff0000; stroke-opacity: 0.5"/>
    </g>
    <g clip-path="url(#pa664a03aa7)">
     <use xlink:href="#C0_0_dd521c9aed" x="208.937529" y="44.03561" style="fill: #ff0000; fill-opacity: 0.5; stroke: #ff0000; stroke-opacity: 0.5"/>
    </g>
    <g clip-path="url(#pa664a03aa7)">
     <use xlink:href="#C0_0_dd521c9aed" x="234.462255" y="22.913741" style="fill: #ff0000; fill-opacity: 0.5; stroke: #ff0000; stroke-opacity: 0.5"/>
    </g>
    <g clip-path="url(#pa664a03aa7)">
     <use xlink:href="#C0_0_dd521c9aed" x="184.472302" y="56.826915" style="fill: #ff0000; fill-opacity: 0.5; stroke: #ff0000; stroke-opacity: 0.5"/>
    </g>
    <g clip-path="url(#pa664a03aa7)">
     <use xlink:href="#C0_0_dd521c9aed" x="232.149379" y="29.068891" style="fill: #ff0000; fill-opacity: 0.5; stroke: #ff0000; stroke-opacity: 0.5"/>
    </g>
    <g clip-path="url(#pa664a03aa7)">
     <use xlink:href="#C0_0_dd521c9aed" x="233.406474" y="22.321013" style="fill: #ff0000; fill-opacity: 0.5; stroke: #ff0000; stroke-opacity: 0.5"/>
    </g>
    <g clip-path="url(#pa664a03aa7)">
     <use xlink:href="#C0_0_dd521c9aed" x="197.965193" y="39.658898" style="fill: #ff0000; fill-opacity: 0.5; stroke: #ff0000; stroke-opacity: 0.5"/>
    </g>
    <g clip-path="url(#pa664a03aa7)">
     <use xlink:href="#C0_0_dd521c9aed" x="235.965671" y="31.614811" style="fill: #ff0000; fill-opacity: 0.5; stroke: #ff0000; stroke-opacity: 0.5"/>
    </g>
    <g clip-path="url(#pa664a03aa7)">
     <use xlink:href="#C0_0_dd521c9aed" x="187.111523" y="73.574396" style="fill: #ff0000; fill-opacity: 0.5; stroke: #ff0000; stroke-opacity: 0.5"/>
    </g>
    <g clip-path="url(#pa664a03aa7)">
     <use xlink:href="#C0_0_dd521c9aed" x="241.932791" y="51.992135" style="fill: #ff0000; fill-opacity: 0.5; stroke: #ff0000; stroke-opacity: 0.5"/>
    </g>
    <g clip-path="url(#pa664a03aa7)">
     <use xlink:href="#C0_0_dd521c9aed" x="235.7919" y="37.15389" style="fill: #ff0000; fill-opacity: 0.5; stroke: #ff0000; stroke-opacity: 0.5"/>
    </g>
    <g clip-path="url(#pa664a03aa7)">
     <use xlink:href="#C0_0_dd521c9aed" x="180.58122" y="48.157946" style="fill: #ff0000; fill-opacity: 0.5; stroke: #ff0000; stroke-opacity: 0.5"/>
    </g>
    <g clip-path="url(#pa664a03aa7)">
     <use xlink:href="#C0_0_dd521c9aed" x="211.813262" y="61.628986" style="fill: #ff0000; fill-opacity: 0.5; stroke: #ff0000; stroke-opacity: 0.5"/>
    </g>
    <g clip-path="url(#pa664a03aa7)">
     <use xlink:href="#C0_0_dd521c9aed" x="227.674065" y="29.057343" style="fill: #ff0000; fill-opacity: 0.5; stroke: #ff0000; stroke-opacity: 0.5"/>
    </g>
    <g clip-path="url(#pa664a03aa7)">
     <use xlink:href="#C0_0_dd521c9aed" x="235.782176" y="21.754168" style="fill: #ff0000; fill-opacity: 0.5; stroke: #ff0000; stroke-opacity: 0.5"/>
    </g>
    <g clip-path="url(#pa664a03aa7)">
     <use xlink:href="#C0_0_dd521c9aed" x="245.286289" y="45.28926" style="fill: #ff0000; fill-opacity: 0.5; stroke: #ff0000; stroke-opacity: 0.5"/>
    </g>
    <g clip-path="url(#pa664a03aa7)">
     <use xlink:href="#C0_0_dd521c9aed" x="230.707046" y="24.771857" style="fill: #ff0000; fill-opacity: 0.5; stroke: #ff0000; stroke-opacity: 0.5"/>
    </g>
    <g clip-path="url(#pa664a03aa7)">
     <use xlink:href="#C0_0_dd521c9aed" x="225.904777" y="33.555321" style="fill: #ff0000; fill-opacity: 0.5; stroke: #ff0000; stroke-opacity: 0.5"/>
    </g>
   </g>
   <g id="PathCollection_2">
    <defs>
     <path id="C1_0_1e56fcc5ff" d="M -0 2.236068 
L 2.236068 -0 
L 0 -2.236068 
L -2.236068 -0 
z
"/>
    </defs>
    <g clip-path="url(#pa664a03aa7)">
     <use xlink:href="#C1_0_1e56fcc5ff" x="23.432727" y="221.07647" style="fill: #0000ff; fill-opacity: 0.5; stroke: #0000ff; stroke-opacity: 0.5"/>
    </g>
    <g clip-path="url(#pa664a03aa7)">
     <use xlink:href="#C1_0_1e56fcc5ff" x="197.352144" y="64.091335" style="fill: #0000ff; fill-opacity: 0.5; stroke: #0000ff; stroke-opacity: 0.5"/>
    </g>
    <g clip-path="url(#pa664a03aa7)">
     <use xlink:href="#C1_0_1e56fcc5ff" x="174.208423" y="72.17726" style="fill: #0000ff; fill-opacity: 0.5; stroke: #0000ff; stroke-opacity: 0.5"/>
    </g>
    <g clip-path="url(#pa664a03aa7)">
     <use xlink:href="#C1_0_1e56fcc5ff" x="273.960787" y="147.726665" style="fill: #0000ff; fill-opacity: 0.5; stroke: #0000ff; stroke-opacity: 0.5"/>
    </g>
    <g clip-path="url(#pa664a03aa7)">
     <use xlink:href="#C1_0_1e56fcc5ff" x="65.510801" y="131.062409" style="fill: #0000ff; fill-opacity: 0.5; stroke: #0000ff; stroke-opacity: 0.5"/>
    </g>
    <g clip-path="url(#pa664a03aa7)">
     <use xlink:href="#C1_0_1e56fcc5ff" x="238.902065" y="73.105684" style="fill: #0000ff; fill-opacity: 0.5; stroke: #0000ff; stroke-opacity: 0.5"/>
    </g>
    <g clip-path="url(#pa664a03aa7)">
     <use xlink:href="#C1_0_1e56fcc5ff" x="194.750857" y="122.770657" style="fill: #0000ff; fill-opacity: 0.5; stroke: #0000ff; stroke-opacity: 0.5"/>
    </g>
    <g clip-path="url(#pa664a03aa7)">
     <use xlink:href="#C1_0_1e56fcc5ff" x="212.264792" y="46.466034" style="fill: #0000ff; fill-opacity: 0.5; stroke: #0000ff; stroke-opacity: 0.5"/>
    </g>
    <g clip-path="url(#pa664a03aa7)">
     <use xlink:href="#C1_0_1e56fcc5ff" x="219.595712" y="92.69082" style="fill: #0000ff; fill-opacity: 0.5; stroke: #0000ff; stroke-opacity: 0.5"/>
    </g>
    <g clip-path="url(#pa664a03aa7)">
     <use xlink:href="#C1_0_1e56fcc5ff" x="160.024845" y="88.214029" style="fill: #0000ff; fill-opacity: 0.5; stroke: #0000ff; stroke-opacity: 0.5"/>
    </g>
    <g clip-path="url(#pa664a03aa7)">
     <use xlink:href="#C1_0_1e56fcc5ff" x="186.471065" y="89.227559" style="fill: #0000ff; fill-opacity: 0.5; stroke: #0000ff; stroke-opacity: 0.5"/>
    </g>
    <g clip-path="url(#pa664a03aa7)">
     <use xlink:href="#C1_0_1e56fcc5ff" x="208.868641" y="72.397482" style="fill: #0000ff; fill-opacity: 0.5; stroke: #0000ff; stroke-opacity: 0.5"/>
    </g>
    <g clip-path="url(#pa664a03aa7)">
     <use xlink:href="#C1_0_1e56fcc5ff" x="222.568733" y="73.472432" style="fill: #0000ff; fill-opacity: 0.5; stroke: #0000ff; stroke-opacity: 0.5"/>
    </g>
    <g clip-path="url(#pa664a03aa7)">
     <use xlink:href="#C1_0_1e56fcc5ff" x="228.371308" y="71.893514" style="fill: #0000ff; fill-opacity: 0.5; stroke: #0000ff; stroke-opacity: 0.5"/>
    </g>
    <g clip-path="url(#pa664a03aa7)">
     <use xlink:href="#C1_0_1e56fcc5ff" x="202.662553" y="85.092411" style="fill: #0000ff; fill-opacity: 0.5; stroke: #0000ff; stroke-opacity: 0.5"/>
    </g>
    <g clip-path="url(#pa664a03aa7)">
     <use xlink:href="#C1_0_1e56fcc5ff" x="79.505674" y="149.468553" style="fill: #0000ff; fill-opacity: 0.5; stroke: #0000ff; stroke-opacity: 0.5"/>
    </g>
    <g clip-path="url(#pa664a03aa7)">
     <use xlink:href="#C1_0_1e56fcc5ff" x="120.257842" y="120.788938" style="fill: #0000ff; fill-opacity: 0.5; stroke: #0000ff; stroke-opacity: 0.5"/>
    </g>
    <g clip-path="url(#pa664a03aa7)">
     <use xlink:href="#C1_0_1e56fcc5ff" x="239.690962" y="184.662077" style="fill: #0000ff; fill-opacity: 0.5; stroke: #0000ff; stroke-opacity: 0.5"/>
    </g>
    <g clip-path="url(#pa664a03aa7)">
     <use xlink:href="#C1_0_1e56fcc5ff" x="231.774688" y="49.004147" style="fill: #0000ff; fill-opacity: 0.5; stroke: #0000ff; stroke-opacity: 0.5"/>
    </g>
    <g clip-path="url(#pa664a03aa7)">
     <use xlink:href="#C1_0_1e56fcc5ff" x="126.886286" y="83.846379" style="fill: #0000ff; fill-opacity: 0.5; stroke: #0000ff; stroke-opacity: 0.5"/>
    </g>
    <g clip-path="url(#pa664a03aa7)">
     <use xlink:href="#C1_0_1e56fcc5ff" x="190.218328" y="137.851111" style="fill: #0000ff; fill-opacity: 0.5; stroke: #0000ff; stroke-opacity: 0.5"/>
    </g>
    <g clip-path="url(#pa664a03aa7)">
     <use xlink:href="#C1_0_1e56fcc5ff" x="183.259877" y="70.415845" style="fill: #0000ff; fill-opacity: 0.5; stroke: #0000ff; stroke-opacity: 0.5"/>
    </g>
    <g clip-path="url(#pa664a03aa7)">
     <use xlink:href="#C1_0_1e56fcc5ff" x="103.035496" y="261.216" style="fill: #0000ff; fill-opacity: 0.5; stroke: #0000ff; stroke-opacity: 0.5"/>
    </g>
    <g clip-path="url(#pa664a03aa7)">
     <use xlink:href="#C1_0_1e56fcc5ff" x="191.484305" y="59.761486" style="fill: #0000ff; fill-opacity: 0.5; stroke: #0000ff; stroke-opacity: 0.5"/>
    </g>
    <g clip-path="url(#pa664a03aa7)">
     <use xlink:href="#C1_0_1e56fcc5ff" x="241.502443" y="101.342567" style="fill: #0000ff; fill-opacity: 0.5; stroke: #0000ff; stroke-opacity: 0.5"/>
    </g>
    <g clip-path="url(#pa664a03aa7)">
     <use xlink:href="#C1_0_1e56fcc5ff" x="150.530812" y="150.160074" style="fill: #0000ff; fill-opacity: 0.5; stroke: #0000ff; stroke-opacity: 0.5"/>
    </g>
    <g clip-path="url(#pa664a03aa7)">
     <use xlink:href="#C1_0_1e56fcc5ff" x="129.528097" y="165.705532" style="fill: #0000ff; fill-opacity: 0.5; stroke: #0000ff; stroke-opacity: 0.5"/>
    </g>
    <g clip-path="url(#pa664a03aa7)">
     <use xlink:href="#C1_0_1e56fcc5ff" x="217.262176" y="56.102036" style="fill: #0000ff; fill-opacity: 0.5; stroke: #0000ff; stroke-opacity: 0.5"/>
    </g>
    <g clip-path="url(#pa664a03aa7)">
     <use xlink:href="#C1_0_1e56fcc5ff" x="189.895254" y="19.296" style="fill: #0000ff; fill-opacity: 0.5; stroke: #0000ff; stroke-opacity: 0.5"/>
    </g>
    <g clip-path="url(#pa664a03aa7)">
     <use xlink:href="#C1_0_1e56fcc5ff" x="210.784727" y="75.446239" style="fill: #0000ff; fill-opacity: 0.5; stroke: #0000ff; stroke-opacity: 0.5"/>
    </g>
    <g clip-path="url(#pa664a03aa7)">
     <use xlink:href="#C1_0_1e56fcc5ff" x="122.464993" y="218.41464" style="fill: #0000ff; fill-opacity: 0.5; stroke: #0000ff; stroke-opacity: 0.5"/>
    </g>
    <g clip-path="url(#pa664a03aa7)">
     <use xlink:href="#C1_0_1e56fcc5ff" x="81.942599" y="108.474415" style="fill: #0000ff; fill-opacity: 0.5; stroke: #0000ff; stroke-opacity: 0.5"/>
    </g>
    <g clip-path="url(#pa664a03aa7)">
     <use xlink:href="#C1_0_1e56fcc5ff" x="219.532081" y="138.941587" style="fill: #0000ff; fill-opacity: 0.5; stroke: #0000ff; stroke-opacity: 0.5"/>
    </g>
    <g clip-path="url(#pa664a03aa7)">
     <use xlink:href="#C1_0_1e56fcc5ff" x="188.210874" y="49.625472" style="fill: #0000ff; fill-opacity: 0.5; stroke: #0000ff; stroke-opacity: 0.5"/>
    </g>
    <g clip-path="url(#pa664a03aa7)">
     <use xlink:href="#C1_0_1e56fcc5ff" x="174.032465" y="118.166775" style="fill: #0000ff; fill-opacity: 0.5; stroke: #0000ff; stroke-opacity: 0.5"/>
    </g>
    <g clip-path="url(#pa664a03aa7)">
     <use xlink:href="#C1_0_1e56fcc5ff" x="220.273585" y="110.328506" style="fill: #0000ff; fill-opacity: 0.5; stroke: #0000ff; stroke-opacity: 0.5"/>
    </g>
    <g clip-path="url(#pa664a03aa7)">
     <use xlink:href="#C1_0_1e56fcc5ff" x="262.941255" y="119.320821" style="fill: #0000ff; fill-opacity: 0.5; stroke: #0000ff; stroke-opacity: 0.5"/>
    </g>
    <g clip-path="url(#pa664a03aa7)">
     <use xlink:href="#C1_0_1e56fcc5ff" x="301.730462" y="130.843633" style="fill: #0000ff; fill-opacity: 0.5; stroke: #0000ff; stroke-opacity: 0.5"/>
    </g>
    <g clip-path="url(#pa664a03aa7)">
     <use xlink:href="#C1_0_1e56fcc5ff" x="241.960492" y="92.415993" style="fill: #0000ff; fill-opacity: 0.5; stroke: #0000ff; stroke-opacity: 0.5"/>
    </g>
    <g clip-path="url(#pa664a03aa7)">
     <use xlink:href="#C1_0_1e56fcc5ff" x="225.438475" y="91.269232" style="fill: #0000ff; fill-opacity: 0.5; stroke: #0000ff; stroke-opacity: 0.5"/>
    </g>
    <g clip-path="url(#pa664a03aa7)">
     <use xlink:href="#C1_0_1e56fcc5ff" x="176.49468" y="57.167783" style="fill: #0000ff; fill-opacity: 0.5; stroke: #0000ff; stroke-opacity: 0.5"/>
    </g>
    <g clip-path="url(#pa664a03aa7)">
     <use xlink:href="#C1_0_1e56fcc5ff" x="267.124167" y="65.669535" style="fill: #0000ff; fill-opacity: 0.5; stroke: #0000ff; stroke-opacity: 0.5"/>
    </g>
    <g clip-path="url(#pa664a03aa7)">
     <use xlink:href="#C1_0_1e56fcc5ff" x="222.516635" y="57.936139" style="fill: #0000ff; fill-opacity: 0.5; stroke: #0000ff; stroke-opacity: 0.5"/>
    </g>
    <g clip-path="url(#pa664a03aa7)">
     <use xlink:href="#C1_0_1e56fcc5ff" x="211.440213" y="55.517336" style="fill: #0000ff; fill-opacity: 0.5; stroke: #0000ff; stroke-opacity: 0.5"/>
    </g>
    <g clip-path="url(#pa664a03aa7)">
     <use xlink:href="#C1_0_1e56fcc5ff" x="151.206642" y="117.695639" style="fill: #0000ff; fill-opacity: 0.5; stroke: #0000ff; stroke-opacity: 0.5"/>
    </g>
    <g clip-path="url(#pa664a03aa7)">
     <use xlink:href="#C1_0_1e56fcc5ff" x="237.95027" y="215.711534" style="fill: #0000ff; fill-opacity: 0.5; stroke: #0000ff; stroke-opacity: 0.5"/>
    </g>
    <g clip-path="url(#pa664a03aa7)">
     <use xlink:href="#C1_0_1e56fcc5ff" x="244.48796" y="69.281252" style="fill: #0000ff; fill-opacity: 0.5; stroke: #0000ff; stroke-opacity: 0.5"/>
    </g>
    <g clip-path="url(#pa664a03aa7)">
     <use xlink:href="#C1_0_1e56fcc5ff" x="348.087273" y="252.761368" style="fill: #0000ff; fill-opacity: 0.5; stroke: #0000ff; stroke-opacity: 0.5"/>
    </g>
    <g clip-path="url(#pa664a03aa7)">
     <use xlink:href="#C1_0_1e56fcc5ff" x="173.454665" y="161.452743" style="fill: #0000ff; fill-opacity: 0.5; stroke: #0000ff; stroke-opacity: 0.5"/>
    </g>
    <g clip-path="url(#pa664a03aa7)">
     <use xlink:href="#C1_0_1e56fcc5ff" x="248.773201" y="65.887914" style="fill: #0000ff; fill-opacity: 0.5; stroke: #0000ff; stroke-opacity: 0.5"/>
    </g>
    <g clip-path="url(#pa664a03aa7)">
     <use xlink:href="#C1_0_1e56fcc5ff" x="215.813309" y="181.876165" style="fill: #0000ff; fill-opacity: 0.5; stroke: #0000ff; stroke-opacity: 0.5"/>
    </g>
   </g>
   <g id="matplotlib.axis_1"/>
   <g id="matplotlib.axis_2"/>
   <g id="patch_3">
    <path d="M 7.2 273.312 
L 7.2 7.2 
" style="fill: none; stroke: #000000; stroke-width: 0.8; stroke-linejoin: miter; stroke-linecap: square"/>
   </g>
   <g id="patch_4">
    <path d="M 364.32 273.312 
L 364.32 7.2 
" style="fill: none; stroke: #000000; stroke-width: 0.8; stroke-linejoin: miter; stroke-linecap: square"/>
   </g>
   <g id="patch_5">
    <path d="M 7.2 273.312 
L 364.32 273.312 
" style="fill: none; stroke: #000000; stroke-width: 0.8; stroke-linejoin: miter; stroke-linecap: square"/>
   </g>
   <g id="patch_6">
    <path d="M 7.2 7.2 
L 364.32 7.2 
" style="fill: none; stroke: #000000; stroke-width: 0.8; stroke-linejoin: miter; stroke-linecap: square"/>
   </g>
   <g id="legend_1">
    <g id="patch_7">
     <path d="M 318.9575 59.234375 
L 357.32 59.234375 
Q 359.32 59.234375 359.32 57.234375 
L 359.32 14.2 
Q 359.32 12.2 357.32 12.2 
L 318.9575 12.2 
Q 316.9575 12.2 316.9575 14.2 
L 316.9575 57.234375 
Q 316.9575 59.234375 318.9575 59.234375 
z
" style="fill: #ffffff; opacity: 0.8; stroke: #cccccc; stroke-linejoin: miter"/>
    </g>
    <g id="text_1">
     <!-- Label -->
     <g transform="translate(324.648906 23.798437) scale(0.1 -0.1)">
      <defs>
       <path id="DejaVuSans-4c" d="M 628 4666 
L 1259 4666 
L 1259 531 
L 3531 531 
L 3531 0 
L 628 0 
L 628 4666 
z
" transform="scale(0.015625)"/>
       <path id="DejaVuSans-61" d="M 2194 1759 
Q 1497 1759 1228 1600 
Q 959 1441 959 1056 
Q 959 750 1161 570 
Q 1363 391 1709 391 
Q 2188 391 2477 730 
Q 2766 1069 2766 1631 
L 2766 1759 
L 2194 1759 
z
M 3341 1997 
L 3341 0 
L 2766 0 
L 2766 531 
Q 2569 213 2275 61 
Q 1981 -91 1556 -91 
Q 1019 -91 701 211 
Q 384 513 384 1019 
Q 384 1609 779 1909 
Q 1175 2209 1959 2209 
L 2766 2209 
L 2766 2266 
Q 2766 2663 2505 2880 
Q 2244 3097 1772 3097 
Q 1472 3097 1187 3025 
Q 903 2953 641 2809 
L 641 3341 
Q 956 3463 1253 3523 
Q 1550 3584 1831 3584 
Q 2591 3584 2966 3190 
Q 3341 2797 3341 1997 
z
" transform="scale(0.015625)"/>
       <path id="DejaVuSans-62" d="M 3116 1747 
Q 3116 2381 2855 2742 
Q 2594 3103 2138 3103 
Q 1681 3103 1420 2742 
Q 1159 2381 1159 1747 
Q 1159 1113 1420 752 
Q 1681 391 2138 391 
Q 2594 391 2855 752 
Q 3116 1113 3116 1747 
z
M 1159 2969 
Q 1341 3281 1617 3432 
Q 1894 3584 2278 3584 
Q 2916 3584 3314 3078 
Q 3713 2572 3713 1747 
Q 3713 922 3314 415 
Q 2916 -91 2278 -91 
Q 1894 -91 1617 61 
Q 1341 213 1159 525 
L 1159 0 
L 581 0 
L 581 4863 
L 1159 4863 
L 1159 2969 
z
" transform="scale(0.015625)"/>
       <path id="DejaVuSans-65" d="M 3597 1894 
L 3597 1613 
L 953 1613 
Q 991 1019 1311 708 
Q 1631 397 2203 397 
Q 2534 397 2845 478 
Q 3156 559 3463 722 
L 3463 178 
Q 3153 47 2828 -22 
Q 2503 -91 2169 -91 
Q 1331 -91 842 396 
Q 353 884 353 1716 
Q 353 2575 817 3079 
Q 1281 3584 2069 3584 
Q 2775 3584 3186 3129 
Q 3597 2675 3597 1894 
z
M 3022 2063 
Q 3016 2534 2758 2815 
Q 2500 3097 2075 3097 
Q 1594 3097 1305 2825 
Q 1016 2553 972 2059 
L 3022 2063 
z
" transform="scale(0.015625)"/>
       <path id="DejaVuSans-6c" d="M 603 4863 
L 1178 4863 
L 1178 0 
L 603 0 
L 603 4863 
z
" transform="scale(0.015625)"/>
      </defs>
      <use xlink:href="#DejaVuSans-4c"/>
      <use xlink:href="#DejaVuSans-61" x="55.712891"/>
      <use xlink:href="#DejaVuSans-62" x="116.992188"/>
      <use xlink:href="#DejaVuSans-65" x="180.46875"/>
      <use xlink:href="#DejaVuSans-6c" x="241.992188"/>
     </g>
    </g>
    <g id="PathCollection_3">
     <path d="M 330.9575 37.432701 
C 331.376823 37.432701 331.779028 37.266103 332.075534 36.969596 
C 332.37204 36.67309 332.538639 36.270885 332.538639 35.851562 
C 332.538639 35.43224 332.37204 35.030035 332.075534 34.733529 
C 331.779028 34.437022 331.376823 34.270424 330.9575 34.270424 
C 330.538177 34.270424 330.135972 34.437022 329.839466 34.733529 
C 329.54296 35.030035 329.376361 35.43224 329.376361 35.851562 
C 329.376361 36.270885 329.54296 36.67309 329.839466 36.969596 
C 330.135972 37.266103 330.538177 37.432701 330.9575 37.432701 
z
" style="fill: #ff0000; fill-opacity: 0.5; stroke: #ff0000; stroke-opacity: 0.5"/>
    </g>
    <g id="text_2">
     <!-- 0 -->
     <g transform="translate(348.9575 38.476562) scale(0.1 -0.1)">
      <defs>
       <path id="DejaVuSans-30" d="M 2034 4250 
Q 1547 4250 1301 3770 
Q 1056 3291 1056 2328 
Q 1056 1369 1301 889 
Q 1547 409 2034 409 
Q 2525 409 2770 889 
Q 3016 1369 3016 2328 
Q 3016 3291 2770 3770 
Q 2525 4250 2034 4250 
z
M 2034 4750 
Q 2819 4750 3233 4129 
Q 3647 3509 3647 2328 
Q 3647 1150 3233 529 
Q 2819 -91 2034 -91 
Q 1250 -91 836 529 
Q 422 1150 422 2328 
Q 422 3509 836 4129 
Q 1250 4750 2034 4750 
z
" transform="scale(0.015625)"/>
      </defs>
      <use xlink:href="#DejaVuSans-30"/>
     </g>
    </g>
    <g id="PathCollection_4">
     <path d="M 330.9575 52.765755 
L 333.193568 50.529687 
L 330.9575 48.29362 
L 328.721432 50.529687 
z
" style="fill: #0000ff; fill-opacity: 0.5; stroke: #0000ff; stroke-opacity: 0.5"/>
    </g>
    <g id="text_3">
     <!-- 1 -->
     <g transform="translate(348.9575 53.154687) scale(0.1 -0.1)">
      <defs>
       <path id="DejaVuSans-31" d="M 794 531 
L 1825 531 
L 1825 4091 
L 703 3866 
L 703 4441 
L 1819 4666 
L 2450 4666 
L 2450 531 
L 3481 531 
L 3481 0 
L 794 0 
L 794 531 
z
" transform="scale(0.015625)"/>
      </defs>
      <use xlink:href="#DejaVuSans-31"/>
     </g>
    </g>
   </g>
  </g>
 </g>
 <defs>
  <clipPath id="pa664a03aa7">
   <rect x="7.2" y="7.2" width="357.12" height="266.112"/>
  </clipPath>
 </defs>
</svg>
