<?xml version="1.0" encoding="utf-8" standalone="no"?>
<!DOCTYPE svg PUBLIC "-//W3C//DTD SVG 1.1//EN"
  "http://www.w3.org/Graphics/SVG/1.1/DTD/svg11.dtd">
<svg xmlns:xlink="http://www.w3.org/1999/xlink" width="371.52pt" height="280.512pt" viewBox="0 0 371.52 280.512" xmlns="http://www.w3.org/2000/svg" version="1.1">
 <metadata>
  <rdf:RDF xmlns:dc="http://purl.org/dc/elements/1.1/" xmlns:cc="http://creativecommons.org/ns#" xmlns:rdf="http://www.w3.org/1999/02/22-rdf-syntax-ns#">
   <cc:Work>
    <dc:type rdf:resource="http://purl.org/dc/dcmitype/StillImage"/>
    <dc:date>2025-02-08T10:52:21.928763</dc:date>
    <dc:format>image/svg+xml</dc:format>
    <dc:creator>
     <cc:Agent>
      <dc:title>Matplotlib v3.9.0, https://matplotlib.org/</dc:title>
     </cc:Agent>
    </dc:creator>
   </cc:Work>
  </rdf:RDF>
 </metadata>
 <defs>
  <style type="text/css">*{stroke-linejoin: round; stroke-linecap: butt}</style>
 </defs>
 <g id="figure_1">
  <g id="patch_1">
   <path d="M 0 280.512 
L 371.52 280.512 
L 371.52 0 
L 0 0 
z
" style="fill: #ffffff"/>
  </g>
  <g id="axes_1">
   <g id="patch_2">
    <path d="M 7.2 273.312 
L 364.32 273.312 
L 364.32 7.2 
L 7.2 7.2 
z
" style="fill: #ffffff"/>
   </g>
   <g id="PathCollection_1">
    <defs>
     <path id="C0_0_eefaaba471" d="M 0 1.581139 
C 0.419323 1.581139 0.821528 1.41454 1.118034 1.118034 
C 1.41454 0.821528 1.581139 0.419323 1.581139 -0 
C 1.581139 -0.419323 1.41454 -0.821528 1.118034 -1.118034 
C 0.821528 -1.41454 0.419323 -1.581139 0 -1.581139 
C -0.419323 -1.581139 -0.821528 -1.41454 -1.118034 -1.118034 
C -1.41454 -0.821528 -1.581139 -0.419323 -1.581139 0 
C -1.581139 0.419323 -1.41454 0.821528 -1.118034 1.118034 
C -0.821528 1.41454 -0.419323 1.581139 0 1.581139 
z
"/>
    </defs>
    <g clip-path="url(#p4f2e051def)">
     <use xlink:href="#C0_0_eefaaba471" x="107.765311" y="91.005865" style="fill: #ff0000; fill-opacity: 0.5; stroke: #ff0000; stroke-opacity: 0.5"/>
    </g>
    <g clip-path="url(#p4f2e051def)">
     <use xlink:href="#C0_0_eefaaba471" x="88.314024" y="57.649331" style="fill: #ff0000; fill-opacity: 0.5; stroke: #ff0000; stroke-opacity: 0.5"/>
    </g>
    <g clip-path="url(#p4f2e051def)">
     <use xlink:href="#C0_0_eefaaba471" x="66.827134" y="131.098747" style="fill: #ff0000; fill-opacity: 0.5; stroke: #ff0000; stroke-opacity: 0.5"/>
    </g>
    <g clip-path="url(#p4f2e051def)">
     <use xlink:href="#C0_0_eefaaba471" x="55.53502" y="103.971779" style="fill: #ff0000; fill-opacity: 0.5; stroke: #ff0000; stroke-opacity: 0.5"/>
    </g>
    <g clip-path="url(#p4f2e051def)">
     <use xlink:href="#C0_0_eefaaba471" x="122.901691" y="105.752807" style="fill: #ff0000; fill-opacity: 0.5; stroke: #ff0000; stroke-opacity: 0.5"/>
    </g>
    <g clip-path="url(#p4f2e051def)">
     <use xlink:href="#C0_0_eefaaba471" x="51.311182" y="121.349246" style="fill: #ff0000; fill-opacity: 0.5; stroke: #ff0000; stroke-opacity: 0.5"/>
    </g>
    <g clip-path="url(#p4f2e051def)">
     <use xlink:href="#C0_0_eefaaba471" x="37.691234" y="93.607492" style="fill: #ff0000; fill-opacity: 0.5; stroke: #ff0000; stroke-opacity: 0.5"/>
    </g>
    <g clip-path="url(#p4f2e051def)">
     <use xlink:href="#C0_0_eefaaba471" x="47.993381" y="126.482556" style="fill: #ff0000; fill-opacity: 0.5; stroke: #ff0000; stroke-opacity: 0.5"/>
    </g>
    <g clip-path="url(#p4f2e051def)">
     <use xlink:href="#C0_0_eefaaba471" x="112.342807" y="125.43059" style="fill: #ff0000; fill-opacity: 0.5; stroke: #ff0000; stroke-opacity: 0.5"/>
    </g>
    <g clip-path="url(#p4f2e051def)">
     <use xlink:href="#C0_0_eefaaba471" x="27.902656" y="90.952944" style="fill: #ff0000; fill-opacity: 0.5; stroke: #ff0000; stroke-opacity: 0.5"/>
    </g>
    <g clip-path="url(#p4f2e051def)">
     <use xlink:href="#C0_0_eefaaba471" x="38.145257" y="117.16643" style="fill: #ff0000; fill-opacity: 0.5; stroke: #ff0000; stroke-opacity: 0.5"/>
    </g>
    <g clip-path="url(#p4f2e051def)">
     <use xlink:href="#C0_0_eefaaba471" x="98.268105" y="117.943369" style="fill: #ff0000; fill-opacity: 0.5; stroke: #ff0000; stroke-opacity: 0.5"/>
    </g>
    <g clip-path="url(#p4f2e051def)">
     <use xlink:href="#C0_0_eefaaba471" x="23.432727" y="100.391417" style="fill: #ff0000; fill-opacity: 0.5; stroke: #ff0000; stroke-opacity: 0.5"/>
    </g>
    <g clip-path="url(#p4f2e051def)">
     <use xlink:href="#C0_0_eefaaba471" x="94.026116" y="47.450838" style="fill: #ff0000; fill-opacity: 0.5; stroke: #ff0000; stroke-opacity: 0.5"/>
    </g>
    <g clip-path="url(#p4f2e051def)">
     <use xlink:href="#C0_0_eefaaba471" x="73.342435" y="121.130039" style="fill: #ff0000; fill-opacity: 0.5; stroke: #ff0000; stroke-opacity: 0.5"/>
    </g>
    <g clip-path="url(#p4f2e051def)">
     <use xlink:href="#C0_0_eefaaba471" x="58.45132" y="92.590855" style="fill: #ff0000; fill-opacity: 0.5; stroke: #ff0000; stroke-opacity: 0.5"/>
    </g>
    <g clip-path="url(#p4f2e051def)">
     <use xlink:href="#C0_0_eefaaba471" x="52.235147" y="125.885241" style="fill: #ff0000; fill-opacity: 0.5; stroke: #ff0000; stroke-opacity: 0.5"/>
    </g>
    <g clip-path="url(#p4f2e051def)">
     <use xlink:href="#C0_0_eefaaba471" x="63.263756" y="144.678829" style="fill: #ff0000; fill-opacity: 0.5; stroke: #ff0000; stroke-opacity: 0.5"/>
    </g>
    <g clip-path="url(#p4f2e051def)">
     <use xlink:href="#C0_0_eefaaba471" x="48.172499" y="92.016134" style="fill: #ff0000; fill-opacity: 0.5; stroke: #ff0000; stroke-opacity: 0.5"/>
    </g>
    <g clip-path="url(#p4f2e051def)">
     <use xlink:href="#C0_0_eefaaba471" x="70.635374" y="92.726748" style="fill: #ff0000; fill-opacity: 0.5; stroke: #ff0000; stroke-opacity: 0.5"/>
    </g>
    <g clip-path="url(#p4f2e051def)">
     <use xlink:href="#C0_0_eefaaba471" x="44.632794" y="104.329671" style="fill: #ff0000; fill-opacity: 0.5; stroke: #ff0000; stroke-opacity: 0.5"/>
    </g>
    <g clip-path="url(#p4f2e051def)">
     <use xlink:href="#C0_0_eefaaba471" x="90.465373" y="172.142768" style="fill: #ff0000; fill-opacity: 0.5; stroke: #ff0000; stroke-opacity: 0.5"/>
    </g>
    <g clip-path="url(#p4f2e051def)">
     <use xlink:href="#C0_0_eefaaba471" x="96.461401" y="89.799907" style="fill: #ff0000; fill-opacity: 0.5; stroke: #ff0000; stroke-opacity: 0.5"/>
    </g>
    <g clip-path="url(#p4f2e051def)">
     <use xlink:href="#C0_0_eefaaba471" x="81.359246" y="82.847248" style="fill: #ff0000; fill-opacity: 0.5; stroke: #ff0000; stroke-opacity: 0.5"/>
    </g>
    <g clip-path="url(#p4f2e051def)">
     <use xlink:href="#C0_0_eefaaba471" x="53.613089" y="85.431667" style="fill: #ff0000; fill-opacity: 0.5; stroke: #ff0000; stroke-opacity: 0.5"/>
    </g>
    <g clip-path="url(#p4f2e051def)">
     <use xlink:href="#C0_0_eefaaba471" x="24.225008" y="120.421198" style="fill: #ff0000; fill-opacity: 0.5; stroke: #ff0000; stroke-opacity: 0.5"/>
    </g>
    <g clip-path="url(#p4f2e051def)">
     <use xlink:href="#C0_0_eefaaba471" x="97.822635" y="166.689801" style="fill: #ff0000; fill-opacity: 0.5; stroke: #ff0000; stroke-opacity: 0.5"/>
    </g>
    <g clip-path="url(#p4f2e051def)">
     <use xlink:href="#C0_0_eefaaba471" x="30.534543" y="103.112742" style="fill: #ff0000; fill-opacity: 0.5; stroke: #ff0000; stroke-opacity: 0.5"/>
    </g>
    <g clip-path="url(#p4f2e051def)">
     <use xlink:href="#C0_0_eefaaba471" x="93.321086" y="106.312603" style="fill: #ff0000; fill-opacity: 0.5; stroke: #ff0000; stroke-opacity: 0.5"/>
    </g>
    <g clip-path="url(#p4f2e051def)">
     <use xlink:href="#C0_0_eefaaba471" x="84.719108" y="115.128692" style="fill: #ff0000; fill-opacity: 0.5; stroke: #ff0000; stroke-opacity: 0.5"/>
    </g>
    <g clip-path="url(#p4f2e051def)">
     <use xlink:href="#C0_0_eefaaba471" x="82.450641" y="128.838847" style="fill: #ff0000; fill-opacity: 0.5; stroke: #ff0000; stroke-opacity: 0.5"/>
    </g>
    <g clip-path="url(#p4f2e051def)">
     <use xlink:href="#C0_0_eefaaba471" x="71.292447" y="87.312416" style="fill: #ff0000; fill-opacity: 0.5; stroke: #ff0000; stroke-opacity: 0.5"/>
    </g>
    <g clip-path="url(#p4f2e051def)">
     <use xlink:href="#C0_0_eefaaba471" x="83.266077" y="137.053345" style="fill: #ff0000; fill-opacity: 0.5; stroke: #ff0000; stroke-opacity: 0.5"/>
    </g>
    <g clip-path="url(#p4f2e051def)">
     <use xlink:href="#C0_0_eefaaba471" x="33.094924" y="98.288981" style="fill: #ff0000; fill-opacity: 0.5; stroke: #ff0000; stroke-opacity: 0.5"/>
    </g>
    <g clip-path="url(#p4f2e051def)">
     <use xlink:href="#C0_0_eefaaba471" x="98.079626" y="182.136572" style="fill: #ff0000; fill-opacity: 0.5; stroke: #ff0000; stroke-opacity: 0.5"/>
    </g>
    <g clip-path="url(#p4f2e051def)">
     <use xlink:href="#C0_0_eefaaba471" x="56.174067" y="100.042449" style="fill: #ff0000; fill-opacity: 0.5; stroke: #ff0000; stroke-opacity: 0.5"/>
    </g>
    <g clip-path="url(#p4f2e051def)">
     <use xlink:href="#C0_0_eefaaba471" x="35.920109" y="93.461295" style="fill: #ff0000; fill-opacity: 0.5; stroke: #ff0000; stroke-opacity: 0.5"/>
    </g>
    <g clip-path="url(#p4f2e051def)">
     <use xlink:href="#C0_0_eefaaba471" x="73.706371" y="172.737807" style="fill: #ff0000; fill-opacity: 0.5; stroke: #ff0000; stroke-opacity: 0.5"/>
    </g>
    <g clip-path="url(#p4f2e051def)">
     <use xlink:href="#C0_0_eefaaba471" x="59.828984" y="84.219427" style="fill: #ff0000; fill-opacity: 0.5; stroke: #ff0000; stroke-opacity: 0.5"/>
    </g>
    <g clip-path="url(#p4f2e051def)">
     <use xlink:href="#C0_0_eefaaba471" x="114.283992" y="166.379462" style="fill: #ff0000; fill-opacity: 0.5; stroke: #ff0000; stroke-opacity: 0.5"/>
    </g>
    <g clip-path="url(#p4f2e051def)">
     <use xlink:href="#C0_0_eefaaba471" x="97.777784" y="102.869731" style="fill: #ff0000; fill-opacity: 0.5; stroke: #ff0000; stroke-opacity: 0.5"/>
    </g>
    <g clip-path="url(#p4f2e051def)">
     <use xlink:href="#C0_0_eefaaba471" x="75.421259" y="102.851153" style="fill: #ff0000; fill-opacity: 0.5; stroke: #ff0000; stroke-opacity: 0.5"/>
    </g>
    <g clip-path="url(#p4f2e051def)">
     <use xlink:href="#C0_0_eefaaba471" x="111.287674" y="96.122353" style="fill: #ff0000; fill-opacity: 0.5; stroke: #ff0000; stroke-opacity: 0.5"/>
    </g>
    <g clip-path="url(#p4f2e051def)">
     <use xlink:href="#C0_0_eefaaba471" x="111.697525" y="142.161911" style="fill: #ff0000; fill-opacity: 0.5; stroke: #ff0000; stroke-opacity: 0.5"/>
    </g>
    <g clip-path="url(#p4f2e051def)">
     <use xlink:href="#C0_0_eefaaba471" x="58.775257" y="122.309005" style="fill: #ff0000; fill-opacity: 0.5; stroke: #ff0000; stroke-opacity: 0.5"/>
    </g>
    <g clip-path="url(#p4f2e051def)">
     <use xlink:href="#C0_0_eefaaba471" x="25.274923" y="97.796713" style="fill: #ff0000; fill-opacity: 0.5; stroke: #ff0000; stroke-opacity: 0.5"/>
    </g>
    <g clip-path="url(#p4f2e051def)">
     <use xlink:href="#C0_0_eefaaba471" x="84.142727" y="93.041343" style="fill: #ff0000; fill-opacity: 0.5; stroke: #ff0000; stroke-opacity: 0.5"/>
    </g>
    <g clip-path="url(#p4f2e051def)">
     <use xlink:href="#C0_0_eefaaba471" x="35.891903" y="106.617336" style="fill: #ff0000; fill-opacity: 0.5; stroke: #ff0000; stroke-opacity: 0.5"/>
    </g>
    <g clip-path="url(#p4f2e051def)">
     <use xlink:href="#C0_0_eefaaba471" x="64.081659" y="115.928899" style="fill: #ff0000; fill-opacity: 0.5; stroke: #ff0000; stroke-opacity: 0.5"/>
    </g>
   </g>
   <g id="PathCollection_2">
    <defs>
     <path id="C1_0_566f6867f9" d="M -0 2.236068 
L 2.236068 -0 
L 0 -2.236068 
L -2.236068 -0 
z
"/>
    </defs>
    <g clip-path="url(#p4f2e051def)">
     <use xlink:href="#C1_0_566f6867f9" x="326.557536" y="199.57291" style="fill: #0000ff; fill-opacity: 0.5; stroke: #0000ff; stroke-opacity: 0.5"/>
    </g>
    <g clip-path="url(#p4f2e051def)">
     <use xlink:href="#C1_0_566f6867f9" x="126.462656" y="166.143868" style="fill: #0000ff; fill-opacity: 0.5; stroke: #0000ff; stroke-opacity: 0.5"/>
    </g>
    <g clip-path="url(#p4f2e051def)">
     <use xlink:href="#C1_0_566f6867f9" x="121.550924" y="186.037534" style="fill: #0000ff; fill-opacity: 0.5; stroke: #0000ff; stroke-opacity: 0.5"/>
    </g>
    <g clip-path="url(#p4f2e051def)">
     <use xlink:href="#C1_0_566f6867f9" x="226.643321" y="51.985917" style="fill: #0000ff; fill-opacity: 0.5; stroke: #0000ff; stroke-opacity: 0.5"/>
    </g>
    <g clip-path="url(#p4f2e051def)">
     <use xlink:href="#C1_0_566f6867f9" x="265.244845" y="92.432709" style="fill: #0000ff; fill-opacity: 0.5; stroke: #0000ff; stroke-opacity: 0.5"/>
    </g>
    <g clip-path="url(#p4f2e051def)">
     <use xlink:href="#C1_0_566f6867f9" x="121.850816" y="99.376728" style="fill: #0000ff; fill-opacity: 0.5; stroke: #0000ff; stroke-opacity: 0.5"/>
    </g>
    <g clip-path="url(#p4f2e051def)">
     <use xlink:href="#C1_0_566f6867f9" x="175.780112" y="211.688899" style="fill: #0000ff; fill-opacity: 0.5; stroke: #0000ff; stroke-opacity: 0.5"/>
    </g>
    <g clip-path="url(#p4f2e051def)">
     <use xlink:href="#C1_0_566f6867f9" x="88.610258" y="141.116182" style="fill: #0000ff; fill-opacity: 0.5; stroke: #0000ff; stroke-opacity: 0.5"/>
    </g>
    <g clip-path="url(#p4f2e051def)">
     <use xlink:href="#C1_0_566f6867f9" x="157.514496" y="90.047105" style="fill: #0000ff; fill-opacity: 0.5; stroke: #0000ff; stroke-opacity: 0.5"/>
    </g>
    <g clip-path="url(#p4f2e051def)">
     <use xlink:href="#C1_0_566f6867f9" x="158.209879" y="196.392014" style="fill: #0000ff; fill-opacity: 0.5; stroke: #0000ff; stroke-opacity: 0.5"/>
    </g>
    <g clip-path="url(#p4f2e051def)">
     <use xlink:href="#C1_0_566f6867f9" x="156.074937" y="173.120206" style="fill: #0000ff; fill-opacity: 0.5; stroke: #0000ff; stroke-opacity: 0.5"/>
    </g>
    <g clip-path="url(#p4f2e051def)">
     <use xlink:href="#C1_0_566f6867f9" x="140.71412" y="161.894879" style="fill: #0000ff; fill-opacity: 0.5; stroke: #0000ff; stroke-opacity: 0.5"/>
    </g>
    <g clip-path="url(#p4f2e051def)">
     <use xlink:href="#C1_0_566f6867f9" x="136.237066" y="121.909776" style="fill: #0000ff; fill-opacity: 0.5; stroke: #0000ff; stroke-opacity: 0.5"/>
    </g>
    <g clip-path="url(#p4f2e051def)">
     <use xlink:href="#C1_0_566f6867f9" x="113.97032" y="145.776685" style="fill: #0000ff; fill-opacity: 0.5; stroke: #0000ff; stroke-opacity: 0.5"/>
    </g>
    <g clip-path="url(#p4f2e051def)">
     <use xlink:href="#C1_0_566f6867f9" x="155.659664" y="149.613777" style="fill: #0000ff; fill-opacity: 0.5; stroke: #0000ff; stroke-opacity: 0.5"/>
    </g>
    <g clip-path="url(#p4f2e051def)">
     <use xlink:href="#C1_0_566f6867f9" x="209.476573" y="261.216" style="fill: #0000ff; fill-opacity: 0.5; stroke: #0000ff; stroke-opacity: 0.5"/>
    </g>
    <g clip-path="url(#p4f2e051def)">
     <use xlink:href="#C1_0_566f6867f9" x="223.04236" y="134.077993" style="fill: #0000ff; fill-opacity: 0.5; stroke: #0000ff; stroke-opacity: 0.5"/>
    </g>
    <g clip-path="url(#p4f2e051def)">
     <use xlink:href="#C1_0_566f6867f9" x="252.200092" y="162.633457" style="fill: #0000ff; fill-opacity: 0.5; stroke: #0000ff; stroke-opacity: 0.5"/>
    </g>
    <g clip-path="url(#p4f2e051def)">
     <use xlink:href="#C1_0_566f6867f9" x="115.661817" y="117.222669" style="fill: #0000ff; fill-opacity: 0.5; stroke: #0000ff; stroke-opacity: 0.5"/>
    </g>
    <g clip-path="url(#p4f2e051def)">
     <use xlink:href="#C1_0_566f6867f9" x="142.608048" y="223.723433" style="fill: #0000ff; fill-opacity: 0.5; stroke: #0000ff; stroke-opacity: 0.5"/>
    </g>
    <g clip-path="url(#p4f2e051def)">
     <use xlink:href="#C1_0_566f6867f9" x="191.149716" y="211.738743" style="fill: #0000ff; fill-opacity: 0.5; stroke: #0000ff; stroke-opacity: 0.5"/>
    </g>
    <g clip-path="url(#p4f2e051def)">
     <use xlink:href="#C1_0_566f6867f9" x="139.505121" y="174.542903" style="fill: #0000ff; fill-opacity: 0.5; stroke: #0000ff; stroke-opacity: 0.5"/>
    </g>
    <g clip-path="url(#p4f2e051def)">
     <use xlink:href="#C1_0_566f6867f9" x="311.136494" y="167.104539" style="fill: #0000ff; fill-opacity: 0.5; stroke: #0000ff; stroke-opacity: 0.5"/>
    </g>
    <g clip-path="url(#p4f2e051def)">
     <use xlink:href="#C1_0_566f6867f9" x="99.495462" y="162.397428" style="fill: #0000ff; fill-opacity: 0.5; stroke: #0000ff; stroke-opacity: 0.5"/>
    </g>
    <g clip-path="url(#p4f2e051def)">
     <use xlink:href="#C1_0_566f6867f9" x="178.930691" y="93.060865" style="fill: #0000ff; fill-opacity: 0.5; stroke: #0000ff; stroke-opacity: 0.5"/>
    </g>
    <g clip-path="url(#p4f2e051def)">
     <use xlink:href="#C1_0_566f6867f9" x="213.379726" y="153.950651" style="fill: #0000ff; fill-opacity: 0.5; stroke: #0000ff; stroke-opacity: 0.5"/>
    </g>
    <g clip-path="url(#p4f2e051def)">
     <use xlink:href="#C1_0_566f6867f9" x="233.690302" y="233.183109" style="fill: #0000ff; fill-opacity: 0.5; stroke: #0000ff; stroke-opacity: 0.5"/>
    </g>
    <g clip-path="url(#p4f2e051def)">
     <use xlink:href="#C1_0_566f6867f9" x="116.903411" y="112.664128" style="fill: #0000ff; fill-opacity: 0.5; stroke: #0000ff; stroke-opacity: 0.5"/>
    </g>
    <g clip-path="url(#p4f2e051def)">
     <use xlink:href="#C1_0_566f6867f9" x="45.408107" y="211.431198" style="fill: #0000ff; fill-opacity: 0.5; stroke: #0000ff; stroke-opacity: 0.5"/>
    </g>
    <g clip-path="url(#p4f2e051def)">
     <use xlink:href="#C1_0_566f6867f9" x="133.36321" y="179.112534" style="fill: #0000ff; fill-opacity: 0.5; stroke: #0000ff; stroke-opacity: 0.5"/>
    </g>
    <g clip-path="url(#p4f2e051def)">
     <use xlink:href="#C1_0_566f6867f9" x="271.089072" y="224.8199" style="fill: #0000ff; fill-opacity: 0.5; stroke: #0000ff; stroke-opacity: 0.5"/>
    </g>
    <g clip-path="url(#p4f2e051def)">
     <use xlink:href="#C1_0_566f6867f9" x="254.398291" y="67.522103" style="fill: #0000ff; fill-opacity: 0.5; stroke: #0000ff; stroke-opacity: 0.5"/>
    </g>
    <g clip-path="url(#p4f2e051def)">
     <use xlink:href="#C1_0_566f6867f9" x="200.524079" y="188.172771" style="fill: #0000ff; fill-opacity: 0.5; stroke: #0000ff; stroke-opacity: 0.5"/>
    </g>
    <g clip-path="url(#p4f2e051def)">
     <use xlink:href="#C1_0_566f6867f9" x="93.285552" y="155.262576" style="fill: #0000ff; fill-opacity: 0.5; stroke: #0000ff; stroke-opacity: 0.5"/>
    </g>
    <g clip-path="url(#p4f2e051def)">
     <use xlink:href="#C1_0_566f6867f9" x="190.023944" y="185.985899" style="fill: #0000ff; fill-opacity: 0.5; stroke: #0000ff; stroke-opacity: 0.5"/>
    </g>
    <g clip-path="url(#p4f2e051def)">
     <use xlink:href="#C1_0_566f6867f9" x="165.621236" y="137.503775" style="fill: #0000ff; fill-opacity: 0.5; stroke: #0000ff; stroke-opacity: 0.5"/>
    </g>
    <g clip-path="url(#p4f2e051def)">
     <use xlink:href="#C1_0_566f6867f9" x="206.954881" y="75.632704" style="fill: #0000ff; fill-opacity: 0.5; stroke: #0000ff; stroke-opacity: 0.5"/>
    </g>
    <g clip-path="url(#p4f2e051def)">
     <use xlink:href="#C1_0_566f6867f9" x="197.99601" y="48.294869" style="fill: #0000ff; fill-opacity: 0.5; stroke: #0000ff; stroke-opacity: 0.5"/>
    </g>
    <g clip-path="url(#p4f2e051def)">
     <use xlink:href="#C1_0_566f6867f9" x="174.255129" y="126.333229" style="fill: #0000ff; fill-opacity: 0.5; stroke: #0000ff; stroke-opacity: 0.5"/>
    </g>
    <g clip-path="url(#p4f2e051def)">
     <use xlink:href="#C1_0_566f6867f9" x="166.564779" y="119.384235" style="fill: #0000ff; fill-opacity: 0.5; stroke: #0000ff; stroke-opacity: 0.5"/>
    </g>
    <g clip-path="url(#p4f2e051def)">
     <use xlink:href="#C1_0_566f6867f9" x="131.0172" y="75.174297" style="fill: #0000ff; fill-opacity: 0.5; stroke: #0000ff; stroke-opacity: 0.5"/>
    </g>
    <g clip-path="url(#p4f2e051def)">
     <use xlink:href="#C1_0_566f6867f9" x="120.442062" y="41.467055" style="fill: #0000ff; fill-opacity: 0.5; stroke: #0000ff; stroke-opacity: 0.5"/>
    </g>
    <g clip-path="url(#p4f2e051def)">
     <use xlink:href="#C1_0_566f6867f9" x="105.7027" y="150.983004" style="fill: #0000ff; fill-opacity: 0.5; stroke: #0000ff; stroke-opacity: 0.5"/>
    </g>
    <g clip-path="url(#p4f2e051def)">
     <use xlink:href="#C1_0_566f6867f9" x="112.9381" y="134.629136" style="fill: #0000ff; fill-opacity: 0.5; stroke: #0000ff; stroke-opacity: 0.5"/>
    </g>
    <g clip-path="url(#p4f2e051def)">
     <use xlink:href="#C1_0_566f6867f9" x="208.415361" y="113.046703" style="fill: #0000ff; fill-opacity: 0.5; stroke: #0000ff; stroke-opacity: 0.5"/>
    </g>
    <g clip-path="url(#p4f2e051def)">
     <use xlink:href="#C1_0_566f6867f9" x="303.488359" y="244.196586" style="fill: #0000ff; fill-opacity: 0.5; stroke: #0000ff; stroke-opacity: 0.5"/>
    </g>
    <g clip-path="url(#p4f2e051def)">
     <use xlink:href="#C1_0_566f6867f9" x="133.455132" y="94.803107" style="fill: #0000ff; fill-opacity: 0.5; stroke: #0000ff; stroke-opacity: 0.5"/>
    </g>
    <g clip-path="url(#p4f2e051def)">
     <use xlink:href="#C1_0_566f6867f9" x="348.087273" y="19.296" style="fill: #0000ff; fill-opacity: 0.5; stroke: #0000ff; stroke-opacity: 0.5"/>
    </g>
    <g clip-path="url(#p4f2e051def)">
     <use xlink:href="#C1_0_566f6867f9" x="245.37397" y="222.021743" style="fill: #0000ff; fill-opacity: 0.5; stroke: #0000ff; stroke-opacity: 0.5"/>
    </g>
    <g clip-path="url(#p4f2e051def)">
     <use xlink:href="#C1_0_566f6867f9" x="143.76497" y="81.700942" style="fill: #0000ff; fill-opacity: 0.5; stroke: #0000ff; stroke-opacity: 0.5"/>
    </g>
    <g clip-path="url(#p4f2e051def)">
     <use xlink:href="#C1_0_566f6867f9" x="259.456946" y="126.520599" style="fill: #0000ff; fill-opacity: 0.5; stroke: #0000ff; stroke-opacity: 0.5"/>
    </g>
   </g>
   <g id="matplotlib.axis_1"/>
   <g id="matplotlib.axis_2"/>
   <g id="patch_3">
    <path d="M 7.2 273.312 
L 7.2 7.2 
" style="fill: none; stroke: #000000; stroke-width: 0.8; stroke-linejoin: miter; stroke-linecap: square"/>
   </g>
   <g id="patch_4">
    <path d="M 364.32 273.312 
L 364.32 7.2 
" style="fill: none; stroke: #000000; stroke-width: 0.8; stroke-linejoin: miter; stroke-linecap: square"/>
   </g>
   <g id="patch_5">
    <path d="M 7.2 273.312 
L 364.32 273.312 
" style="fill: none; stroke: #000000; stroke-width: 0.8; stroke-linejoin: miter; stroke-linecap: square"/>
   </g>
   <g id="patch_6">
    <path d="M 7.2 7.2 
L 364.32 7.2 
" style="fill: none; stroke: #000000; stroke-width: 0.8; stroke-linejoin: miter; stroke-linecap: square"/>
   </g>
   <g id="legend_1">
    <g id="patch_7">
     <path d="M 14.2 59.234375 
L 52.5625 59.234375 
Q 54.5625 59.234375 54.5625 57.234375 
L 54.5625 14.2 
Q 54.5625 12.2 52.5625 12.2 
L 14.2 12.2 
Q 12.2 12.2 12.2 14.2 
L 12.2 57.234375 
Q 12.2 59.234375 14.2 59.234375 
z
" style="fill: #ffffff; opacity: 0.8; stroke: #cccccc; stroke-linejoin: miter"/>
    </g>
    <g id="text_1">
     <!-- Label -->
     <g transform="translate(19.891406 23.798437) scale(0.1 -0.1)">
      <defs>
       <path id="DejaVuSans-4c" d="M 628 4666 
L 1259 4666 
L 1259 531 
L 3531 531 
L 3531 0 
L 628 0 
L 628 4666 
z
" transform="scale(0.015625)"/>
       <path id="DejaVuSans-61" d="M 2194 1759 
Q 1497 1759 1228 1600 
Q 959 1441 959 1056 
Q 959 750 1161 570 
Q 1363 391 1709 391 
Q 2188 391 2477 730 
Q 2766 1069 2766 1631 
L 2766 1759 
L 2194 1759 
z
M 3341 1997 
L 3341 0 
L 2766 0 
L 2766 531 
Q 2569 213 2275 61 
Q 1981 -91 1556 -91 
Q 1019 -91 701 211 
Q 384 513 384 1019 
Q 384 1609 779 1909 
Q 1175 2209 1959 2209 
L 2766 2209 
L 2766 2266 
Q 2766 2663 2505 2880 
Q 2244 3097 1772 3097 
Q 1472 3097 1187 3025 
Q 903 2953 641 2809 
L 641 3341 
Q 956 3463 1253 3523 
Q 1550 3584 1831 3584 
Q 2591 3584 2966 3190 
Q 3341 2797 3341 1997 
z
" transform="scale(0.015625)"/>
       <path id="DejaVuSans-62" d="M 3116 1747 
Q 3116 2381 2855 2742 
Q 2594 3103 2138 3103 
Q 1681 3103 1420 2742 
Q 1159 2381 1159 1747 
Q 1159 1113 1420 752 
Q 1681 391 2138 391 
Q 2594 391 2855 752 
Q 3116 1113 3116 1747 
z
M 1159 2969 
Q 1341 3281 1617 3432 
Q 1894 3584 2278 3584 
Q 2916 3584 3314 3078 
Q 3713 2572 3713 1747 
Q 3713 922 3314 415 
Q 2916 -91 2278 -91 
Q 1894 -91 1617 61 
Q 1341 213 1159 525 
L 1159 0 
L 581 0 
L 581 4863 
L 1159 4863 
L 1159 2969 
z
" transform="scale(0.015625)"/>
       <path id="DejaVuSans-65" d="M 3597 1894 
L 3597 1613 
L 953 1613 
Q 991 1019 1311 708 
Q 1631 397 2203 397 
Q 2534 397 2845 478 
Q 3156 559 3463 722 
L 3463 178 
Q 3153 47 2828 -22 
Q 2503 -91 2169 -91 
Q 1331 -91 842 396 
Q 353 884 353 1716 
Q 353 2575 817 3079 
Q 1281 3584 2069 3584 
Q 2775 3584 3186 3129 
Q 3597 2675 3597 1894 
z
M 3022 2063 
Q 3016 2534 2758 2815 
Q 2500 3097 2075 3097 
Q 1594 3097 1305 2825 
Q 1016 2553 972 2059 
L 3022 2063 
z
" transform="scale(0.015625)"/>
       <path id="DejaVuSans-6c" d="M 603 4863 
L 1178 4863 
L 1178 0 
L 603 0 
L 603 4863 
z
" transform="scale(0.015625)"/>
      </defs>
      <use xlink:href="#DejaVuSans-4c"/>
      <use xlink:href="#DejaVuSans-61" x="55.712891"/>
      <use xlink:href="#DejaVuSans-62" x="116.992188"/>
      <use xlink:href="#DejaVuSans-65" x="180.46875"/>
      <use xlink:href="#DejaVuSans-6c" x="241.992188"/>
     </g>
    </g>
    <g id="PathCollection_3">
     <path d="M 26.2 37.432701 
C 26.619323 37.432701 27.021528 37.266103 27.318034 36.969596 
C 27.61454 36.67309 27.781139 36.270885 27.781139 35.851562 
C 27.781139 35.43224 27.61454 35.030035 27.318034 34.733529 
C 27.021528 34.437022 26.619323 34.270424 26.2 34.270424 
C 25.780677 34.270424 25.378472 34.437022 25.081966 34.733529 
C 24.78546 35.030035 24.618861 35.43224 24.618861 35.851562 
C 24.618861 36.270885 24.78546 36.67309 25.081966 36.969596 
C 25.378472 37.266103 25.780677 37.432701 26.2 37.432701 
z
" style="fill: #ff0000; fill-opacity: 0.5; stroke: #ff0000; stroke-opacity: 0.5"/>
    </g>
    <g id="text_2">
     <!-- 0 -->
     <g transform="translate(44.2 38.476562) scale(0.1 -0.1)">
      <defs>
       <path id="DejaVuSans-30" d="M 2034 4250 
Q 1547 4250 1301 3770 
Q 1056 3291 1056 2328 
Q 1056 1369 1301 889 
Q 1547 409 2034 409 
Q 2525 409 2770 889 
Q 3016 1369 3016 2328 
Q 3016 3291 2770 3770 
Q 2525 4250 2034 4250 
z
M 2034 4750 
Q 2819 4750 3233 4129 
Q 3647 3509 3647 2328 
Q 3647 1150 3233 529 
Q 2819 -91 2034 -91 
Q 1250 -91 836 529 
Q 422 1150 422 2328 
Q 422 3509 836 4129 
Q 1250 4750 2034 4750 
z
" transform="scale(0.015625)"/>
      </defs>
      <use xlink:href="#DejaVuSans-30"/>
     </g>
    </g>
    <g id="PathCollection_4">
     <path d="M 26.2 52.765755 
L 28.436068 50.529687 
L 26.2 48.29362 
L 23.963932 50.529687 
z
" style="fill: #0000ff; fill-opacity: 0.5; stroke: #0000ff; stroke-opacity: 0.5"/>
    </g>
    <g id="text_3">
     <!-- 1 -->
     <g transform="translate(44.2 53.154687) scale(0.1 -0.1)">
      <defs>
       <path id="DejaVuSans-31" d="M 794 531 
L 1825 531 
L 1825 4091 
L 703 3866 
L 703 4441 
L 1819 4666 
L 2450 4666 
L 2450 531 
L 3481 531 
L 3481 0 
L 794 0 
L 794 531 
z
" transform="scale(0.015625)"/>
      </defs>
      <use xlink:href="#DejaVuSans-31"/>
     </g>
    </g>
   </g>
  </g>
 </g>
 <defs>
  <clipPath id="p4f2e051def">
   <rect x="7.2" y="7.2" width="357.12" height="266.112"/>
  </clipPath>
 </defs>
</svg>
